<svg width="402" height="238" viewBox="0 0 402 238" fill="none" xmlns="http://www.w3.org/2000/svg">
<g filter="url(#filter0_d_779_3441)">
<rect x="2" width="398" height="234" rx="12" fill="url(#paint0_linear_779_3441)"/>
<mask id="mask0_779_3441" style="mask-type:alpha" maskUnits="userSpaceOnUse" x="2" y="0" width="398" height="234">
<rect x="2" width="398" height="234" rx="12" fill="url(#paint1_linear_779_3441)"/>
</mask>
<g mask="url(#mask0_779_3441)">
<path d="M189.532 163.397C81.1286 97.8549 12.7825 130.78 -17.6072 167.41C-19.7761 170.025 -20.8606 171.332 -21.5729 173.306C-22.2852 175.28 -22.2852 177.242 -22.2852 181.165V238.242C-22.2852 249.555 -22.2852 255.212 -18.7704 258.727C-15.2557 262.242 -9.59887 262.242 1.71483 262.242H401.633C412.947 262.242 418.604 262.242 422.119 258.727C425.633 255.212 425.633 249.555 425.633 238.242V233.6C425.633 212.374 425.633 201.761 421.43 198.169C417.226 194.576 404.527 196.579 379.129 200.584C326.866 208.825 248.897 199.29 189.532 163.397Z" fill="url(#paint2_linear_779_3441)"/>
<rect x="352.5" y="24.5" width="23" height="23" rx="11.5" fill="white" stroke="#E6E6E6"/>
<path d="M360.668 42C360.301 42 359.988 41.8696 359.727 41.6087C359.466 41.3478 359.335 41.0338 359.335 40.6667V32H358.668V30.6667H362.001V30H366.001V30.6667H369.335V32H368.668V40.6667C368.668 41.0333 368.538 41.3473 368.277 41.6087C368.016 41.87 367.702 42.0004 367.335 42H360.668ZM367.335 32H360.668V40.6667H367.335V32ZM362.001 39.3333H363.335V33.3333H362.001V39.3333ZM364.668 39.3333H366.001V33.3333H364.668V39.3333Z" fill="black"/>
<rect x="312.5" y="24.5" width="23" height="23" rx="11.5" fill="white" stroke="#E6E6E6"/>
<path d="M320.276 38.5932L327.037 31.8318L326.095 30.8892L319.333 37.6505V38.5932H320.276ZM320.829 39.9265H318V37.0978L325.623 29.4745C325.748 29.3495 325.918 29.2793 326.095 29.2793C326.271 29.2793 326.441 29.3495 326.566 29.4745L328.452 31.3605C328.577 31.4855 328.647 31.655 328.647 31.8318C328.647 32.0086 328.577 32.1781 328.452 32.3032L320.829 39.9265ZM318 41.2598H330V42.5932H318V41.2598Z" fill="black"/>
</g>
<g clip-path="url(#clip0_779_3441)">
<path d="M51.6276 26.4766L48.375 45.5639H53.577L56.8322 26.4766H51.6276Z" fill="white"/>
<path d="M44.0124 26.4982L38.9174 39.5152L38.3742 37.5497C37.3694 35.1815 34.5169 31.7804 31.168 29.637L35.8267 45.5547L41.3311 45.5454L49.5234 26.4941L44.0124 26.4982Z" fill="white"/>
<path d="M36.3986 27.8632C36.0962 26.7005 35.2199 26.354 34.1321 26.3125H26.0669L26 26.6925C32.2764 28.2151 36.4294 31.8838 38.1527 36.295L36.3986 27.8632Z" fill="white"/>
<path d="M67.3752 30.1356C69.077 30.1088 70.3106 30.4808 71.2686 30.8661L71.7382 31.0868L72.442 26.9499C71.4118 26.5632 69.7969 26.1484 67.7819 26.1484C62.6415 26.1484 59.0183 28.7374 58.9902 32.4476C58.9567 35.189 61.5711 36.7197 63.5459 37.6335C65.5729 38.5701 66.2526 39.1655 66.2432 40.0017C66.2272 41.2794 64.627 41.8655 63.1325 41.8655C61.0493 41.8655 59.9428 41.5778 58.2342 40.866L57.5639 40.5609L56.832 44.8331C58.0496 45.3669 60.296 45.8258 62.6281 45.8499C68.0963 45.8499 71.6499 43.2917 71.6874 39.3273C71.7102 37.1585 70.3227 35.5035 67.3163 34.1454C65.4967 33.2597 64.3835 32.671 64.3942 31.7772C64.3942 30.9838 65.3388 30.1356 67.3752 30.1356Z" fill="white"/>
<path d="M85.7929 26.498H81.7737C80.5254 26.498 79.5968 26.8379 79.0483 28.0822L71.3242 45.5747H76.7871C76.7871 45.5747 77.6782 43.2226 77.8802 42.7074C78.4783 42.7074 83.786 42.7155 84.5419 42.7155C84.6971 43.3818 85.1761 45.5747 85.1761 45.5747H90.0021L85.7929 26.498ZM79.3774 38.8006C79.8055 37.7048 81.4499 33.4661 81.4499 33.4661C81.4218 33.5183 81.874 32.3623 82.143 31.6438L82.4935 33.2895C82.4935 33.2895 83.4903 37.8466 83.699 38.8006H79.3774Z" fill="white"/>
</g>
<path d="M294.932 112.159C294.152 112.159 293.462 112.021 292.864 111.744C292.269 111.464 291.805 111.08 291.472 110.591C291.138 110.098 290.973 109.538 290.977 108.909C290.973 108.417 291.07 107.962 291.267 107.545C291.464 107.125 291.733 106.775 292.074 106.494C292.419 106.21 292.803 106.03 293.227 105.955V105.886C292.67 105.742 292.227 105.43 291.898 104.949C291.568 104.464 291.405 103.913 291.409 103.295C291.405 102.705 291.555 102.176 291.858 101.71C292.161 101.244 292.578 100.877 293.108 100.608C293.642 100.339 294.25 100.205 294.932 100.205C295.606 100.205 296.208 100.339 296.739 100.608C297.269 100.877 297.686 101.244 297.989 101.71C298.295 102.176 298.451 102.705 298.455 103.295C298.451 103.913 298.282 104.464 297.949 104.949C297.619 105.43 297.182 105.742 296.636 105.886V105.955C297.057 106.03 297.436 106.21 297.773 106.494C298.11 106.775 298.379 107.125 298.58 107.545C298.78 107.962 298.883 108.417 298.886 108.909C298.883 109.538 298.712 110.098 298.375 110.591C298.042 111.08 297.578 111.464 296.983 111.744C296.392 112.021 295.708 112.159 294.932 112.159ZM294.932 110.909C295.458 110.909 295.913 110.824 296.295 110.653C296.678 110.483 296.973 110.242 297.182 109.932C297.39 109.621 297.496 109.258 297.5 108.841C297.496 108.402 297.383 108.013 297.159 107.676C296.936 107.339 296.631 107.074 296.244 106.881C295.862 106.687 295.424 106.591 294.932 106.591C294.436 106.591 293.992 106.687 293.602 106.881C293.216 107.074 292.911 107.339 292.688 107.676C292.468 108.013 292.36 108.402 292.364 108.841C292.36 109.258 292.46 109.621 292.665 109.932C292.873 110.242 293.17 110.483 293.557 110.653C293.943 110.824 294.402 110.909 294.932 110.909ZM294.932 105.386C295.348 105.386 295.718 105.303 296.04 105.136C296.366 104.97 296.621 104.737 296.807 104.438C296.992 104.138 297.087 103.788 297.091 103.386C297.087 102.992 296.994 102.65 296.812 102.358C296.631 102.062 296.379 101.835 296.057 101.676C295.735 101.513 295.36 101.432 294.932 101.432C294.496 101.432 294.116 101.513 293.79 101.676C293.464 101.835 293.212 102.062 293.034 102.358C292.856 102.65 292.769 102.992 292.773 103.386C292.769 103.788 292.858 104.138 293.04 104.438C293.225 104.737 293.481 104.97 293.807 105.136C294.133 105.303 294.508 105.386 294.932 105.386ZM306.859 112.159C306.003 112.159 305.274 111.926 304.672 111.46C304.07 110.991 303.609 110.311 303.291 109.42C302.973 108.527 302.814 107.447 302.814 106.182C302.814 104.924 302.973 103.85 303.291 102.96C303.613 102.066 304.075 101.384 304.678 100.915C305.284 100.441 306.011 100.205 306.859 100.205C307.708 100.205 308.433 100.441 309.036 100.915C309.642 101.384 310.104 102.066 310.422 102.96C310.744 103.85 310.905 104.924 310.905 106.182C310.905 107.447 310.746 108.527 310.428 109.42C310.109 110.311 309.649 110.991 309.047 111.46C308.445 111.926 307.715 112.159 306.859 112.159ZM306.859 110.909C307.708 110.909 308.367 110.5 308.837 109.682C309.306 108.864 309.541 107.697 309.541 106.182C309.541 105.174 309.433 104.316 309.217 103.608C309.005 102.9 308.698 102.36 308.297 101.989C307.899 101.617 307.42 101.432 306.859 101.432C306.018 101.432 305.361 101.847 304.888 102.676C304.414 103.502 304.178 104.67 304.178 106.182C304.178 107.189 304.284 108.045 304.496 108.75C304.708 109.455 305.013 109.991 305.411 110.358C305.812 110.725 306.295 110.909 306.859 110.909ZM319.155 100.364V112H317.746V101.841H317.678L314.837 103.727V102.295L317.746 100.364H319.155ZM324.229 109.614V108.455L329.342 100.364H330.183V102.159H329.615L325.751 108.273V108.364H332.638V109.614H324.229ZM329.706 112V109.261V108.722V100.364H331.047V112H329.706Z" fill="white"/>
<path opacity="0.8" d="M32.733 172H31.8523C31.8002 171.747 31.709 171.524 31.5788 171.332C31.451 171.141 31.2947 170.98 31.1101 170.849C30.9278 170.717 30.7254 170.617 30.5028 170.551C30.2803 170.485 30.0483 170.452 29.8068 170.452C29.3665 170.452 28.9676 170.563 28.6101 170.786C28.255 171.008 27.9721 171.336 27.7614 171.769C27.553 172.202 27.4489 172.734 27.4489 173.364C27.4489 173.993 27.553 174.525 27.7614 174.958C27.9721 175.391 28.255 175.719 28.6101 175.942C28.9676 176.164 29.3665 176.276 29.8068 176.276C30.0483 176.276 30.2803 176.242 30.5028 176.176C30.7254 176.11 30.9278 176.012 31.1101 175.881C31.2947 175.749 31.451 175.587 31.5788 175.395C31.709 175.201 31.8002 174.978 31.8523 174.727H32.733C32.6667 175.099 32.5459 175.432 32.3707 175.725C32.1955 176.019 31.9777 176.268 31.7173 176.474C31.4569 176.678 31.1645 176.833 30.8402 176.94C30.5182 177.046 30.1738 177.099 29.8068 177.099C29.1866 177.099 28.6349 176.948 28.152 176.645C27.669 176.342 27.2891 175.911 27.0121 175.352C26.7351 174.794 26.5966 174.131 26.5966 173.364C26.5966 172.597 26.7351 171.934 27.0121 171.375C27.2891 170.816 27.669 170.385 28.152 170.082C28.6349 169.779 29.1866 169.628 29.8068 169.628C30.1738 169.628 30.5182 169.681 30.8402 169.788C31.1645 169.894 31.4569 170.05 31.7173 170.256C31.9777 170.46 32.1955 170.709 32.3707 171.002C32.5459 171.293 32.6667 171.626 32.733 172ZM34.4544 177H33.5311L36.2015 169.727H37.1106L39.7811 177H38.8578L36.6845 170.878H36.6277L34.4544 177ZM34.7953 174.159H38.5169V174.94H34.7953V174.159ZM40.9139 177V169.727H43.3713C43.9395 169.727 44.4058 169.824 44.7704 170.018C45.135 170.21 45.4049 170.474 45.5801 170.81C45.7553 171.147 45.8429 171.529 45.8429 171.957C45.8429 172.386 45.7553 172.766 45.5801 173.097C45.4049 173.429 45.1362 173.689 44.774 173.879C44.4118 174.066 43.9489 174.159 43.3855 174.159H41.3968V173.364H43.3571C43.7453 173.364 44.0578 173.307 44.2946 173.193C44.5337 173.08 44.7065 172.919 44.813 172.71C44.9219 172.5 44.9764 172.249 44.9764 171.957C44.9764 171.666 44.9219 171.412 44.813 171.194C44.7041 170.976 44.5301 170.808 44.291 170.69C44.0519 170.569 43.7359 170.509 43.3429 170.509H41.7946V177H40.9139ZM44.3372 173.733L46.127 177H45.1042L43.3429 173.733H44.3372ZM49.5547 177H47.3104V169.727H49.6541C50.3596 169.727 50.9633 169.873 51.4652 170.164C51.9671 170.453 52.3518 170.868 52.6193 171.411C52.8868 171.95 53.0206 172.597 53.0206 173.349C53.0206 174.107 52.8857 174.759 52.6158 175.306C52.3459 175.851 51.9529 176.27 51.4368 176.563C50.9207 176.854 50.2933 177 49.5547 177ZM48.1911 176.219H49.4979C50.0992 176.219 50.5975 176.103 50.9929 175.871C51.3883 175.639 51.683 175.308 51.8771 174.88C52.0713 174.451 52.1683 173.941 52.1683 173.349C52.1683 172.762 52.0724 172.257 51.8807 171.833C51.6889 171.407 51.4025 171.08 51.0213 170.853C50.6402 170.623 50.1655 170.509 49.5973 170.509H48.1911V176.219ZM57.3104 177V169.727H58.1911V172.966H62.0689V169.727H62.9496V177H62.0689V173.747H58.1911V177H57.3104ZM70.8491 173.364C70.8491 174.131 70.7106 174.794 70.4336 175.352C70.1566 175.911 69.7766 176.342 69.2937 176.645C68.8107 176.948 68.2591 177.099 67.6388 177.099C67.0186 177.099 66.467 176.948 65.984 176.645C65.5011 176.342 65.1211 175.911 64.8441 175.352C64.5671 174.794 64.4286 174.131 64.4286 173.364C64.4286 172.597 64.5671 171.934 64.8441 171.375C65.1211 170.816 65.5011 170.385 65.984 170.082C66.467 169.779 67.0186 169.628 67.6388 169.628C68.2591 169.628 68.8107 169.779 69.2937 170.082C69.7766 170.385 70.1566 170.816 70.4336 171.375C70.7106 171.934 70.8491 172.597 70.8491 173.364ZM69.9968 173.364C69.9968 172.734 69.8915 172.202 69.6808 171.769C69.4724 171.336 69.1895 171.008 68.832 170.786C68.4769 170.563 68.0792 170.452 67.6388 170.452C67.1985 170.452 66.7996 170.563 66.4421 170.786C66.087 171.008 65.8041 171.336 65.5934 171.769C65.3851 172.202 65.2809 172.734 65.2809 173.364C65.2809 173.993 65.3851 174.525 65.5934 174.958C65.8041 175.391 66.087 175.719 66.4421 175.942C66.7996 176.164 67.1985 176.276 67.6388 176.276C68.0792 176.276 68.4769 176.164 68.832 175.942C69.1895 175.719 69.4724 175.391 69.6808 174.958C69.8915 174.525 69.9968 173.993 69.9968 173.364ZM72.3299 177V169.727H73.2106V176.219H76.5913V177H72.3299ZM80.1992 177H77.9549V169.727H80.2987C81.0041 169.727 81.6078 169.873 82.1097 170.164C82.6116 170.453 82.9963 170.868 83.2638 171.411C83.5314 171.95 83.6651 172.597 83.6651 173.349C83.6651 174.107 83.5302 174.759 83.2603 175.306C82.9904 175.851 82.5974 176.27 82.0813 176.563C81.5652 176.854 80.9379 177 80.1992 177ZM78.8356 176.219H80.1424C80.7437 176.219 81.2421 176.103 81.6374 175.871C82.0328 175.639 82.3275 175.308 82.5217 174.88C82.7158 174.451 82.8129 173.941 82.8129 173.349C82.8129 172.762 82.717 172.257 82.5252 171.833C82.3335 171.407 82.047 171.08 81.6658 170.853C81.2847 170.623 80.81 170.509 80.2418 170.509H78.8356V176.219ZM85.1424 177V169.727H89.5316V170.509H86.0231V172.966H89.3043V173.747H86.0231V176.219H89.5884V177H85.1424ZM91.119 177V169.727H93.5763C94.1445 169.727 94.6109 169.824 94.9755 170.018C95.3401 170.21 95.61 170.474 95.7852 170.81C95.9603 171.147 96.0479 171.529 96.0479 171.957C96.0479 172.386 95.9603 172.766 95.7852 173.097C95.61 173.429 95.3413 173.689 94.979 173.879C94.6168 174.066 94.154 174.159 93.5906 174.159H91.6019V173.364H93.5621C93.9504 173.364 94.2629 173.307 94.4996 173.193C94.7388 173.08 94.9116 172.919 95.0181 172.71C95.127 172.5 95.1815 172.249 95.1815 171.957C95.1815 171.666 95.127 171.412 95.0181 171.194C94.9092 170.976 94.7352 170.808 94.4961 170.69C94.257 170.569 93.9409 170.509 93.5479 170.509H91.9996V177H91.119ZM94.5423 173.733L96.332 177H95.3093L93.5479 173.733H94.5423Z" fill="white"/>
<path opacity="0.8" d="M336.744 177V169.727H341.133V170.509H337.625V172.966H340.906V173.747H337.625V176.219H341.19V177H336.744ZM343.147 169.727L345.022 172.753H345.078L346.953 169.727H347.99L345.703 173.364L347.99 177H346.953L345.078 174.031H345.022L343.147 177H342.11L344.453 173.364L342.11 169.727H343.147ZM349.137 177V169.727H351.594C352.164 169.727 352.631 169.83 352.993 170.036C353.358 170.24 353.628 170.516 353.803 170.864C353.978 171.212 354.066 171.6 354.066 172.028C354.066 172.457 353.978 172.846 353.803 173.197C353.63 173.547 353.362 173.826 353 174.035C352.638 174.241 352.174 174.344 351.608 174.344H349.847V173.562H351.58C351.97 173.562 352.284 173.495 352.521 173.36C352.758 173.225 352.929 173.043 353.036 172.813C353.145 172.581 353.199 172.32 353.199 172.028C353.199 171.737 353.145 171.477 353.036 171.247C352.929 171.018 352.756 170.838 352.517 170.707C352.278 170.575 351.961 170.509 351.566 170.509H350.017V177H349.137ZM356.365 169.727V177H355.484V169.727H356.365ZM358.131 177V169.727H360.588C361.156 169.727 361.623 169.824 361.987 170.018C362.352 170.21 362.622 170.474 362.797 170.81C362.972 171.147 363.06 171.529 363.06 171.957C363.06 172.386 362.972 172.766 362.797 173.097C362.622 173.429 362.353 173.689 361.991 173.879C361.629 174.066 361.166 174.159 360.602 174.159H358.614V173.364H360.574C360.962 173.364 361.275 173.307 361.511 173.193C361.75 173.08 361.923 172.919 362.03 172.71C362.139 172.5 362.193 172.249 362.193 171.957C362.193 171.666 362.139 171.412 362.03 171.194C361.921 170.976 361.747 170.808 361.508 170.69C361.269 170.569 360.953 170.509 360.56 170.509H359.011V177H358.131ZM361.554 173.733L363.344 177H362.321L360.56 173.733H361.554ZM364.527 177V169.727H368.916V170.509H365.408V172.966H368.689V173.747H365.408V176.219H368.973V177H364.527ZM374.481 171.545C374.438 171.186 374.266 170.906 373.963 170.707C373.66 170.509 373.288 170.409 372.847 170.409C372.526 170.409 372.244 170.461 372.002 170.565C371.763 170.67 371.576 170.813 371.441 170.995C371.309 171.177 371.242 171.384 371.242 171.616C371.242 171.811 371.289 171.978 371.381 172.117C371.476 172.254 371.596 172.369 371.743 172.462C371.89 172.552 372.044 172.626 372.205 172.685C372.366 172.742 372.514 172.788 372.649 172.824L373.387 173.023C373.577 173.072 373.787 173.141 374.019 173.229C374.254 173.316 374.477 173.436 374.691 173.587C374.906 173.737 375.084 173.928 375.223 174.163C375.363 174.397 375.433 174.685 375.433 175.026C375.433 175.419 375.33 175.774 375.124 176.091C374.92 176.408 374.622 176.66 374.229 176.847C373.838 177.034 373.364 177.128 372.805 177.128C372.284 177.128 371.833 177.044 371.452 176.876C371.073 176.708 370.775 176.473 370.557 176.173C370.342 175.872 370.22 175.523 370.191 175.125H371.1C371.124 175.4 371.216 175.627 371.377 175.807C371.541 175.984 371.747 176.117 371.995 176.205C372.246 176.29 372.516 176.332 372.805 176.332C373.141 176.332 373.443 176.278 373.71 176.169C373.978 176.058 374.19 175.904 374.346 175.707C374.502 175.509 374.58 175.277 374.58 175.011C374.58 174.77 374.513 174.573 374.378 174.422C374.243 174.27 374.066 174.147 373.845 174.053C373.625 173.958 373.387 173.875 373.132 173.804L372.237 173.548C371.669 173.385 371.219 173.152 370.887 172.849C370.556 172.546 370.39 172.149 370.39 171.659C370.39 171.252 370.5 170.897 370.72 170.594C370.943 170.288 371.241 170.052 371.615 169.884C371.992 169.713 372.412 169.628 372.876 169.628C373.345 169.628 373.761 169.712 374.126 169.88C374.49 170.046 374.779 170.273 374.992 170.562C375.208 170.851 375.321 171.179 375.333 171.545H374.481Z" fill="white"/>
<path d="M336.109 200.159C335.253 200.159 334.524 199.926 333.922 199.46C333.32 198.991 332.859 198.311 332.541 197.42C332.223 196.527 332.064 195.447 332.064 194.182C332.064 192.924 332.223 191.85 332.541 190.96C332.863 190.066 333.325 189.384 333.928 188.915C334.534 188.441 335.261 188.205 336.109 188.205C336.958 188.205 337.683 188.441 338.286 188.915C338.892 189.384 339.354 190.066 339.672 190.96C339.994 191.85 340.155 192.924 340.155 194.182C340.155 195.447 339.996 196.527 339.678 197.42C339.359 198.311 338.899 198.991 338.297 199.46C337.695 199.926 336.965 200.159 336.109 200.159ZM336.109 198.909C336.958 198.909 337.617 198.5 338.087 197.682C338.556 196.864 338.791 195.697 338.791 194.182C338.791 193.174 338.683 192.316 338.467 191.608C338.255 190.9 337.948 190.36 337.547 189.989C337.149 189.617 336.67 189.432 336.109 189.432C335.268 189.432 334.611 189.847 334.138 190.676C333.664 191.502 333.428 192.67 333.428 194.182C333.428 195.189 333.534 196.045 333.746 196.75C333.958 197.455 334.263 197.991 334.661 198.358C335.062 198.725 335.545 198.909 336.109 198.909ZM346.141 200.159C345.361 200.159 344.671 200.021 344.073 199.744C343.478 199.464 343.014 199.08 342.681 198.591C342.348 198.098 342.183 197.538 342.187 196.909C342.183 196.417 342.279 195.962 342.476 195.545C342.673 195.125 342.942 194.775 343.283 194.494C343.628 194.21 344.012 194.03 344.437 193.955V193.886C343.88 193.742 343.437 193.43 343.107 192.949C342.778 192.464 342.615 191.913 342.618 191.295C342.615 190.705 342.764 190.176 343.067 189.71C343.37 189.244 343.787 188.877 344.317 188.608C344.851 188.339 345.459 188.205 346.141 188.205C346.815 188.205 347.418 188.339 347.948 188.608C348.478 188.877 348.895 189.244 349.198 189.71C349.505 190.176 349.66 190.705 349.664 191.295C349.66 191.913 349.492 192.464 349.158 192.949C348.829 193.43 348.391 193.742 347.846 193.886V193.955C348.266 194.03 348.645 194.21 348.982 194.494C349.319 194.775 349.588 195.125 349.789 195.545C349.99 195.962 350.092 196.417 350.096 196.909C350.092 197.538 349.921 198.098 349.584 198.591C349.251 199.08 348.787 199.464 348.192 199.744C347.601 200.021 346.918 200.159 346.141 200.159ZM346.141 198.909C346.668 198.909 347.122 198.824 347.505 198.653C347.887 198.483 348.183 198.242 348.391 197.932C348.6 197.621 348.706 197.258 348.709 196.841C348.706 196.402 348.592 196.013 348.368 195.676C348.145 195.339 347.84 195.074 347.454 194.881C347.071 194.687 346.634 194.591 346.141 194.591C345.645 194.591 345.202 194.687 344.812 194.881C344.425 195.074 344.12 195.339 343.897 195.676C343.677 196.013 343.569 196.402 343.573 196.841C343.569 197.258 343.67 197.621 343.874 197.932C344.082 198.242 344.38 198.483 344.766 198.653C345.153 198.824 345.611 198.909 346.141 198.909ZM346.141 193.386C346.558 193.386 346.927 193.303 347.249 193.136C347.575 192.97 347.831 192.737 348.016 192.438C348.202 192.138 348.296 191.788 348.3 191.386C348.296 190.992 348.204 190.65 348.022 190.358C347.84 190.062 347.588 189.835 347.266 189.676C346.944 189.513 346.569 189.432 346.141 189.432C345.706 189.432 345.325 189.513 344.999 189.676C344.673 189.835 344.421 190.062 344.243 190.358C344.065 190.65 343.978 190.992 343.982 191.386C343.978 191.788 344.067 192.138 344.249 192.438C344.435 192.737 344.69 192.97 345.016 193.136C345.342 193.303 345.717 193.386 346.141 193.386ZM356.51 187.818L352.76 201.75H351.532L355.282 187.818H356.51ZM358.176 200V198.977L362.017 194.773C362.468 194.28 362.839 193.852 363.131 193.489C363.423 193.121 363.639 192.777 363.779 192.455C363.923 192.129 363.995 191.788 363.995 191.432C363.995 191.023 363.896 190.669 363.699 190.369C363.506 190.07 363.241 189.839 362.904 189.676C362.567 189.513 362.188 189.432 361.767 189.432C361.32 189.432 360.93 189.525 360.597 189.71C360.267 189.892 360.012 190.148 359.83 190.477C359.652 190.807 359.563 191.193 359.563 191.636H358.222C358.222 190.955 358.379 190.356 358.693 189.841C359.008 189.326 359.436 188.924 359.978 188.636C360.523 188.348 361.135 188.205 361.813 188.205C362.495 188.205 363.099 188.348 363.625 188.636C364.152 188.924 364.565 189.312 364.864 189.801C365.163 190.29 365.313 190.833 365.313 191.432C365.313 191.86 365.235 192.278 365.08 192.688C364.928 193.093 364.663 193.545 364.284 194.045C363.909 194.542 363.389 195.148 362.722 195.864L360.108 198.659V198.75H365.517V200H358.176ZM368.328 200L373.532 189.705V189.614H367.532V188.364H374.987V189.682L369.805 200H368.328Z" fill="white"/>
<path d="M27.8864 200H26.4091L30.6818 188.364H32.1364L36.4091 200H34.9318L31.4545 190.205H31.3636L27.8864 200ZM28.4318 195.455H34.3864V196.705H28.4318V195.455ZM38.1398 203.273V191.273H39.4352V192.659H39.5943C39.6928 192.508 39.8292 192.314 40.0034 192.08C40.1814 191.841 40.4352 191.629 40.7648 191.443C41.0981 191.254 41.5489 191.159 42.117 191.159C42.8519 191.159 43.4996 191.343 44.0602 191.71C44.6208 192.078 45.0583 192.598 45.3727 193.273C45.6871 193.947 45.8443 194.742 45.8443 195.659C45.8443 196.583 45.6871 197.384 45.3727 198.062C45.0583 198.737 44.6227 199.259 44.0659 199.631C43.5091 199.998 42.867 200.182 42.1398 200.182C41.5792 200.182 41.1303 200.089 40.7932 199.903C40.4561 199.714 40.1966 199.5 40.0148 199.261C39.833 199.019 39.6928 198.818 39.5943 198.659H39.4807V203.273H38.1398ZM39.458 195.636C39.458 196.295 39.5545 196.877 39.7477 197.381C39.9409 197.881 40.2231 198.273 40.5943 198.557C40.9655 198.837 41.4201 198.977 41.958 198.977C42.5186 198.977 42.9864 198.83 43.3614 198.534C43.7402 198.235 44.0242 197.833 44.2136 197.33C44.4068 196.822 44.5034 196.258 44.5034 195.636C44.5034 195.023 44.4087 194.47 44.2193 193.977C44.0337 193.481 43.7515 193.089 43.3727 192.801C42.9977 192.509 42.5261 192.364 41.958 192.364C41.4125 192.364 40.9542 192.502 40.583 192.778C40.2117 193.051 39.9314 193.434 39.742 193.926C39.5527 194.415 39.458 194.985 39.458 195.636ZM47.9898 203.273V191.273H49.2852V192.659H49.4443C49.5428 192.508 49.6792 192.314 49.8534 192.08C50.0314 191.841 50.2852 191.629 50.6148 191.443C50.9481 191.254 51.3989 191.159 51.967 191.159C52.7019 191.159 53.3496 191.343 53.9102 191.71C54.4708 192.078 54.9083 192.598 55.2227 193.273C55.5371 193.947 55.6943 194.742 55.6943 195.659C55.6943 196.583 55.5371 197.384 55.2227 198.062C54.9083 198.737 54.4727 199.259 53.9159 199.631C53.3591 199.998 52.717 200.182 51.9898 200.182C51.4292 200.182 50.9803 200.089 50.6432 199.903C50.3061 199.714 50.0466 199.5 49.8648 199.261C49.683 199.019 49.5428 198.818 49.4443 198.659H49.3307V203.273H47.9898ZM49.308 195.636C49.308 196.295 49.4045 196.877 49.5977 197.381C49.7909 197.881 50.0731 198.273 50.4443 198.557C50.8155 198.837 51.2701 198.977 51.808 198.977C52.3686 198.977 52.8364 198.83 53.2114 198.534C53.5902 198.235 53.8742 197.833 54.0636 197.33C54.2568 196.822 54.3534 196.258 54.3534 195.636C54.3534 195.023 54.2587 194.47 54.0693 193.977C53.8837 193.481 53.6015 193.089 53.2227 192.801C52.8477 192.509 52.3761 192.364 51.808 192.364C51.2625 192.364 50.8042 192.502 50.433 192.778C50.0617 193.051 49.7814 193.434 49.592 193.926C49.4027 194.415 49.308 194.985 49.308 195.636ZM59.1807 188.364V200H57.8398V188.364H59.1807ZM65.3957 200.182C64.5548 200.182 63.8295 199.996 63.2196 199.625C62.6135 199.25 62.1457 198.727 61.8162 198.057C61.4904 197.383 61.3276 196.598 61.3276 195.705C61.3276 194.811 61.4904 194.023 61.8162 193.341C62.1457 192.655 62.6041 192.121 63.1912 191.739C63.7821 191.352 64.4715 191.159 65.2594 191.159C65.7139 191.159 66.1628 191.235 66.606 191.386C67.0491 191.538 67.4526 191.784 67.8162 192.125C68.1798 192.462 68.4696 192.909 68.6855 193.466C68.9014 194.023 69.0094 194.708 69.0094 195.523V196.091H62.2821V194.932H67.6457C67.6457 194.439 67.5473 194 67.3503 193.614C67.1571 193.227 66.8806 192.922 66.5207 192.699C66.1647 192.475 65.7442 192.364 65.2594 192.364C64.7253 192.364 64.2632 192.496 63.873 192.761C63.4866 193.023 63.1893 193.364 62.981 193.784C62.7726 194.205 62.6685 194.655 62.6685 195.136V195.909C62.6685 196.568 62.7821 197.127 63.0094 197.585C63.2404 198.04 63.5605 198.386 63.9696 198.625C64.3787 198.86 64.8541 198.977 65.3957 198.977C65.748 198.977 66.0662 198.928 66.3503 198.83C66.6382 198.727 66.8863 198.576 67.0946 198.375C67.3029 198.17 67.4639 197.917 67.5776 197.614L68.873 197.977C68.7366 198.417 68.5075 198.803 68.1855 199.136C67.8635 199.466 67.4658 199.723 66.9923 199.909C66.5188 200.091 65.9866 200.182 65.3957 200.182ZM77.3401 188.364V200H75.931V188.364H77.3401ZM81.4244 194.75V200H80.0835V191.273H81.379V192.636H81.4926C81.6972 192.193 82.0078 191.837 82.4244 191.568C82.8411 191.295 83.379 191.159 84.0381 191.159C84.629 191.159 85.146 191.28 85.5892 191.523C86.0324 191.761 86.3771 192.125 86.6233 192.614C86.8695 193.098 86.9926 193.712 86.9926 194.455V200H85.6517V194.545C85.6517 193.86 85.4737 193.326 85.1176 192.943C84.7616 192.557 84.2729 192.364 83.6517 192.364C83.2237 192.364 82.8411 192.456 82.504 192.642C82.1706 192.828 81.9074 193.098 81.7142 193.455C81.521 193.811 81.4244 194.242 81.4244 194.75ZM93.0884 200.182C92.2702 200.182 91.5656 199.989 90.9747 199.602C90.3838 199.216 89.9293 198.684 89.6111 198.006C89.2929 197.328 89.1338 196.553 89.1338 195.682C89.1338 194.795 89.2967 194.013 89.6224 193.335C89.952 192.653 90.4103 192.121 90.9974 191.739C91.5884 191.352 92.2777 191.159 93.0656 191.159C93.6793 191.159 94.2323 191.273 94.7247 191.5C95.2171 191.727 95.6205 192.045 95.9349 192.455C96.2493 192.864 96.4444 193.341 96.5202 193.886H95.1793C95.077 193.489 94.8497 193.136 94.4974 192.83C94.149 192.519 93.6793 192.364 93.0884 192.364C92.5656 192.364 92.1073 192.5 91.7134 192.773C91.3232 193.042 91.0183 193.422 90.7986 193.915C90.5827 194.403 90.4747 194.977 90.4747 195.636C90.4747 196.311 90.5808 196.898 90.7929 197.398C91.0088 197.898 91.3118 198.286 91.702 198.562C92.0959 198.839 92.558 198.977 93.0884 198.977C93.4368 198.977 93.7531 198.917 94.0372 198.795C94.3213 198.674 94.5618 198.5 94.7588 198.273C94.9558 198.045 95.0959 197.773 95.1793 197.455H96.5202C96.4444 197.97 96.2569 198.434 95.9577 198.847C95.6622 199.256 95.2702 199.581 94.7815 199.824C94.2967 200.062 93.7323 200.182 93.0884 200.182Z" fill="white"/>
<circle cx="32" cy="106" r="6" fill="white"/>
<circle cx="52" cy="106" r="6" fill="white"/>
<circle cx="72" cy="106" r="6" fill="white"/>
<circle cx="92" cy="106" r="6" fill="white"/>
<circle cx="120" cy="106" r="6" fill="white"/>
<circle cx="140" cy="106" r="6" fill="white"/>
<circle cx="160" cy="106" r="6" fill="white"/>
<circle cx="180" cy="106" r="6" fill="white"/>
<circle cx="208" cy="106" r="6" fill="white"/>
<circle cx="228" cy="106" r="6" fill="white"/>
<circle cx="248" cy="106" r="6" fill="white"/>
<circle cx="268" cy="106" r="6" fill="white"/>
</g>
<defs>
<filter id="filter0_d_779_3441" x="0" y="0" width="402" height="238" filterUnits="userSpaceOnUse" color-interpolation-filters="sRGB">
<feFlood flood-opacity="0" result="BackgroundImageFix"/>
<feColorMatrix in="SourceAlpha" type="matrix" values="0 0 0 0 0 0 0 0 0 0 0 0 0 0 0 0 0 0 127 0" result="hardAlpha"/>
<feOffset dy="2"/>
<feGaussianBlur stdDeviation="1"/>
<feComposite in2="hardAlpha" operator="out"/>
<feColorMatrix type="matrix" values="0 0 0 0 0 0 0 0 0 0 0 0 0 0 0 0 0 0 0.08 0"/>
<feBlend mode="normal" in2="BackgroundImageFix" result="effect1_dropShadow_779_3441"/>
<feBlend mode="normal" in="SourceGraphic" in2="effect1_dropShadow_779_3441" result="shape"/>
</filter>
<linearGradient id="paint0_linear_779_3441" x1="2" y1="0" x2="397.18" y2="238.669" gradientUnits="userSpaceOnUse">
<stop stop-color="#9368DD"/>
<stop offset="1" stop-color="#483AAF"/>
</linearGradient>
<linearGradient id="paint1_linear_779_3441" x1="2" y1="0" x2="397.18" y2="238.669" gradientUnits="userSpaceOnUse">
<stop stop-color="#8676FB"/>
<stop offset="1" stop-color="#AB7BFF"/>
</linearGradient>
<linearGradient id="paint2_linear_779_3441" x1="-22.2851" y1="118.997" x2="249.552" y2="420.826" gradientUnits="userSpaceOnUse">
<stop stop-color="#9F7BE6"/>
<stop offset="0.991396" stop-color="#4D3DB3"/>
</linearGradient>
<clipPath id="clip0_779_3441">
<rect x="26" y="4" width="64" height="64" rx="12" fill="white"/>
</clipPath>
</defs>
</svg>
