<svg width="24" height="24" viewBox="0 0 24 24" fill="none" xmlns="http://www.w3.org/2000/svg">
<path d="M10.3747 2.86133L19.7167 12.2033C20.2112 12.6875 20.6048 13.265 20.8746 13.9023C21.1445 14.5396 21.2854 15.2241 21.289 15.9162C21.2926 16.6083 21.159 17.2942 20.8958 17.9343C20.6326 18.5744 20.2452 19.156 19.7558 19.6454C19.2664 20.1348 18.6848 20.5223 18.0447 20.7854C17.4046 21.0486 16.7187 21.1823 16.0266 21.1786C15.3345 21.175 14.65 21.0342 14.0127 20.7643C13.3754 20.4944 12.7979 20.1008 12.3137 19.6063L3.5897 10.8803C3.06665 10.3398 2.777 9.61528 2.7832 8.86311C2.78939 8.11094 3.09094 7.39133 3.62282 6.85945C4.15471 6.32757 4.87431 6.02602 5.62648 6.01982C6.37865 6.01363 7.10313 6.30328 7.6437 6.82633L16.0167 15.1983" stroke="#090909" stroke-width="1.5" stroke-linecap="round" stroke-linejoin="round"/>
</svg>
