<svg width="20" height="20" viewBox="0 0 20 20" fill="none" xmlns="http://www.w3.org/2000/svg">
<path fill-rule="evenodd" clip-rule="evenodd" d="M12.8496 4.70292C12.7346 4.51928 12.5653 4.37604 12.3652 4.29315C12.165 4.21025 11.944 4.19182 11.7329 4.24041L10.2346 4.58458C10.081 4.61987 9.92144 4.61987 9.76789 4.58458L8.26956 4.24041C8.05844 4.19182 7.83743 4.21025 7.63729 4.29315C7.43714 4.37604 7.26782 4.51928 7.15289 4.70292L6.33622 6.00625C6.25289 6.13958 6.14039 6.25208 6.00706 6.33625L4.70372 7.15292C4.52041 7.26774 4.37738 7.43679 4.2945 7.63659C4.21162 7.8364 4.193 8.05705 4.24122 8.26791L4.58539 9.76791C4.62056 9.9212 4.62056 10.0805 4.58539 10.2337L4.24122 11.7329C4.19282 11.9439 4.21134 12.1647 4.29423 12.3647C4.37712 12.5647 4.52025 12.7339 4.70372 12.8487L6.00706 13.6654C6.14039 13.7487 6.25289 13.8612 6.33706 13.9946L7.15372 15.2979C7.38872 15.6737 7.83706 15.8596 8.26956 15.7604L9.76789 15.4162C9.92144 15.381 10.081 15.381 10.2346 15.4162L11.7337 15.7604C11.9447 15.8088 12.1655 15.7903 12.3655 15.7074C12.5655 15.6245 12.7347 15.4814 12.8496 15.2979L13.6662 13.9946C13.7496 13.8612 13.8621 13.7487 13.9954 13.6654L15.2996 12.8487C15.483 12.7337 15.6261 12.5643 15.7089 12.3642C15.7916 12.1641 15.8099 11.9431 15.7612 11.7321L15.4179 10.2337C15.3826 10.0802 15.3826 9.92064 15.4179 9.76708L15.7621 8.26791C15.8105 8.05701 15.7921 7.83624 15.7094 7.63628C15.6267 7.43631 15.4837 7.26707 15.3004 7.15208L13.9962 6.33542C13.8631 6.25193 13.7505 6.1394 13.6671 6.00625L12.8496 4.70292ZM12.4304 8.14208C12.4819 8.0473 12.4947 7.93623 12.466 7.83223C12.4373 7.72822 12.3694 7.6394 12.2766 7.58445C12.1837 7.5295 12.0732 7.5127 11.9682 7.5376C11.8632 7.56249 11.772 7.62713 11.7137 7.71791L9.53456 11.4062L8.21872 10.1462C8.17969 10.1062 8.13298 10.0744 8.08138 10.0527C8.02979 10.0311 7.97436 10.0201 7.91841 10.0203C7.86246 10.0205 7.80713 10.032 7.75573 10.0541C7.70432 10.0762 7.65789 10.1084 7.61921 10.1489C7.58052 10.1893 7.55038 10.2371 7.53056 10.2894C7.51075 10.3417 7.50168 10.3975 7.50389 10.4534C7.5061 10.5093 7.51954 10.5642 7.54343 10.6148C7.56731 10.6654 7.60114 10.7107 7.64289 10.7479L9.33789 12.3721C9.38326 12.4155 9.43784 12.448 9.49755 12.4674C9.55727 12.4867 9.62058 12.4923 9.68276 12.4837C9.74494 12.4751 9.80438 12.4526 9.85664 12.4178C9.90889 12.3831 9.95262 12.337 9.98456 12.2829L12.4304 8.14208Z" fill="black"/>
</svg>
