<svg width="13" height="13" viewBox="0 0 13 13" fill="none" xmlns="http://www.w3.org/2000/svg">
<path d="M5.92257 1.38672H1.95415C1.65344 1.38672 1.36504 1.50618 1.15241 1.71881C0.93977 1.93145 0.820313 2.21984 0.820312 2.52055V10.4574C0.820313 10.7581 0.93977 11.0465 1.15241 11.2591C1.36504 11.4718 1.65344 11.5912 1.95415 11.5912H9.891C10.1917 11.5912 10.4801 11.4718 10.6927 11.2591C10.9054 11.0465 11.0248 10.7581 11.0248 10.4574V6.48898" stroke="white" stroke-width="1.64406" stroke-linecap="round" stroke-linejoin="round"/>
<path d="M9.53638 1.1745C9.76192 0.948969 10.0678 0.822266 10.3868 0.822266C10.7057 0.822266 11.0116 0.948969 11.2371 1.1745C11.4627 1.40004 11.5894 1.70593 11.5894 2.02488C11.5894 2.34383 11.4627 2.64972 11.2371 2.87526L6.12751 7.98545C5.99289 8.11995 5.82659 8.2184 5.64393 8.27174L4.01517 8.74796C3.96639 8.76218 3.91468 8.76304 3.86545 8.75042C3.81623 8.73781 3.7713 8.7122 3.73537 8.67627C3.69944 8.64034 3.67382 8.59541 3.66121 8.54618C3.6486 8.49696 3.64945 8.44525 3.66368 8.39647L4.13989 6.76771C4.19348 6.58519 4.29213 6.41909 4.42675 6.2847L9.53638 1.1745Z" stroke="white" stroke-width="1.64406" stroke-linecap="round" stroke-linejoin="round"/>
</svg>
