<svg width="182" height="232" viewBox="0 0 182 232" fill="none" xmlns="http://www.w3.org/2000/svg">
<path d="M171.032 65.5259C171.032 65.5259 144.148 89.1942 175.103 139.876C202.594 184.887 140.803 204.398 114.176 199.173C79.683 192.405 59.8786 148.676 33.5005 162.532C7.1224 176.388 -19.0095 113.601 19.3599 90.4973C67.0899 61.7572 36.4575 45.0559 40.7443 23.9827C43.8211 8.85876 87.6039 -14.5244 111.212 12.1487C131.078 34.5938 140.82 26.5639 149.9 23.5675C162.995 19.2459 191.58 41.725 171.032 65.5259Z" fill="#EDEDED"/>
<path d="M94.9156 92.1977L86.108 128.434C85.781 129.778 85.7212 131.173 85.9319 132.54C86.1427 133.907 86.62 135.219 87.3364 136.401C88.0529 137.583 88.9945 138.612 90.1074 139.429C91.2204 140.246 92.4829 140.834 93.8229 141.162L137.627 151.873C138.754 164.277 148.988 165.194 153.025 165.619C153.065 165.621 153.105 165.61 153.137 165.587C153.17 165.565 153.195 165.532 153.207 165.494C153.219 165.456 153.219 165.415 153.205 165.377C153.192 165.34 153.167 165.308 153.133 165.286C150.234 163.513 149.368 158.654 149.175 154.697L152.427 155.492C153.767 155.82 155.158 155.88 156.52 155.668C157.883 155.457 159.191 154.978 160.37 154.26C161.548 153.541 162.574 152.597 163.388 151.48C164.202 150.364 164.79 149.098 165.116 147.754L173.923 111.517C174.25 110.173 174.31 108.778 174.099 107.411C173.889 106.044 173.411 104.732 172.695 103.55C171.979 102.368 171.037 101.339 169.924 100.523C168.811 99.7058 167.549 99.117 166.209 98.7897L107.605 84.4595C106.265 84.1315 104.874 84.0715 103.511 84.2829C102.148 84.4943 100.84 84.973 99.6618 85.6916C98.4834 86.4102 97.4577 87.3547 96.6433 88.471C95.829 89.5873 95.2419 90.8537 94.9156 92.1977Z" fill="#CCCCCC"/>
<path d="M167.578 110.074L143.083 104.084C142.922 104.045 142.759 104.144 142.72 104.306L141.463 109.476C141.424 109.637 141.523 109.801 141.684 109.84L166.179 115.83C166.34 115.869 166.503 115.77 166.542 115.608L167.798 110.438C167.838 110.276 167.739 110.113 167.578 110.074Z" fill="white"/>
<path d="M164.08 124.463L97.7139 108.235C97.5526 108.196 97.39 108.295 97.3507 108.457L96.0941 113.626C96.0547 113.788 96.1536 113.951 96.3149 113.991L162.681 130.219C162.842 130.259 163.005 130.159 163.044 129.998L164.301 124.828C164.34 124.666 164.241 124.503 164.08 124.463Z" fill="#EDEDED"/>
<path d="M160.582 138.854L94.2159 122.625C94.0546 122.586 93.8919 122.685 93.8526 122.847L92.596 128.017C92.5567 128.178 92.6556 128.342 92.8169 128.381L159.183 144.609C159.344 144.649 159.507 144.55 159.546 144.388L160.803 139.218C160.842 139.056 160.743 138.893 160.582 138.854Z" fill="#EDEDED"/>
<path d="M119.579 48.7284L133.981 95.1197C134.516 96.84 134.707 98.6491 134.545 100.444C134.382 102.238 133.868 103.983 133.033 105.578C132.198 107.174 131.058 108.588 129.677 109.742C128.297 110.895 126.703 111.764 124.988 112.299L68.9087 129.814C68.4549 146.033 55.2239 148.064 50.0091 148.947C49.9573 148.954 49.9048 148.943 49.8598 148.917C49.8148 148.89 49.7799 148.849 49.7607 148.8C49.7414 148.752 49.739 148.698 49.7537 148.648C49.7684 148.598 49.7994 148.554 49.8418 148.523C53.4669 145.981 54.1965 139.592 54.1257 134.431L49.962 135.732C48.247 136.268 46.4434 136.46 44.6543 136.297C42.8653 136.133 41.1258 135.618 39.5353 134.781C37.9448 133.943 36.5344 132.799 35.3848 131.415C34.2351 130.03 33.3686 128.432 32.8349 126.711L18.4321 80.3202C17.8974 78.5999 17.706 76.7908 17.8687 74.9962C18.0314 73.2017 18.545 71.4569 19.3801 69.8615C20.2153 68.2661 21.3557 66.8514 22.7362 65.6982C24.1166 64.545 25.7101 63.6759 27.4255 63.1406L102.451 39.7079C104.166 39.1716 105.969 38.9796 107.759 39.1428C109.548 39.3059 111.287 39.8211 112.878 40.6588C114.469 41.4965 115.879 42.6403 117.029 44.025C118.178 45.4096 119.045 47.0078 119.579 48.7284Z" fill="#999797"/>
<path d="M66.594 65.3441L26.418 77.8763C26.2594 77.9257 26.1708 78.0947 26.2201 78.2538L28.3269 85.0484C28.3762 85.2074 28.5447 85.2962 28.7033 85.2468L68.8793 72.7146C69.0378 72.6651 69.1264 72.4961 69.0771 72.337L66.9704 65.5425C66.9211 65.3834 66.7525 65.2946 66.594 65.3441Z" fill="white"/>
<path d="M117.292 69.6503L32.1562 96.2424C31.9976 96.2919 31.9092 96.4609 31.9585 96.6199L34.0676 103.413C34.1169 103.572 34.2854 103.661 34.444 103.611L119.58 77.0191C119.739 76.9696 119.827 76.8006 119.778 76.6416L117.669 69.8486C117.62 69.6896 117.451 69.6008 117.292 69.6503Z" fill="#EDEDED"/>
<path d="M123.004 88.1668L37.8476 114.73C37.6891 114.779 37.6005 114.948 37.6498 115.107L39.7566 121.902C39.8059 122.061 39.9744 122.15 40.1329 122.1L125.289 95.5373C125.448 95.4878 125.536 95.3188 125.487 95.1598L123.38 88.3652C123.331 88.2062 123.162 88.1173 123.004 88.1668Z" fill="#EDEDED"/>
<path d="M39.5334 212.455V227H37.5163L30.1229 216.332H29.9879V227H27.7933V212.455H29.8246L37.2251 223.136H37.3601V212.455H39.5334ZM47.1594 227.22C46.1367 227.22 45.2442 226.986 44.4819 226.517C43.7196 226.048 43.1277 225.393 42.7063 224.55C42.2849 223.707 42.0742 222.722 42.0742 221.595C42.0742 220.464 42.2849 219.474 42.7063 218.626C43.1277 217.779 43.7196 217.121 44.4819 216.652C45.2442 216.183 46.1367 215.949 47.1594 215.949C48.1822 215.949 49.0747 216.183 49.837 216.652C50.5993 217.121 51.1912 217.779 51.6126 218.626C52.034 219.474 52.2447 220.464 52.2447 221.595C52.2447 222.722 52.034 223.707 51.6126 224.55C51.1912 225.393 50.5993 226.048 49.837 226.517C49.0747 226.986 48.1822 227.22 47.1594 227.22ZM47.1665 225.438C47.8294 225.438 48.3787 225.262 48.8143 224.912C49.2499 224.562 49.5719 224.095 49.7802 223.513C49.9933 222.93 50.0998 222.289 50.0998 221.588C50.0998 220.892 49.9933 220.253 49.7802 219.67C49.5719 219.083 49.2499 218.612 48.8143 218.257C48.3787 217.902 47.8294 217.724 47.1665 217.724C46.4989 217.724 45.945 217.902 45.5046 218.257C45.069 218.612 44.7447 219.083 44.5316 219.67C44.3233 220.253 44.2191 220.892 44.2191 221.588C44.2191 222.289 44.3233 222.93 44.5316 223.513C44.7447 224.095 45.069 224.562 45.5046 224.912C45.945 225.262 46.4989 225.438 47.1665 225.438ZM60.0785 212.455H62.7418L67.3725 223.761H67.543L72.1737 212.455H74.837V227H72.7489V216.474H72.614L68.3242 226.979H66.5913L62.3015 216.467H62.1665V227H60.0785V212.455ZM82.5589 227.22C81.4841 227.22 80.5585 226.991 79.782 226.531C79.0102 226.067 78.4136 225.416 77.9922 224.578C77.5755 223.735 77.3672 222.748 77.3672 221.616C77.3672 220.499 77.5755 219.514 77.9922 218.662C78.4136 217.81 79.0007 217.144 79.7536 216.666C80.5111 216.188 81.3965 215.949 82.4098 215.949C83.0253 215.949 83.6219 216.051 84.1996 216.254C84.7772 216.458 85.2957 216.777 85.755 217.213C86.2143 217.649 86.5765 218.214 86.8416 218.911C87.1068 219.602 87.2393 220.442 87.2393 221.432V222.185H78.5675V220.594H85.1584C85.1584 220.035 85.0447 219.54 84.8175 219.109C84.5902 218.674 84.2706 218.33 83.8587 218.08C83.4515 217.829 82.9732 217.703 82.424 217.703C81.8274 217.703 81.3066 217.85 80.8615 218.143C80.4212 218.432 80.0803 218.811 79.8388 219.28C79.602 219.744 79.4837 220.248 79.4837 220.793V222.036C79.4837 222.765 79.6115 223.385 79.8672 223.896C80.1276 224.408 80.4898 224.798 80.9538 225.068C81.4179 225.333 81.96 225.466 82.5803 225.466C82.9827 225.466 83.3497 225.409 83.6811 225.295C84.0125 225.177 84.299 225.002 84.5405 224.77C84.782 224.538 84.9666 224.251 85.0945 223.911L87.1044 224.273C86.9434 224.865 86.6546 225.383 86.2379 225.828C85.826 226.268 85.3075 226.612 84.6825 226.858C84.0623 227.099 83.3544 227.22 82.5589 227.22ZM97.7702 218.754L95.8455 219.095C95.765 218.849 95.6372 218.615 95.462 218.392C95.2915 218.17 95.0595 217.987 94.766 217.845C94.4724 217.703 94.1055 217.632 93.6651 217.632C93.0638 217.632 92.5619 217.767 92.1594 218.037C91.757 218.302 91.5558 218.645 91.5558 219.067C91.5558 219.431 91.6907 219.725 91.9606 219.947C92.2305 220.17 92.6661 220.352 93.2674 220.494L95.0004 220.892C96.0041 221.124 96.7522 221.482 97.2447 221.964C97.7371 222.447 97.9833 223.075 97.9833 223.847C97.9833 224.5 97.7939 225.082 97.4151 225.594C97.0411 226.1 96.5179 226.498 95.8455 226.787C95.1779 227.076 94.4038 227.22 93.5231 227.22C92.3015 227.22 91.3048 226.96 90.533 226.439C89.7612 225.913 89.2878 225.168 89.1126 224.202L91.1651 223.889C91.293 224.424 91.5558 224.829 91.9535 225.104C92.3512 225.374 92.8697 225.509 93.5089 225.509C94.2049 225.509 94.7612 225.364 95.1779 225.075C95.5946 224.782 95.8029 224.424 95.8029 224.003C95.8029 223.662 95.6751 223.375 95.4194 223.143C95.1684 222.911 94.7826 222.736 94.2617 222.618L92.4151 222.213C91.3971 221.981 90.6443 221.612 90.1566 221.105C89.6737 220.598 89.4322 219.957 89.4322 219.18C89.4322 218.536 89.6121 217.973 89.9719 217.49C90.3318 217.007 90.829 216.631 91.4634 216.361C92.0979 216.086 92.8247 215.949 93.6438 215.949C94.8228 215.949 95.7508 216.205 96.4279 216.716C97.105 217.223 97.5524 217.902 97.7702 218.754ZM108.493 218.754L106.568 219.095C106.488 218.849 106.36 218.615 106.185 218.392C106.014 218.17 105.782 217.987 105.489 217.845C105.195 217.703 104.828 217.632 104.388 217.632C103.786 217.632 103.285 217.767 102.882 218.037C102.48 218.302 102.278 218.645 102.278 219.067C102.278 219.431 102.413 219.725 102.683 219.947C102.953 220.17 103.389 220.352 103.99 220.494L105.723 220.892C106.727 221.124 107.475 221.482 107.967 221.964C108.46 222.447 108.706 223.075 108.706 223.847C108.706 224.5 108.517 225.082 108.138 225.594C107.764 226.1 107.241 226.498 106.568 226.787C105.901 227.076 105.126 227.22 104.246 227.22C103.024 227.22 102.027 226.96 101.256 226.439C100.484 225.913 100.01 225.168 99.8352 224.202L101.888 223.889C102.016 224.424 102.278 224.829 102.676 225.104C103.074 225.374 103.592 225.509 104.232 225.509C104.928 225.509 105.484 225.364 105.901 225.075C106.317 224.782 106.526 224.424 106.526 224.003C106.526 223.662 106.398 223.375 106.142 223.143C105.891 222.911 105.505 222.736 104.984 222.618L103.138 222.213C102.12 221.981 101.367 221.612 100.879 221.105C100.396 220.598 100.155 219.957 100.155 219.18C100.155 218.536 100.335 217.973 100.695 217.49C101.054 217.007 101.552 216.631 102.186 216.361C102.821 216.086 103.547 215.949 104.366 215.949C105.545 215.949 106.473 216.205 107.151 216.716C107.828 217.223 108.275 217.902 108.493 218.754ZM114.216 227.241C113.524 227.241 112.899 227.114 112.341 226.858C111.782 226.598 111.339 226.221 111.012 225.729C110.69 225.236 110.529 224.633 110.529 223.918C110.529 223.302 110.648 222.795 110.885 222.398C111.121 222 111.441 221.685 111.843 221.453C112.246 221.221 112.696 221.046 113.193 220.928C113.69 220.809 114.197 220.719 114.713 220.658C115.366 220.582 115.896 220.52 116.304 220.473C116.711 220.421 117.007 220.338 117.191 220.224C117.376 220.111 117.468 219.926 117.468 219.67V219.621C117.468 219 117.293 218.52 116.943 218.179C116.597 217.838 116.081 217.668 115.395 217.668C114.68 217.668 114.116 217.826 113.704 218.143C113.297 218.456 113.015 218.804 112.859 219.188L110.863 218.733C111.1 218.07 111.446 217.535 111.9 217.128C112.359 216.716 112.887 216.418 113.484 216.233C114.081 216.044 114.708 215.949 115.366 215.949C115.802 215.949 116.263 216.001 116.751 216.105C117.243 216.205 117.703 216.389 118.129 216.659C118.56 216.929 118.913 217.315 119.187 217.817C119.462 218.314 119.599 218.96 119.599 219.756V227H117.525V225.509H117.44C117.303 225.783 117.097 226.053 116.822 226.318C116.547 226.583 116.195 226.804 115.764 226.979C115.333 227.154 114.817 227.241 114.216 227.241ZM114.677 225.537C115.264 225.537 115.766 225.421 116.183 225.189C116.604 224.957 116.924 224.654 117.142 224.28C117.364 223.901 117.475 223.496 117.475 223.065V221.659C117.4 221.735 117.253 221.806 117.035 221.872C116.822 221.934 116.578 221.988 116.304 222.036C116.029 222.078 115.761 222.118 115.501 222.156C115.241 222.189 115.023 222.218 114.848 222.241C114.436 222.294 114.059 222.381 113.718 222.504C113.382 222.627 113.112 222.805 112.909 223.037C112.71 223.264 112.61 223.567 112.61 223.946C112.61 224.472 112.805 224.869 113.193 225.139C113.581 225.404 114.076 225.537 114.677 225.537ZM127.001 231.318C126.135 231.318 125.389 231.205 124.764 230.977C124.144 230.75 123.637 230.449 123.244 230.075C122.851 229.701 122.558 229.292 122.364 228.847L124.189 228.094C124.317 228.302 124.487 228.522 124.7 228.754C124.918 228.991 125.212 229.192 125.581 229.358C125.955 229.524 126.436 229.607 127.023 229.607C127.828 229.607 128.493 229.41 129.018 229.017C129.544 228.629 129.807 228.009 129.807 227.156V225.011H129.672C129.544 225.243 129.359 225.501 129.118 225.786C128.881 226.07 128.554 226.316 128.138 226.524C127.721 226.732 127.179 226.837 126.511 226.837C125.65 226.837 124.873 226.635 124.182 226.233C123.495 225.826 122.951 225.227 122.548 224.436C122.151 223.641 121.952 222.663 121.952 221.503C121.952 220.343 122.148 219.348 122.541 218.52C122.939 217.691 123.483 217.057 124.175 216.616C124.866 216.171 125.65 215.949 126.526 215.949C127.203 215.949 127.75 216.062 128.166 216.29C128.583 216.512 128.907 216.773 129.139 217.071C129.376 217.369 129.558 217.632 129.686 217.859H129.842V216.091H131.923V227.241C131.923 228.179 131.705 228.948 131.27 229.55C130.834 230.151 130.245 230.596 129.501 230.885C128.763 231.174 127.929 231.318 127.001 231.318ZM126.98 225.075C127.591 225.075 128.107 224.933 128.528 224.649C128.955 224.36 129.277 223.948 129.494 223.413C129.717 222.874 129.828 222.227 129.828 221.474C129.828 220.741 129.719 220.094 129.501 219.536C129.284 218.977 128.964 218.541 128.543 218.229C128.121 217.911 127.6 217.753 126.98 217.753C126.341 217.753 125.808 217.919 125.382 218.25C124.956 218.577 124.634 219.022 124.416 219.585C124.203 220.149 124.097 220.778 124.097 221.474C124.097 222.189 124.205 222.817 124.423 223.357C124.641 223.896 124.963 224.318 125.389 224.621C125.82 224.924 126.35 225.075 126.98 225.075ZM139.473 227.22C138.398 227.22 137.473 226.991 136.696 226.531C135.924 226.067 135.328 225.416 134.906 224.578C134.49 223.735 134.281 222.748 134.281 221.616C134.281 220.499 134.49 219.514 134.906 218.662C135.328 217.81 135.915 217.144 136.668 216.666C137.425 216.188 138.311 215.949 139.324 215.949C139.939 215.949 140.536 216.051 141.114 216.254C141.691 216.458 142.21 216.777 142.669 217.213C143.128 217.649 143.491 218.214 143.756 218.911C144.021 219.602 144.153 220.442 144.153 221.432V222.185H135.482V220.594H142.072C142.072 220.035 141.959 219.54 141.732 219.109C141.504 218.674 141.185 218.33 140.773 218.08C140.366 217.829 139.887 217.703 139.338 217.703C138.741 217.703 138.221 217.85 137.776 218.143C137.335 218.432 136.994 218.811 136.753 219.28C136.516 219.744 136.398 220.248 136.398 220.793V222.036C136.398 222.765 136.526 223.385 136.781 223.896C137.042 224.408 137.404 224.798 137.868 225.068C138.332 225.333 138.874 225.466 139.494 225.466C139.897 225.466 140.264 225.409 140.595 225.295C140.927 225.177 141.213 225.002 141.455 224.77C141.696 224.538 141.881 224.251 142.009 223.911L144.018 224.273C143.857 224.865 143.569 225.383 143.152 225.828C142.74 226.268 142.222 226.612 141.597 226.858C140.976 227.099 140.268 227.22 139.473 227.22ZM154.684 218.754L152.76 219.095C152.679 218.849 152.551 218.615 152.376 218.392C152.206 218.17 151.974 217.987 151.68 217.845C151.386 217.703 151.02 217.632 150.579 217.632C149.978 217.632 149.476 217.767 149.074 218.037C148.671 218.302 148.47 218.645 148.47 219.067C148.47 219.431 148.605 219.725 148.875 219.947C149.145 220.17 149.58 220.352 150.181 220.494L151.914 220.892C152.918 221.124 153.666 221.482 154.159 221.964C154.651 222.447 154.897 223.075 154.897 223.847C154.897 224.5 154.708 225.082 154.329 225.594C153.955 226.1 153.432 226.498 152.76 226.787C152.092 227.076 151.318 227.22 150.437 227.22C149.216 227.22 148.219 226.96 147.447 226.439C146.675 225.913 146.202 225.168 146.027 224.202L148.079 223.889C148.207 224.424 148.47 224.829 148.868 225.104C149.265 225.374 149.784 225.509 150.423 225.509C151.119 225.509 151.675 225.364 152.092 225.075C152.509 224.782 152.717 224.424 152.717 224.003C152.717 223.662 152.589 223.375 152.333 223.143C152.083 222.911 151.697 222.736 151.176 222.618L149.329 222.213C148.311 221.981 147.558 221.612 147.071 221.105C146.588 220.598 146.346 219.957 146.346 219.18C146.346 218.536 146.526 217.973 146.886 217.49C147.246 217.007 147.743 216.631 148.377 216.361C149.012 216.086 149.739 215.949 150.558 215.949C151.737 215.949 152.665 216.205 153.342 216.716C154.019 217.223 154.467 217.902 154.684 218.754Z" fill="#6C727F"/>
</svg>
