<svg width="234" height="228" viewBox="0 0 234 228" fill="none" xmlns="http://www.w3.org/2000/svg">
<path d="M158.517 8.3719C158.517 8.3719 126.466 48.97 75.1827 24.7535C23.8997 0.537062 -27.3835 66.0641 16.777 105.95C60.9374 145.836 17.7231 167.753 47.724 192.198C81.8219 219.98 111.508 163.642 138.574 176.463C198.31 204.758 242.565 193.557 232.593 160.793C215.089 103.281 192.706 99.5397 209.8 69.6253C226.895 39.7108 189.167 -22.4887 158.517 8.3719Z" fill="#EDEDED"/>
<path d="M141.066 120.656L138.534 134.25L126.473 198.873L104.748 194.816L118.678 120.165L119.341 116.608L141.066 120.656Z" fill="#CCCCCC"/>
<path d="M194.574 88.1452L187.083 128.307C187.061 128.425 187.016 128.537 186.95 128.638C186.885 128.738 186.8 128.825 186.702 128.892C186.603 128.96 186.492 129.008 186.375 129.032C186.257 129.057 186.136 129.058 186.019 129.036L80.7695 109.407L93.1574 42.9891L173.08 57.8953C187.565 60.5963 197.187 74.137 194.574 88.1452Z" fill="#F8F8FB"/>
<path d="M115.638 74.6672L108.205 114.518L52.959 104.214L60.3917 64.3636C63.1283 49.6911 77.7144 40.1031 92.9699 42.9483C108.225 45.7934 118.374 59.9945 115.638 74.6672Z" fill="#CCCCCC"/>
<path d="M141.356 93.296C137.284 92.5367 134.598 88.5801 135.365 84.4712C136.132 80.3624 140.063 77.6392 144.134 78.399C145.432 78.6427 146.642 79.2259 147.641 80.0891C148.641 80.9523 149.393 82.0647 149.823 83.3132L201.249 92.9045L199.86 100.353L148.434 90.762C147.583 91.7718 146.48 92.5383 145.237 92.9834C143.993 93.4285 142.654 93.5364 141.356 93.296Z" fill="#6C727F"/>
<path d="M113.803 75.3996L106.561 114.226L54.5176 104.52L61.7599 65.693C64.4261 51.3978 78.2383 41.9816 92.6096 44.662C106.981 47.3424 116.469 61.1043 113.803 75.3996Z" fill="#6C727F"/>
<path d="M142.814 89.5332C144.906 89.5332 146.603 87.837 146.603 85.7446C146.603 83.6522 144.906 81.9559 142.814 81.9559C140.722 81.9559 139.025 83.6522 139.025 85.7446C139.025 87.837 140.722 89.5332 142.814 89.5332Z" fill="white"/>
<path d="M201.841 92.8781L197.298 117.233C197.279 117.338 197.218 117.431 197.13 117.492C197.042 117.552 196.934 117.575 196.829 117.555L184.888 115.328C184.867 115.324 184.849 115.312 184.837 115.295C184.825 115.278 184.821 115.256 184.824 115.235L189.426 90.5627C189.43 90.542 189.442 90.5237 189.459 90.5118C189.477 90.4999 189.498 90.4953 189.519 90.4992L201.777 92.7855C201.798 92.7894 201.816 92.8013 201.828 92.8187C201.84 92.836 201.845 92.8574 201.841 92.8781Z" fill="#CCCCCC"/>
<path d="M71.7387 90.5867C72.2416 94.2857 76.3007 98.6824 76.3007 98.6824C70.1155 99.1207 66.7658 95.6229 65.3244 93.4975C63.5424 94.0124 61.7109 94.3375 59.8604 94.4672C47.1623 95.3672 36.2311 87.0772 35.4417 75.9415C34.6522 64.8059 44.3049 55.0567 57.0031 54.1569C69.7012 53.257 80.6317 61.5466 81.421 72.6824C81.9344 79.9257 78.0258 86.5835 71.7387 90.5867Z" fill="white"/>
<path d="M108.255 114.542C107.68 115.998 97.1641 159.357 63.1353 153.01C25.8205 146.693 52.8112 104.202 52.8112 104.202L108.255 114.542Z" fill="#EDEDED"/>
<path d="M58.4345 78.132C60.1781 78.132 61.5916 76.7185 61.5916 74.9749C61.5916 73.2313 60.1781 71.8178 58.4345 71.8178C56.6908 71.8178 55.2773 73.2313 55.2773 74.9749C55.2773 76.7185 56.6908 78.132 58.4345 78.132Z" fill="#CCCCCC"/>
<path d="M44.2953 76.7553C46.0495 76.7553 47.4715 75.3333 47.4715 73.5792C47.4715 71.825 46.0495 70.403 44.2953 70.403C42.5412 70.403 41.1191 71.825 41.1191 73.5792C41.1191 75.3333 42.5412 76.7553 44.2953 76.7553Z" fill="#CCCCCC"/>
<path d="M72.432 79.4775C74.1862 79.4775 75.6082 78.0555 75.6082 76.3013C75.6082 74.5472 74.1862 73.1252 72.432 73.1252C70.6779 73.1252 69.2559 74.5472 69.2559 76.3013C69.2559 78.0555 70.6779 79.4775 72.432 79.4775Z" fill="#CCCCCC"/>
<path d="M141.064 120.656L138.532 134.25L118.676 120.165L119.338 116.608L141.064 120.656Z" fill="#6C727F"/>
<path d="M49.4885 212.455V227H47.4714L40.0779 216.332H39.943V227H37.7484V212.455H39.7797L47.1802 223.136H47.3152V212.455H49.4885ZM57.1145 227.22C56.0918 227.22 55.1993 226.986 54.437 226.517C53.6747 226.048 53.0828 225.393 52.6614 224.55C52.24 223.707 52.0293 222.722 52.0293 221.595C52.0293 220.464 52.24 219.474 52.6614 218.626C53.0828 217.779 53.6747 217.121 54.437 216.652C55.1993 216.183 56.0918 215.949 57.1145 215.949C58.1373 215.949 59.0298 216.183 59.7921 216.652C60.5544 217.121 61.1462 217.779 61.5676 218.626C61.9891 219.474 62.1998 220.464 62.1998 221.595C62.1998 222.722 61.9891 223.707 61.5676 224.55C61.1462 225.393 60.5544 226.048 59.7921 226.517C59.0298 226.986 58.1373 227.22 57.1145 227.22ZM57.1216 225.438C57.7845 225.438 58.3337 225.262 58.7694 224.912C59.205 224.562 59.5269 224.095 59.7353 223.513C59.9483 222.93 60.0549 222.289 60.0549 221.588C60.0549 220.892 59.9483 220.253 59.7353 219.67C59.5269 219.083 59.205 218.612 58.7694 218.257C58.3337 217.902 57.7845 217.724 57.1216 217.724C56.454 217.724 55.9 217.902 55.4597 218.257C55.0241 218.612 54.6998 219.083 54.4867 219.67C54.2784 220.253 54.1742 220.892 54.1742 221.588C54.1742 222.289 54.2784 222.93 54.4867 223.513C54.6998 224.095 55.0241 224.562 55.4597 224.912C55.9 225.262 56.454 225.438 57.1216 225.438ZM75.687 212.455H77.8745V222.767C77.8745 223.7 77.6898 224.498 77.3205 225.161C76.9559 225.823 76.4422 226.33 75.7793 226.68C75.1164 227.026 74.3399 227.199 73.4498 227.199C72.6306 227.199 71.8944 227.05 71.2409 226.751C70.5923 226.453 70.0785 226.02 69.6998 225.452C69.3257 224.879 69.1387 224.183 69.1387 223.364H71.3191C71.3191 223.766 71.4114 224.114 71.5961 224.408C71.7855 224.701 72.0435 224.931 72.3702 225.097C72.7016 225.258 73.0804 225.338 73.5066 225.338C73.9706 225.338 74.3636 225.241 74.6855 225.047C75.0123 224.848 75.2608 224.557 75.4313 224.173C75.6017 223.79 75.687 223.321 75.687 222.767V212.455ZM85.4934 227.22C84.4707 227.22 83.5782 226.986 82.8159 226.517C82.0536 226.048 81.4617 225.393 81.0403 224.55C80.6189 223.707 80.4082 222.722 80.4082 221.595C80.4082 220.464 80.6189 219.474 81.0403 218.626C81.4617 217.779 82.0536 217.121 82.8159 216.652C83.5782 216.183 84.4707 215.949 85.4934 215.949C86.5162 215.949 87.4087 216.183 88.171 216.652C88.9333 217.121 89.5252 217.779 89.9466 218.626C90.368 219.474 90.5787 220.464 90.5787 221.595C90.5787 222.722 90.368 223.707 89.9466 224.55C89.5252 225.393 88.9333 226.048 88.171 226.517C87.4087 226.986 86.5162 227.22 85.4934 227.22ZM85.5005 225.438C86.1634 225.438 86.7127 225.262 87.1483 224.912C87.5839 224.562 87.9058 224.095 88.1142 223.513C88.3272 222.93 88.4338 222.289 88.4338 221.588C88.4338 220.892 88.3272 220.253 88.1142 219.67C87.9058 219.083 87.5839 218.612 87.1483 218.257C86.7127 217.902 86.1634 217.724 85.5005 217.724C84.8329 217.724 84.2789 217.902 83.8386 218.257C83.403 218.612 83.0787 219.083 82.8656 219.67C82.6573 220.253 82.5531 220.892 82.5531 221.588C82.5531 222.289 82.6573 222.93 82.8656 223.513C83.0787 224.095 83.403 224.562 83.8386 224.912C84.2789 225.262 84.8329 225.438 85.5005 225.438ZM93.1195 227V212.455H95.2431V217.859H95.3709C95.494 217.632 95.6716 217.369 95.9036 217.071C96.1356 216.773 96.4576 216.512 96.8695 216.29C97.2814 216.062 97.8259 215.949 98.503 215.949C99.3837 215.949 100.17 216.171 100.861 216.616C101.552 217.062 102.094 217.703 102.487 218.541C102.885 219.379 103.084 220.388 103.084 221.567C103.084 222.746 102.887 223.757 102.494 224.599C102.102 225.437 101.562 226.084 100.875 226.538C100.189 226.988 99.405 227.213 98.5243 227.213C97.8614 227.213 97.3193 227.102 96.8979 226.879C96.4812 226.657 96.1545 226.396 95.9178 226.098C95.681 225.8 95.4988 225.535 95.3709 225.303H95.1934V227H93.1195ZM95.2005 221.545C95.2005 222.312 95.3117 222.985 95.5343 223.562C95.7568 224.14 96.0788 224.592 96.5002 224.919C96.9216 225.241 97.4377 225.402 98.0485 225.402C98.6829 225.402 99.2132 225.234 99.6394 224.898C100.066 224.557 100.387 224.095 100.605 223.513C100.828 222.93 100.939 222.275 100.939 221.545C100.939 220.826 100.83 220.179 100.612 219.607C100.399 219.034 100.077 218.581 99.6465 218.25C99.2203 217.919 98.6877 217.753 98.0485 217.753C97.4329 217.753 96.9121 217.911 96.486 218.229C96.0646 218.546 95.745 218.989 95.5272 219.557C95.3094 220.125 95.2005 220.788 95.2005 221.545ZM113.127 212.455V227H110.932V212.455H113.127ZM118.276 220.523V227H116.152V216.091H118.191V217.866H118.325C118.576 217.289 118.969 216.825 119.504 216.474C120.044 216.124 120.724 215.949 121.543 215.949C122.286 215.949 122.937 216.105 123.496 216.418C124.055 216.725 124.488 217.185 124.796 217.795C125.103 218.406 125.257 219.161 125.257 220.061V227H123.134V220.317C123.134 219.526 122.928 218.908 122.516 218.463C122.104 218.013 121.538 217.788 120.818 217.788C120.326 217.788 119.888 217.895 119.504 218.108C119.126 218.321 118.825 218.634 118.602 219.045C118.385 219.453 118.276 219.945 118.276 220.523ZM137.047 216.091L133.091 227H130.818L126.855 216.091H129.135L131.898 224.486H132.012L134.767 216.091H137.047ZM139.043 227V216.091H141.166V227H139.043ZM140.115 214.408C139.746 214.408 139.429 214.285 139.164 214.038C138.903 213.787 138.773 213.489 138.773 213.143C138.773 212.793 138.903 212.495 139.164 212.249C139.429 211.998 139.746 211.872 140.115 211.872C140.485 211.872 140.799 211.998 141.06 212.249C141.325 212.495 141.458 212.793 141.458 213.143C141.458 213.489 141.325 213.787 141.06 214.038C140.799 214.285 140.485 214.408 140.115 214.408ZM149.116 216.091V217.795H143.157V216.091H149.116ZM144.755 213.477H146.878V223.797C146.878 224.209 146.94 224.519 147.063 224.727C147.186 224.931 147.345 225.071 147.539 225.146C147.738 225.217 147.953 225.253 148.185 225.253C148.356 225.253 148.505 225.241 148.633 225.217C148.76 225.194 148.86 225.175 148.931 225.161L149.314 226.915C149.191 226.962 149.016 227.009 148.789 227.057C148.562 227.109 148.278 227.137 147.937 227.142C147.378 227.152 146.857 227.052 146.374 226.844C145.891 226.635 145.501 226.313 145.202 225.878C144.904 225.442 144.755 224.895 144.755 224.237V213.477ZM154.639 227.241C153.948 227.241 153.323 227.114 152.764 226.858C152.206 226.598 151.763 226.221 151.436 225.729C151.114 225.236 150.953 224.633 150.953 223.918C150.953 223.302 151.072 222.795 151.308 222.398C151.545 222 151.865 221.685 152.267 221.453C152.67 221.221 153.119 221.046 153.617 220.928C154.114 220.809 154.62 220.719 155.137 220.658C155.79 220.582 156.32 220.52 156.727 220.473C157.135 220.421 157.431 220.338 157.615 220.224C157.8 220.111 157.892 219.926 157.892 219.67V219.621C157.892 219 157.717 218.52 157.367 218.179C157.021 217.838 156.505 217.668 155.818 217.668C155.103 217.668 154.54 217.826 154.128 218.143C153.721 218.456 153.439 218.804 153.283 219.188L151.287 218.733C151.524 218.07 151.869 217.535 152.324 217.128C152.783 216.716 153.311 216.418 153.908 216.233C154.504 216.044 155.132 215.949 155.79 215.949C156.226 215.949 156.687 216.001 157.175 216.105C157.667 216.205 158.127 216.389 158.553 216.659C158.984 216.929 159.336 217.315 159.611 217.817C159.886 218.314 160.023 218.96 160.023 219.756V227H157.949V225.509H157.864C157.727 225.783 157.521 226.053 157.246 226.318C156.971 226.583 156.619 226.804 156.188 226.979C155.757 227.154 155.241 227.241 154.639 227.241ZM155.101 225.537C155.688 225.537 156.19 225.421 156.607 225.189C157.028 224.957 157.348 224.654 157.566 224.28C157.788 223.901 157.899 223.496 157.899 223.065V221.659C157.824 221.735 157.677 221.806 157.459 221.872C157.246 221.934 157.002 221.988 156.727 222.036C156.453 222.078 156.185 222.118 155.925 222.156C155.664 222.189 155.447 222.218 155.271 222.241C154.86 222.294 154.483 222.381 154.142 222.504C153.806 222.627 153.536 222.805 153.333 223.037C153.134 223.264 153.034 223.567 153.034 223.946C153.034 224.472 153.228 224.869 153.617 225.139C154.005 225.404 154.5 225.537 155.101 225.537ZM167.944 216.091V217.795H161.985V216.091H167.944ZM163.583 213.477H165.706V223.797C165.706 224.209 165.768 224.519 165.891 224.727C166.014 224.931 166.173 225.071 166.367 225.146C166.566 225.217 166.781 225.253 167.013 225.253C167.184 225.253 167.333 225.241 167.461 225.217C167.589 225.194 167.688 225.175 167.759 225.161L168.143 226.915C168.019 226.962 167.844 227.009 167.617 227.057C167.39 227.109 167.106 227.137 166.765 227.142C166.206 227.152 165.685 227.052 165.202 226.844C164.719 226.635 164.329 226.313 164.03 225.878C163.732 225.442 163.583 224.895 163.583 224.237V213.477ZM170.293 227V216.091H172.416V227H170.293ZM171.365 214.408C170.996 214.408 170.679 214.285 170.414 214.038C170.153 213.787 170.023 213.489 170.023 213.143C170.023 212.793 170.153 212.495 170.414 212.249C170.679 211.998 170.996 211.872 171.365 211.872C171.735 211.872 172.049 211.998 172.31 212.249C172.575 212.495 172.708 212.793 172.708 213.143C172.708 213.489 172.575 213.787 172.31 214.038C172.049 214.285 171.735 214.408 171.365 214.408ZM179.868 227.22C178.846 227.22 177.953 226.986 177.191 226.517C176.429 226.048 175.837 225.393 175.415 224.55C174.994 223.707 174.783 222.722 174.783 221.595C174.783 220.464 174.994 219.474 175.415 218.626C175.837 217.779 176.429 217.121 177.191 216.652C177.953 216.183 178.846 215.949 179.868 215.949C180.891 215.949 181.784 216.183 182.546 216.652C183.308 217.121 183.9 217.779 184.322 218.626C184.743 219.474 184.954 220.464 184.954 221.595C184.954 222.722 184.743 223.707 184.322 224.55C183.9 225.393 183.308 226.048 182.546 226.517C181.784 226.986 180.891 227.22 179.868 227.22ZM179.876 225.438C180.538 225.438 181.088 225.262 181.523 224.912C181.959 224.562 182.281 224.095 182.489 223.513C182.702 222.93 182.809 222.289 182.809 221.588C182.809 220.892 182.702 220.253 182.489 219.67C182.281 219.083 181.959 218.612 181.523 218.257C181.088 217.902 180.538 217.724 179.876 217.724C179.208 217.724 178.654 217.902 178.214 218.257C177.778 218.612 177.454 219.083 177.241 219.67C177.032 220.253 176.928 220.892 176.928 221.588C176.928 222.289 177.032 222.93 177.241 223.513C177.454 224.095 177.778 224.562 178.214 224.912C178.654 225.262 179.208 225.438 179.876 225.438ZM189.448 220.523V227H187.324V216.091H189.362V217.866H189.497C189.748 217.289 190.141 216.825 190.676 216.474C191.216 216.124 191.896 215.949 192.715 215.949C193.458 215.949 194.109 216.105 194.668 216.418C195.227 216.725 195.66 217.185 195.968 217.795C196.275 218.406 196.429 219.161 196.429 220.061V227H194.306V220.317C194.306 219.526 194.1 218.908 193.688 218.463C193.276 218.013 192.71 217.788 191.99 217.788C191.498 217.788 191.06 217.895 190.676 218.108C190.298 218.321 189.997 218.634 189.774 219.045C189.557 219.453 189.448 219.945 189.448 220.523Z" fill="#6C727F"/>
</svg>
