<svg width="240" height="240" viewBox="0 0 240 240" fill="none" xmlns="http://www.w3.org/2000/svg">
<path d="M173.033 198.786C173.609 198.901 174.185 198.75 174.762 198.75C184.161 198.741 193.561 198.729 202.961 198.728C203.505 198.728 204.049 198.811 204.593 198.866C204.776 198.884 205.01 198.88 205.044 199.131C205.083 199.41 204.86 199.512 204.654 199.56C203.892 199.738 203.117 199.808 202.338 199.81C195.756 199.822 189.175 199.831 182.593 199.837C176.389 199.842 170.186 199.799 163.983 199.85C135.281 200.084 106.578 199.995 77.8756 199.911C59.8557 199.858 41.8354 199.88 23.8156 199.808C22.8274 199.804 21.8391 199.826 20.8508 199.824C20.644 199.824 20.4318 199.794 20.2321 199.739C20.0853 199.699 19.9853 199.57 20.0018 199.39C20.0155 199.239 20.1171 199.164 20.2423 199.119C20.5645 199.002 20.8994 198.974 21.2372 198.973C23.6343 198.966 26.0315 198.967 28.4286 198.952C30.508 198.938 32.5871 198.907 34.6663 198.878C34.8939 198.875 35.1913 198.915 35.2921 198.67C35.4086 198.387 35.0973 198.263 34.9375 198.122C31.4886 195.089 28.6493 191.416 25.3745 188.201C24.8532 187.689 24.3136 187.203 23.7378 186.759C23.1411 186.3 23.0579 185.912 23.4559 185.244C23.8682 184.553 24.3604 183.93 24.9684 183.406C26.3126 182.247 27.676 181.111 28.9477 179.864C29.3134 179.506 29.6921 179.287 30.1827 179.619C30.4324 179.789 30.6321 179.635 30.7981 179.463C30.9915 179.263 31.1445 179.021 31.3378 178.821C32.06 178.074 32.4089 177.311 31.5989 176.369C31.2863 176.005 31.407 175.534 31.5485 175.111C32.379 172.63 33.1894 170.141 34.0548 167.673C35.4471 163.703 36.8673 159.742 38.2944 155.785C39.1443 153.429 40.0274 151.085 40.9008 148.738C41.1304 148.121 41.3496 147.496 41.324 146.829C41.2005 143.609 41.0619 140.391 40.9216 137.172C40.8234 134.917 40.6932 132.663 40.6137 130.408C40.4184 124.866 40.2485 119.323 40.0566 113.781C40.0308 113.037 39.9377 112.297 39.8748 111.555C39.8435 111.184 39.6583 110.982 39.3048 110.871C38.0201 110.47 37.1383 109.252 37.0512 107.857C36.9471 106.19 37.2253 104.583 37.6823 102.997C38.0453 101.737 38.3541 100.462 38.6016 99.1712C38.6546 98.8949 38.6505 98.6506 38.5 98.4185C36.976 96.0681 36.9819 93.4698 37.3876 90.8166C37.9004 87.4634 39.0288 84.3008 40.185 81.1482C40.7858 79.5101 41.4065 77.8847 42.2537 76.3598C43.5916 73.9518 45.5407 72.1756 47.671 70.5849C49.7168 69.0574 51.9141 67.8351 54.3305 67.0652C54.5292 67.0019 54.7493 66.9228 54.8944 66.7794C56.1589 65.5295 57.7899 65.6579 59.3343 65.5079C59.7125 65.4712 59.9272 65.3395 60.0754 65.0351C60.4667 64.2316 60.761 63.3882 60.9797 62.5162C61.0586 62.2018 60.8989 61.9566 60.7488 61.7241C60.2074 60.8856 60.0254 60.0221 60.4431 59.0552C60.6106 58.6676 60.6149 58.2302 60.3612 57.8572C59.9872 57.3071 59.7951 56.6859 59.6657 56.0388C59.4944 55.1814 59.2878 54.3344 59.077 53.4862C58.719 52.0457 59.7335 49.7735 60.9808 49.0512C61.3477 48.8386 61.7421 48.7599 62.1253 48.9851C62.4326 49.1657 62.7598 49.2195 63.0951 49.2222C63.9803 49.2294 64.8527 49.2766 65.7059 49.5798C66.0607 49.7059 66.4531 49.6265 66.8273 49.5271C67.3912 49.3771 67.9646 49.3508 68.48 49.6749C69.1418 50.0911 69.8495 50.1864 70.6012 50.1454C71.5922 50.0915 72.4678 50.3979 73.188 51.1321C73.7227 51.6771 73.8626 52.4021 73.5542 53.1166C73.2181 53.8952 72.8769 54.6717 72.5234 55.4417C72.1303 56.2979 71.8963 56.4242 71.1138 56.2507C70.1014 56.0259 70.1291 56.0285 70.0402 57.1041C69.8506 59.3969 69.698 61.7025 68.7116 63.8245C68.3284 64.6491 67.7984 65.3346 67.0265 65.8147C66.3611 66.2282 66.3149 66.7474 66.8921 67.2844C67.2192 67.5885 67.5914 67.8482 67.9689 68.0834C68.9497 68.6945 69.8221 69.4479 70.6506 70.2588C70.9404 70.5425 71.1956 70.8658 71.2897 71.2941C71.3786 71.6982 71.7269 71.8745 72.0049 72.0911C73.8236 73.5082 75.6571 74.9072 77.3052 76.5425C78.8012 78.0269 80.1196 79.6765 81.3424 81.4105C81.524 81.6681 81.68 82.1061 81.9794 82.0622C82.2692 82.0198 82.3169 81.5545 82.4489 81.2632C83.8801 78.1048 84.7373 74.7218 85.9653 71.4838C86.2213 70.8091 86.1268 70.0966 86.2006 69.4032C86.3936 67.5914 86.5715 65.7812 87.4723 64.1572C87.4946 64.1169 87.4557 64.0399 87.4306 63.8942C86.5226 64.8084 85.9045 65.8614 85.6167 67.0404C84.9831 69.6366 83.7245 71.8936 82.3791 74.1262C81.6532 75.3308 80.5741 76.1271 79.5545 77.0009C79.4373 77.1014 79.2974 77.1842 79.1669 77.0276C79.0349 76.8692 79.0694 76.6721 79.1829 76.5438C79.4241 76.2714 79.673 75.9919 79.9643 75.7851C80.7172 75.2504 81.226 74.5156 81.673 73.7104C82.5341 72.1594 83.6527 70.7485 84.0828 68.9636C84.3131 68.0076 84.6691 67.0984 84.9688 66.1681C85.2472 65.3039 85.6989 64.5265 86.2665 63.8525C86.7273 63.3052 87.2459 62.7491 88.1075 63.0762C88.4291 63.1984 88.5603 62.8192 88.6975 62.5899C89.4207 61.3809 90.14 60.1711 90.9502 59.0202C91.3717 58.4212 91.8697 58.1514 92.5981 58.1414C93.7349 58.1258 94.8576 57.9274 95.8992 57.4002C96.3517 57.1712 96.7698 57.1155 97.1647 57.5384C97.5581 57.9598 97.5964 58.4277 97.3688 58.9279C96.8194 60.1349 96.394 61.4029 95.7507 62.5626C95.5492 62.9258 95.5409 63.2815 95.6981 63.6269C95.959 64.1998 96.093 64.8245 96.4176 65.3731C96.9686 66.3041 96.9078 67.2645 96.3892 68.1811C95.3209 70.0691 94.2282 71.9421 93.142 73.8191C93.0557 73.9681 92.9698 74.1555 92.8355 74.2295C92.1426 74.6106 92.2383 75.2154 92.318 75.8701C92.6829 78.8655 93.4471 81.8259 93.2309 84.8755C92.9511 88.8229 91.6717 92.3922 89.2443 95.4674C87.8137 97.2799 85.9123 98.1604 83.6958 98.3335C80.6858 98.5688 77.7772 98.1425 75.0412 96.7589C73.6787 96.0699 72.3937 95.2339 71.1411 94.3438C70.4204 93.8316 70.307 93.8982 70.1685 94.7996C69.8482 96.8842 69.6391 98.9648 70.0252 101.074C70.2677 102.398 70.9271 103.522 71.4848 104.693C72.1894 106.173 72.2872 107.619 71.5177 109.095C71.1156 109.866 71.3053 110.653 71.5744 111.39C72.5746 114.127 73.0844 116.996 73.7283 119.831C74.7602 124.374 75.6185 128.953 76.4244 133.544C77.0307 136.997 77.2937 140.488 77.5238 143.991C77.9858 151.02 78.0664 158.055 77.976 165.093C77.8966 171.275 77.5684 177.445 76.7943 183.582C76.7697 183.777 76.7272 183.976 76.7382 184.17C76.7916 185.114 76.2915 185.644 75.5082 185.927C75.076 186.083 74.9151 186.345 74.9479 186.81C74.9986 187.525 74.9004 188.255 75.1873 189.039C75.4978 188.707 75.7737 188.391 76.0723 188.099C76.4315 187.749 76.7951 187.727 77.189 188.086C77.6472 188.503 77.957 189.014 78.1722 189.593C78.4233 190.268 78.8471 190.789 79.3821 191.241C80.9658 192.581 82.8002 193.466 84.5986 194.419C85.0853 194.677 85.58 194.926 86.0391 195.231C87.1184 195.948 87.4824 197.073 87.0146 198.302C86.8516 198.729 86.9212 198.842 87.3464 198.842C91.1734 198.836 95.0004 198.84 98.8274 198.839C98.8658 198.839 98.904 198.812 98.9507 198.795C98.9594 198.581 98.778 198.567 98.658 198.521C97.6041 198.108 96.7653 197.392 96.0515 196.508C94.0221 193.995 92.3887 191.277 91.8555 187.954C91.4191 185.235 91.6072 182.539 91.9686 179.837C92.3666 176.862 92.5418 173.863 92.829 170.876C93.045 168.63 93.2781 166.386 93.5064 164.141C93.872 160.546 94.2336 156.951 94.6087 153.356C94.8997 150.568 95.2193 147.783 95.5073 144.994C95.8042 142.119 96.068 139.239 96.3658 136.364C96.6568 133.554 96.9779 130.747 97.276 127.937C97.6505 124.41 98.0147 120.881 98.3842 117.353C98.6967 114.369 99.0205 111.386 99.3214 108.401C99.607 105.568 99.8604 102.732 100.144 99.8996C100.445 96.8922 100.763 93.8866 101.078 90.8808C101.525 86.6119 101.969 82.3425 102.429 78.0751C102.898 73.7202 103.395 69.3684 103.862 65.0132C104.235 61.5291 104.582 58.0418 104.943 54.5561C105.252 51.5714 105.59 48.5895 105.868 45.6017C106.176 42.2865 106.43 38.9658 106.711 35.6478C107.016 32.0462 107.327 28.4452 107.63 24.8437C107.829 22.4864 108.017 20.1281 108.214 17.7705C108.712 11.8147 111.22 7.04767 115.91 3.55338C118.283 1.78596 120.876 0.993531 123.818 0.992102C129.218 0.989388 134.619 0.793387 140.018 0.620102C141.51 0.572245 143.002 0.543531 144.493 0.526674C149.959 0.46496 155.422 0.293389 160.887 0.20096C166.163 0.111817 171.437 -0.0226115 176.714 0.00324566C180.125 0.0199599 183.477 0.528388 186.673 1.7711C189.876 3.01624 192.286 5.31753 194.033 8.37881C196.053 11.9202 196.402 15.7702 195.905 19.7502C195.31 24.5095 194.785 29.276 194.344 34.0528C194.323 34.2808 194.342 34.5128 194.374 34.7524C194.682 33.5051 195.197 32.3629 195.899 31.3142C197.872 28.3647 200.561 27.0599 203.997 27.5388C209.077 28.2467 212.667 32.5675 212.763 37.9257C212.814 40.8289 212.312 43.5399 210.832 46.0302C208.746 49.5372 205.641 50.9242 201.586 50.1385C198.577 49.5557 196.563 47.6579 195.167 44.9178C194.669 43.9392 194.012 43.0381 193.905 41.7592C192.968 47.6789 192.664 53.5242 192.088 59.3388C191.654 63.7202 191.139 68.0914 190.68 72.4692C190.552 73.6891 190.428 74.9095 190.309 76.1305C190.243 76.8195 190.301 76.8684 190.926 76.6745C193.837 75.7714 196.613 75.9722 199.196 77.7676C201.11 79.0985 202.249 81.0706 202.917 83.2541C204.253 87.6134 203.454 91.7446 201.006 95.4559C198.95 98.5716 195.92 99.3435 192.476 98.6929C191.262 98.4638 190.143 97.9742 189.096 97.2931C188.504 96.9075 188.416 96.9356 188.325 97.6675C188.113 99.3844 187.931 101.106 187.76 102.828C187.289 107.58 186.818 112.331 186.287 117.077C185.894 120.602 185.586 124.138 185.227 127.668C184.835 131.525 184.427 135.38 184.027 139.236C183.585 143.507 183.15 147.778 182.703 152.047C182.313 155.772 181.907 159.495 181.514 163.22C181.065 167.488 180.665 171.763 180.163 176.025C179.735 179.656 179.685 183.34 178.927 186.922C178.325 189.767 177.622 192.604 176.034 195.076C175.237 196.316 174.366 197.498 173.234 198.44C173.14 198.518 173.025 198.595 173.033 198.786ZM107.416 64.3109C107.629 64.3892 107.712 64.2664 107.812 64.1954C108.86 63.4512 109.755 62.5294 110.638 61.5867C113.192 58.8571 115.114 55.7559 116.057 52.0227C116.651 49.6717 117.068 47.2762 117.78 44.9544C118.558 42.4145 119.841 40.3227 122.153 39.0187C123.05 38.5127 123.989 38.1498 124.975 37.9108C125.429 37.8007 125.699 37.6584 125.707 37.0599C125.717 36.4142 125.904 35.7642 126.302 35.2171C127.165 34.0299 128.945 33.667 130.299 34.4095C131.613 35.1301 132.234 36.7754 131.696 38.3024C131.528 38.7787 131.623 38.9842 131.993 39.2549C134.457 41.0578 135.963 43.4692 136.34 46.6339C136.596 48.7787 136.511 50.9251 136.516 53.0715C136.52 54.7637 136.604 56.4445 136.872 58.1147C137.363 61.1697 138.451 64.0092 139.745 66.7725C140.576 68.5444 141.399 70.3235 142.536 71.9128C143.174 72.8045 143.175 72.9288 142.301 73.6077C142.15 73.7251 141.988 73.8294 141.822 73.9235C140.536 74.6548 139.132 74.5587 137.754 74.4765C135.677 74.3528 133.603 74.1391 131.56 73.7272C130.845 73.5831 130.484 73.8355 130.131 74.4269C129.336 75.7562 128.185 76.7094 126.776 77.1804C122.918 78.4698 119.546 76.5535 118.413 72.5034C118.231 71.8516 117.901 71.4706 117.214 71.3522C113.898 70.7802 110.584 70.1882 107.319 69.3425C106.866 69.2252 106.692 69.4165 106.648 69.8469C106.577 70.5441 106.502 71.2408 106.431 71.9381C106.12 75.0106 105.803 78.0826 105.5 81.1561C105.142 84.7958 104.801 88.4374 104.444 92.0771C104.165 94.9102 103.871 97.7415 103.588 100.574C103.193 104.519 102.804 108.464 102.407 112.408C102.048 115.982 101.677 119.555 101.318 123.128C100.955 126.746 100.603 130.365 100.241 133.982C99.8948 137.447 99.5351 140.911 99.1924 144.376C98.8306 148.037 98.4891 151.7 98.126 155.361C97.6872 159.785 97.2414 164.209 96.7867 168.632C96.3902 172.488 95.9745 176.342 95.572 180.197C95.3675 182.156 95.0855 184.109 95.3965 186.091C96.0571 190.3 98.8481 192.788 102.93 192.786C116.406 192.778 129.883 192.791 143.359 192.764C148.32 192.755 153.281 192.871 158.242 192.69C162.239 192.545 165.521 189.473 166.774 185.935C167.565 183.699 167.93 181.368 168.153 179.01C168.552 174.803 168.911 170.591 169.314 166.384C169.837 160.934 170.38 155.486 170.925 150.039C171.39 145.398 171.872 140.76 172.341 136.12C172.75 132.067 173.152 128.013 173.555 123.959C173.995 119.535 174.435 115.111 174.87 110.687C175.245 106.872 175.62 103.058 175.984 99.2428C176.378 95.1215 176.747 90.9975 177.151 86.8774C177.504 83.2809 177.901 79.6892 178.261 76.0935C178.656 72.1492 179.03 68.2025 179.415 64.2571C179.779 60.5298 180.151 56.8034 180.508 53.0752C180.906 48.9112 181.282 44.7448 181.686 40.5814C182.132 35.9819 182.599 31.3849 183.056 26.7867C183.329 24.0407 183.59 21.2951 183.731 18.5355C183.857 16.091 183.704 13.702 182.707 11.4631C181.422 8.57596 179.435 6.45639 176.425 5.5111C174.925 5.0401 173.386 4.84981 171.843 4.65396C169.422 4.34696 166.975 4.3871 164.559 4.0221C164.086 3.95053 163.759 4.14039 163.515 4.57139C163.003 5.47739 162.5 6.39281 161.933 7.26153C159.727 10.6397 156.801 12.9501 152.906 13.8034C149.971 14.4465 147.018 14.4178 144.063 14.0222C140.848 13.5918 138.063 12.2431 135.865 9.69938C134.828 8.49953 134.063 7.1041 133.348 5.69324C132.864 4.73924 132.208 4.56939 131.281 4.68325C129.885 4.85496 128.478 4.93653 127.075 5.05082C124.323 5.2751 121.581 5.59296 119.018 6.74353C115.342 8.39396 113.016 11.2538 112.31 15.3972C111.81 18.3327 111.691 21.3198 111.409 24.2847C111.106 27.468 110.818 30.6528 110.498 33.8341C110.025 38.5411 109.528 43.2454 109.045 47.9512C108.583 52.4604 108.124 56.9699 107.669 61.4798C107.573 62.4284 107.499 63.3788 107.416 64.3109ZM56.4715 110.537C58.9123 110.617 61.4759 110.5 64.0366 110.382C65.6238 110.308 67.244 110.348 68.7704 109.756C69.7105 109.391 70.6076 108.932 70.8659 107.78C71.0631 106.9 70.959 106.052 70.5969 105.218C70.1297 104.142 69.5186 103.125 69.2361 101.97C68.5437 99.1394 68.706 96.3154 69.439 93.5259C69.5961 92.9279 69.4816 92.5215 69.135 92.0909C68.6351 91.4699 68.1322 90.8475 67.8113 90.0966C67.7217 89.8869 67.5146 89.6378 67.7696 89.4525C68.0014 89.2842 68.2015 89.5158 68.3688 89.6758C68.6477 89.9421 68.9204 90.2164 69.1836 90.4995C70.6624 92.0905 72.1666 93.6344 73.9945 94.8191C77.0162 96.7775 80.3022 97.4098 83.7839 97.0808C85.8107 96.8894 87.5208 95.9934 88.8182 94.2966C89.926 92.8479 90.6002 91.1748 91.187 89.4596C91.9783 87.1458 92.3988 84.7851 92.1111 82.2971C91.754 79.2095 91.1779 76.1485 91.0445 73.0334C91.0302 72.6961 90.8498 72.5746 90.5634 72.5498C89.5592 72.4625 88.5542 72.3855 87.5513 72.2838C86.9894 72.2268 86.7217 72.4965 86.5442 73.0338C85.9075 74.9601 85.2532 76.8806 84.5697 78.7892C84.061 80.2094 83.4467 81.5802 82.4866 82.7454C82.0248 83.3058 81.747 83.3215 81.2189 82.8364C81.0774 82.7065 80.9422 82.5649 80.8243 82.4118C78.5373 79.4429 75.9005 76.8348 73.1596 74.3355C71.5641 72.8808 69.8245 71.7214 67.7439 71.0994C64.0897 70.0069 60.3909 69.0729 56.7874 67.7976C56.3603 67.6465 55.928 67.6178 55.4948 67.8092C53.561 68.6638 51.6084 69.4759 49.8159 70.6394C46.297 72.9236 43.3496 75.7338 41.8767 79.9262C41.1758 81.9212 40.3982 83.8875 39.7236 85.8918C38.7738 88.7145 38.0584 91.5928 38.0836 94.6224C38.0899 95.3786 38.3087 96.0405 38.6848 96.6636C38.7689 96.8029 38.8091 97.0275 39.0278 96.9865C39.1999 96.9542 39.2086 96.7631 39.251 96.6201C39.3501 96.2849 39.4523 95.9504 39.5384 95.6115C40.6198 91.3539 41.6944 87.0944 42.7829 82.8388C42.9125 82.3322 43.106 81.8424 43.287 81.3515C43.3483 81.1849 43.4762 81.0466 43.6742 81.0759C43.8947 81.1085 43.9144 81.3024 43.9093 81.4784C43.9004 81.7842 43.8827 82.0914 43.8454 82.3948C43.6331 84.1191 43.0074 85.7372 42.6594 87.4316C41.9688 90.7951 41.1809 94.1381 40.3693 97.4726C39.9519 99.1872 39.6194 100.932 38.8564 102.546C38.1596 104.021 37.9011 105.626 37.8782 107.262C37.8603 108.549 38.6741 109.554 39.8878 109.854C43.5465 110.757 47.2708 110.696 50.9879 110.62C52.7743 110.583 54.5609 110.609 56.4715 110.537ZM143.989 197.175C143.989 197.164 143.989 197.153 143.989 197.143C147.606 197.143 151.223 197.127 154.839 197.15C156.36 197.16 157.86 197.02 159.354 196.738C163.691 195.919 166.901 193.513 168.97 189.429C170.347 186.71 171.047 183.791 171.432 180.777C172.225 174.564 172.778 168.322 173.432 162.093C174.086 155.863 174.721 149.631 175.365 143.4C175.822 138.978 176.283 134.556 176.737 130.133C177.081 126.778 177.414 123.422 177.758 120.067C178.037 117.343 178.344 114.623 178.605 111.898C178.976 108.039 179.285 104.174 179.677 100.317C180.047 96.6784 180.335 93.0314 180.756 89.3976C181.136 86.1132 181.419 82.8166 181.748 79.5258C182.044 76.5619 182.358 73.5998 182.641 70.6345C183.009 66.7969 183.35 62.9566 183.71 59.1185C184.072 55.2586 184.453 51.4008 184.81 47.5404C185.052 44.9229 185.253 42.3015 185.497 39.6844C185.795 36.4782 186.116 33.2744 186.431 30.0698C186.829 26.0154 187.217 21.96 187.634 17.9077C188.052 13.8492 187.299 10.0924 185.014 6.7371C183.948 5.17053 182.682 3.82939 180.991 2.94496C178.745 1.7701 176.325 1.45253 173.89 1.39167C168.3 1.25167 162.709 1.41182 157.118 1.57282C153.021 1.69082 148.922 1.72639 144.824 1.85139C140.644 1.97896 136.461 2.06224 132.279 2.13096C128.916 2.1861 125.554 2.26039 122.194 2.42053C121.24 2.46596 120.331 2.68124 119.463 3.12796C117.173 4.30639 115.173 5.87567 113.457 7.84582C111.787 9.7641 110.578 11.9411 110.05 14.4921C109.38 17.7374 109.207 21.0481 108.912 24.3408C108.575 28.0935 108.323 31.8545 107.982 35.6067C107.472 41.2122 106.928 46.8147 106.375 52.4159C105.964 56.5792 105.513 60.7382 105.084 64.8995C105.048 65.2505 104.814 65.6416 105.124 65.9431C105.277 66.0912 106.096 65.2982 106.177 64.9334C106.191 64.8698 106.189 64.8025 106.197 64.7374C106.305 63.8462 106.425 62.9565 106.519 62.0639C106.917 58.3178 107.318 54.5718 107.699 50.8237C108.075 47.1192 108.426 43.4121 108.794 39.7068C109.181 35.8052 109.585 31.9054 109.965 28.0032C110.356 23.9925 110.594 19.9648 111.124 15.97C111.849 10.519 115.001 7.14396 119.768 5.2451C122.148 4.29724 124.681 4.15796 127.193 3.89853C131.923 3.4101 136.67 3.24567 141.413 3.06482C146.264 2.87982 151.122 2.8921 155.977 2.78367C160.606 2.68024 165.218 3.03896 169.832 3.31867C172.034 3.4521 174.237 3.68667 176.364 4.35081C178.579 5.0421 180.56 6.16039 182.068 8.04081C184.301 10.8261 185.142 14.0988 184.934 17.6564C184.695 21.7238 184.289 25.7782 183.856 29.8294C183.515 33.0299 183.246 36.2389 182.939 39.4434C182.572 43.2587 182.187 47.0719 181.831 50.8884C181.427 55.2281 181.07 59.5727 180.65 63.9107C180.139 69.1866 179.583 74.4579 179.048 79.7314C178.548 84.6559 178.071 89.5828 177.623 94.5131C177.126 99.9664 176.554 105.412 176.01 110.861C175.545 115.524 175.069 120.187 174.606 124.85C174.061 130.343 173.532 135.837 172.984 141.329C172.551 145.666 172.094 150.001 171.659 154.338C171.172 159.198 170.694 164.059 170.219 168.92C169.794 173.279 169.525 177.655 168.953 181.999C168.668 184.168 168.216 186.274 167.04 188.132C165.547 190.49 163.68 192.395 161.069 193.37C159.663 193.896 158.197 194.006 156.721 194.003C145.537 193.978 134.353 193.945 123.169 193.92C119.257 193.911 115.346 193.913 111.435 193.917C108.62 193.919 105.8 193.844 102.99 193.971C100.612 194.078 98.5255 193.553 96.84 191.734C95.9779 190.804 95.1652 189.842 94.7873 188.552C94.1274 186.299 94.1378 184.002 94.3841 181.709C95.0363 175.634 95.6488 169.554 96.2328 163.471C96.6138 159.503 96.9979 155.535 97.3905 151.568C97.7573 147.863 98.1404 144.159 98.5109 140.454C98.901 136.554 99.2818 132.652 99.6719 128.751C100.121 124.262 100.578 119.774 101.026 115.284C101.42 111.34 101.798 107.394 102.196 103.45C102.64 99.0483 103.107 94.6492 103.55 90.2476C103.874 87.0225 104.171 83.7944 104.492 80.5688C104.867 76.7985 105.253 73.0294 105.641 69.2606C105.671 68.9666 105.585 68.8222 105.31 68.7342C104.746 68.5538 104.577 68.6799 104.5 69.4151C104.302 71.2887 104.111 73.1629 103.912 75.0362C103.556 78.3899 103.192 81.7429 102.836 85.0968C102.511 88.1672 102.194 91.2385 101.873 94.3093C101.57 97.2064 101.261 100.103 100.966 103C100.676 105.855 100.41 108.712 100.118 111.566C99.733 115.335 99.3299 119.103 98.9414 122.872C98.5753 126.423 98.2219 129.976 97.8561 133.527C97.5486 136.512 97.2221 139.495 96.9206 142.48C96.5577 146.075 96.2186 149.673 95.8581 153.268C95.3773 158.063 94.8484 162.852 94.41 167.651C94.0033 172.101 93.5626 176.547 93.0499 180.985C92.6712 184.264 92.7759 187.493 93.9342 190.635C95.1681 193.981 98.6254 197.34 102.929 197.301C112.431 197.215 121.933 197.313 131.436 197.184C135.619 197.128 139.805 197.175 143.989 197.175ZM54.7395 118.313C53.6401 118.161 52.6174 117.954 51.6482 117.517C51.5532 117.475 51.442 117.438 51.3532 117.53C51.2609 117.624 51.2912 117.737 51.3633 117.824C51.7464 118.283 52.0776 118.839 52.7638 118.819C53.1784 118.806 53.392 119.026 53.4789 119.408C53.6244 120.047 53.7452 120.692 53.8886 121.332C54.9272 125.963 55.9839 130.59 57.0036 135.226C57.5677 137.791 58.1287 140.368 57.9045 143.028C57.6467 146.086 57.1681 149.113 56.6646 152.135C56.5652 152.733 56.5443 153.353 56.2199 153.903C54.2593 157.225 52.336 160.572 50.3526 163.879C46.9871 169.491 43.5579 175.059 39.9471 180.505C39.5439 181.113 39.1714 181.354 38.5048 181.03C37.9605 180.765 37.4894 180.87 37.0123 181.316C36.4172 181.871 35.9984 182.542 35.6015 183.237C35.3078 183.752 35.3836 183.849 35.985 183.851C36.237 183.852 36.4931 183.832 36.74 183.872C37.5567 184.003 37.842 184.722 37.358 185.413C37.1708 185.681 36.9855 185.935 36.9749 186.292C36.9286 187.873 36.9618 189.441 37.2788 191.003C37.5947 192.558 38.1999 194.004 38.6948 195.492C38.9725 196.328 39.0495 197.16 38.6656 197.986C38.2642 198.85 38.2635 198.861 39.224 198.857C48.1803 198.82 57.1366 198.778 66.0929 198.736C66.261 198.735 66.429 198.721 66.5971 198.717C67.0159 198.706 67.2167 198.472 67.1952 198.047C67.1709 197.566 67.1127 197.087 67.087 196.607C66.9715 194.448 67.1642 192.317 67.5642 190.198C67.6639 189.669 67.8296 189.255 68.275 188.953C68.6947 188.669 68.8345 186.656 68.4776 186.32C68.4039 186.251 68.2887 186.183 68.1964 186.188C67.3872 186.232 67.245 185.663 67.1519 185.01C67.0873 184.557 66.9618 184.113 66.8769 183.662C65.7556 177.705 64.6272 171.749 63.5197 165.789C62.3723 159.614 61.2619 153.431 60.1056 147.258C59.0781 141.773 58.0111 136.295 56.7549 130.86C55.9176 127.237 55.0973 123.61 54.2847 119.981C54.1517 119.385 53.8821 118.71 54.7395 118.313ZM158.139 198.281C161.532 198.288 164.914 198.357 168.286 198.692C169.038 198.766 169.8 198.847 170.55 198.799C171.871 198.715 172.682 197.699 173.429 196.753C176.129 193.333 177.337 189.226 178.087 184.97C178.706 181.457 178.824 177.871 179.229 174.325C179.953 167.993 180.608 161.654 181.276 155.315C181.84 149.958 182.381 144.597 182.933 139.238C183.39 134.794 183.846 130.35 184.305 125.906C184.893 120.221 185.474 114.535 186.076 108.851C186.512 104.736 186.766 100.599 187.427 96.5112C187.467 96.2635 187.461 96.0161 187.31 95.8179C186.361 94.5719 185.695 93.1585 185.057 91.7274C184.954 91.4942 184.822 91.4061 184.56 91.4924C183.811 91.7391 183.033 91.7951 182.254 91.7769C181.766 91.7655 181.599 91.9881 181.564 92.4788C181.453 94.0518 181.319 95.6235 181.168 97.1931C180.717 101.88 180.257 106.566 179.796 111.253C179.414 115.132 179.036 119.012 178.64 122.891C178.202 127.183 177.739 131.473 177.297 135.765C176.779 140.798 176.275 145.833 175.761 150.866C175.21 156.248 174.691 161.633 174.091 167.009C173.587 171.516 173.265 176.039 172.846 180.553C172.668 182.473 172.355 184.372 171.691 186.195C171.083 187.863 170.289 189.431 169.445 190.97C167.767 194.032 165.373 196.226 162.131 197.372C160.826 197.834 159.46 197.939 158.139 198.281ZM107.435 66.1788C110.554 66.6758 113.537 67.1511 116.52 67.6264C120.611 68.2782 124.704 68.9172 128.792 69.5861C132.507 70.1938 136.237 70.7009 139.936 71.4078C140.098 71.4388 140.292 71.5036 140.414 71.3511C140.568 71.1579 140.4 70.9815 140.32 70.8124C139.744 69.5945 139.152 68.3846 138.589 67.1605C137.717 65.2668 136.751 63.4156 136.207 61.3735C135.25 57.7778 134.915 54.1002 134.841 50.3851C134.799 48.2584 134.704 46.1361 134.163 44.0657C133.785 42.6188 133.225 41.2918 131.982 40.4131C131.69 40.2068 131.391 39.9674 131.004 40.0187C129.511 40.2165 128.182 39.7475 126.929 38.9517C126.748 38.8364 126.568 38.7292 126.339 38.7911C125.161 39.1099 123.974 39.3908 122.911 40.0594C120.942 41.2984 119.812 43.1609 119.236 45.4257C118.39 48.7505 117.619 52.0995 116.317 55.2752C115.731 56.7027 115.219 58.1799 114.237 59.3861C112.741 61.2255 111.158 62.9785 109.369 64.5181C108.76 65.0425 108.149 65.5655 107.435 66.1788ZM190.371 63.9371C190.28 63.9986 190.21 64.0398 190.147 64.0899C188.713 65.2259 187.574 64.9784 186.651 63.3708C186.1 62.4114 185.892 61.3784 185.942 60.2857C186.085 57.1322 186.493 54.0032 186.77 50.8621C187.069 47.4809 187.393 44.1022 187.719 40.7237C187.87 39.1547 187.947 37.5765 188.225 36.0221C188.362 35.2564 188.667 34.6348 189.372 34.2422C190.194 33.7851 191.046 33.3768 191.931 33.144C193.141 32.8261 193.489 32.1668 193.59 30.8661C193.88 27.113 194.399 23.3795 194.812 19.6364C195.103 16.9984 194.987 14.3861 194.244 11.829C193.49 9.23238 192.25 6.98496 190.126 5.3051C188.533 4.04439 186.789 3.1101 184.934 2.38353C183.402 1.78339 181.808 1.45996 180.165 1.40439C180.303 1.50939 180.453 1.57153 180.602 1.63767C182.165 2.33339 183.6 3.2241 184.735 4.57539C187.937 8.39124 189.308 12.8117 188.866 17.8741C188.567 21.3 188.19 24.7164 187.857 28.1379C187.515 31.6471 187.171 35.1562 186.829 38.6652C186.422 42.8275 186.004 46.9887 185.613 51.1527C185.289 54.5975 185.014 58.0474 184.686 61.4918C184.344 65.0884 183.963 68.6809 183.602 72.2757C183.15 76.7855 182.702 81.2958 182.25 85.8056C182.116 87.1349 181.968 88.4625 181.838 89.7922C181.756 90.6344 181.872 90.7338 182.704 90.6735C183.286 90.6312 183.792 90.3596 184.315 90.1345C184.583 90.0189 184.602 89.8196 184.539 89.5434C184.189 88.0215 184.293 86.4874 184.557 84.9758C185.055 82.1282 186.372 79.7672 188.591 77.9905C188.947 77.7055 189.149 77.3526 189.195 76.8881C189.585 72.9882 189.982 69.0889 190.365 65.1884C190.404 64.7889 190.563 64.3797 190.371 63.9371ZM211.705 38.3271C211.663 35.6925 210.732 32.8197 208.171 30.5955C205.75 28.4932 201.593 28.1127 198.952 29.9054C197.145 31.1318 196.127 32.9381 195.468 34.9937C194.626 37.6219 194.465 40.2809 195.468 42.9084C196.134 44.6541 197.311 46.0419 198.583 47.3308C200.886 49.6628 204.77 50.0249 207.363 48.0549C210.275 45.8427 211.708 42.7929 211.705 38.3271ZM185.477 87.6264C185.509 88.0049 185.524 88.5552 185.608 89.0939C186.255 93.2569 188.487 96.5585 192.804 97.5524C195.538 98.1818 197.909 97.5165 199.714 95.2172C202.395 91.8034 203.105 87.9488 201.809 83.7465C201.076 81.3722 199.738 79.4004 197.578 78.2424C194.628 76.6605 190.67 77.5785 188.337 79.7702C186.163 81.8134 185.599 84.5548 185.477 87.6264ZM136.657 4.4041C135.901 4.4041 135.145 4.39167 134.389 4.40925C134.005 4.41825 133.876 4.56781 134.079 4.99639C134.635 6.16567 135.418 7.16924 136.151 8.2081C137.753 10.4772 139.829 12.0114 142.501 12.6208C143.863 12.9314 145.248 13.0228 146.628 13.094C150.011 13.2682 153.302 12.9315 156.282 11.0161C158.758 9.42424 160.603 7.21938 162.063 4.63281C162.163 4.45538 162.412 4.27424 162.269 4.06896C162.196 3.96239 161.919 3.98839 161.734 3.98867C158.163 3.99382 154.593 3.98881 151.021 4.07124C146.233 4.18181 141.442 4.10039 136.657 4.4041ZM81.7699 196.868C82.9886 196.868 84.2074 196.871 85.4259 196.864C85.6023 196.863 85.8467 196.948 85.9217 196.706C85.9858 196.499 85.8144 196.336 85.6744 196.207C85.2431 195.809 84.7159 195.582 84.2005 195.335C82.6142 194.574 81.0655 193.745 79.6293 192.699C78.5255 191.894 77.5795 190.964 77.0492 189.631C76.7073 188.772 76.5697 188.747 76.0542 189.516C75.3798 190.523 74.5672 191.165 73.3225 190.985C73.0528 190.946 72.7783 190.944 72.5074 190.913C71.4647 190.794 70.4293 190.626 69.3765 190.576C68.701 190.545 68.4902 190.852 68.4148 191.465C68.1853 193.334 67.9827 195.199 68.1317 197.092C68.2293 198.329 68.2517 198.391 69.4586 198.434C69.5846 198.438 69.7108 198.438 69.8368 198.439C70.9712 198.457 72.1121 198.399 73.2388 198.505C76.7775 198.838 80.3177 199.012 83.869 198.833C84.3913 198.807 84.9152 198.747 85.4298 198.651C85.6132 198.617 85.8986 198.489 85.8505 198.241C85.8045 198.003 85.5259 198.12 85.3569 198.122C80.4361 198.188 75.5377 197.807 70.6439 197.334C70.3393 197.304 69.8351 197.465 69.8405 196.961C69.8466 196.383 70.3792 196.615 70.6839 196.612C74.3816 196.579 78.0715 196.92 81.7699 196.868ZM188.924 39.3691C188.872 39.6055 188.81 39.7897 188.793 39.9781C188.659 41.4611 188.503 42.9431 188.409 44.4291C188.066 49.8297 187.381 55.1991 187.068 60.6028C187.01 61.6129 187.138 62.5066 187.764 63.3099C188.193 63.8604 188.383 63.9144 188.981 63.5525C189.985 62.9449 190.52 61.9989 190.689 60.8468C191.142 57.7705 191.488 54.6771 191.717 51.5757C191.992 47.8592 192.46 44.1667 192.835 40.4628C193.029 38.5442 193.17 36.6231 193.255 34.6964C193.278 34.1888 193.178 33.9697 192.62 34.1299C191.621 34.4171 190.656 34.7618 189.788 35.3709C189.098 35.8557 188.913 36.4748 189.332 37.2294C189.609 37.7298 189.9 38.2618 189.94 38.8018C190.002 39.6405 190.475 39.9547 191.104 40.2068C191.421 40.3342 191.628 40.5374 191.606 40.9431C191.526 42.4311 191.511 43.9245 191.385 45.4078C191.011 49.7938 190.604 54.1765 190.378 58.5749C190.34 59.3169 190.231 60.0557 190.134 60.7931C190.102 61.0349 190 61.3076 189.709 61.2642C189.416 61.2206 189.508 60.9234 189.503 60.7221C189.47 59.3409 189.497 57.9625 189.599 56.5828C189.781 54.1146 189.837 51.6375 190.073 49.1725C190.311 46.6875 190.395 44.1877 190.721 41.7115C190.827 40.9082 190.688 40.2958 189.854 39.9999C189.548 39.8911 189.293 39.6258 188.924 39.3691ZM36.3612 184.901C33.8656 185.163 32.2171 183.776 30.7458 182.004C30.4721 181.674 30.1402 181.398 29.8419 181.09C29.6881 180.931 29.5543 180.857 29.3626 181.045C27.8854 182.494 26.1307 183.64 25.0453 185.518C24.7611 186.01 24.8502 186.211 25.2089 186.533C26.0371 187.275 26.8636 188.025 27.6327 188.833C30.5059 191.848 33.1455 195.101 36.1794 197.955C36.9883 198.716 37.349 198.653 37.7615 197.567C37.9391 197.099 37.9826 196.638 37.8175 196.157C37.6404 195.642 37.4862 195.118 37.3053 194.604C36.5573 192.478 35.9365 190.314 35.7113 188.058C35.6042 186.987 35.4338 185.842 36.3612 184.901ZM141.526 72.7846C141.289 72.6131 141.077 72.5979 140.871 72.5681C137.15 72.0325 133.419 71.5574 129.709 70.9501C122.43 69.7587 115.162 68.4957 107.89 67.2552C107.323 67.1586 106.76 67.1579 106.196 67.2214C106.029 67.2402 105.775 67.2792 105.757 67.5181C105.737 67.7658 105.968 67.8168 106.151 67.8651C106.395 67.9295 106.642 67.9882 106.89 68.0324C112.167 68.9714 117.446 69.8916 122.742 70.7106C126.894 71.3528 131.027 72.1305 135.172 72.8246C136.83 73.1022 138.494 73.3716 140.183 73.2871C140.647 73.2638 141.157 73.2944 141.526 72.7846ZM87.7977 65.8519C87.2893 67.4881 87.1306 69.0748 86.9846 70.6642C86.9485 71.0561 87.1718 71.1466 87.4793 71.1814C88.5433 71.3018 89.6049 71.4488 90.6704 71.5525C91.9775 71.6799 91.99 71.6774 92.1482 73.0528C92.1519 73.0855 92.1989 73.1128 92.2256 73.1428C92.7079 72.6244 95.5266 67.4485 95.6395 66.8755C95.4673 66.8396 95.4399 66.9955 95.374 67.0955C95.0177 67.6369 94.6691 68.1841 94.3049 68.7196C94.1877 68.8921 94.0376 69.1399 93.8056 69.0008C93.5537 68.8496 93.6537 68.5639 93.7563 68.3526C93.9836 67.8845 94.2464 67.4354 94.4817 66.9712C94.5997 66.7385 94.8063 66.5119 94.655 66.2196C94.4841 66.1979 94.4478 66.3156 94.3755 66.3889C94.1272 66.6405 94.0799 67.3231 93.6574 67.1099C93.2439 66.9015 93.5622 66.3488 93.6724 65.9768C93.8638 65.3314 94.1247 64.7084 94.4167 63.9116C93.9648 64.2706 93.7324 64.5998 93.5146 64.9369C92.8266 66.0022 91.8848 66.7651 90.8071 67.3376C89.6019 67.9778 88.939 67.7489 88.2379 66.5468C88.1186 66.3422 87.9851 66.1465 87.7977 65.8519ZM69.0647 57.2434C69.0851 57.1138 69.1251 56.9391 69.0042 56.8796C68.5082 56.6361 67.9771 56.4641 67.4306 56.5312C67.0307 56.5804 66.96 57.0001 66.8933 57.3376C66.6649 58.4945 66.5022 59.6672 66.2334 60.8132C65.8261 62.5504 64.1075 63.6057 62.4674 63.1629C62.0749 63.0571 61.9205 63.2609 61.7972 63.5626C61.5587 64.1461 61.3864 64.7685 61.0804 65.3094C60.8549 65.7078 60.9218 65.8381 61.2987 65.9319C62.3799 66.2009 63.4678 66.4441 64.5392 66.7501C65.1386 66.9212 65.4104 66.6598 65.547 66.1156C65.706 65.4815 65.8398 64.8404 66.0068 64.2086C66.0743 63.9534 66.2044 63.6824 66.5056 63.6955C66.8365 63.7101 66.7977 63.9962 66.7862 64.2416C66.781 64.3512 66.7853 64.4785 66.9232 64.4964C67.0426 64.5118 67.1101 64.4074 67.163 64.3154C67.3679 63.9592 67.5998 63.6145 67.761 63.2374C68.5756 61.3316 68.8337 59.2899 69.0647 57.2434ZM124.316 76.3161C126.112 76.2745 127.619 75.5819 128.796 74.1525C129.038 73.8582 129.507 73.5194 129.417 73.2359C129.296 72.8582 128.733 72.9091 128.349 72.8485C125.718 72.4322 123.083 72.0326 120.449 71.6339C120.084 71.5786 119.61 71.3208 119.372 71.6316C119.1 71.9862 119.503 72.3999 119.65 72.7625C120.519 74.9144 121.963 76.2696 124.316 76.3161ZM36.1705 180.36C36.1938 180.144 36.0296 180.102 35.9051 180.039C34.9831 179.572 34.023 179.172 33.288 178.382C33.1085 178.189 32.9378 178.275 32.8068 178.445C32.3086 179.092 31.7816 179.718 31.4182 180.466C31.2792 180.752 31.3107 181.012 31.5089 181.255C32.0932 181.971 32.7006 182.664 33.3775 183.289C33.7858 183.666 34.1098 183.614 34.4054 183.141C34.9546 182.262 35.516 181.392 36.0722 180.518C36.1067 180.464 36.1403 180.409 36.1705 180.36ZM71.3147 186.729C71.3149 186.709 71.315 186.69 71.3152 186.67C70.9381 186.67 70.5609 186.669 70.1838 186.671C70.015 186.672 69.7883 186.665 69.756 186.861C69.6319 187.613 69.5938 188.375 69.7788 189.122C69.8061 189.232 69.9928 189.331 70.1243 189.375C71.1867 189.731 72.2669 189.967 73.3949 189.907C73.8752 189.881 74.0906 189.637 74.0434 189.157C73.9754 188.462 73.8826 187.771 73.7988 187.078C73.7683 186.825 73.6624 186.709 73.3838 186.72C72.6948 186.746 72.0045 186.729 71.3147 186.729ZM130.679 37.1322C130.735 35.3437 128.822 34.8041 127.775 35.3612C126.714 35.9259 126.694 37.6535 127.704 38.3134C127.961 38.4818 128.16 38.5581 128.27 38.1694C128.328 37.9687 128.421 37.7875 128.649 37.7955C128.914 37.8048 129.025 37.9909 129.121 38.2421C129.337 38.8049 129.962 38.8709 130.304 38.3661C130.549 38.0052 130.689 37.5879 130.679 37.1322ZM68.968 70.2005C68.2126 69.5791 67.4979 68.8689 66.6094 68.5252C63.8689 67.4648 61.0203 66.8476 58.116 66.5184C57.7629 66.4784 57.3909 66.4815 57.0137 66.7834C61.0464 67.9562 65.0746 68.7935 68.968 70.2005Z" fill="#6C727F"/>
<path d="M93.9197 19.6959C97.6101 19.7213 99.8612 21.1992 101.727 23.4427C103.235 25.2572 104.09 27.3929 104.172 29.7823C104.243 31.8406 103.666 33.7799 102.575 35.5037C101.887 36.5907 102.011 37.0359 102.749 38.003C103.101 38.4641 103.53 38.8604 103.908 39.301C104.075 39.4961 104.224 39.7187 104.084 40.0139C103.935 40.3259 103.679 40.3719 103.391 40.3317C102.596 40.2216 101.828 39.9913 101.065 39.7486C100.19 39.4701 99.3253 39.3676 98.3985 39.5101C95.0688 40.022 92.0436 39.24 89.4546 36.9464C88.4581 36.0637 87.6351 34.9971 87.0753 33.7464C86.8366 33.213 86.5096 32.7853 86.0483 32.4486C84.63 31.413 83.2342 30.3223 82.3539 28.7339C81.2459 26.7346 80.8617 24.5927 82.0111 22.4804C83.1963 20.3024 85.0011 19.0634 87.4969 19.2309C88.4672 19.296 89.3928 19.599 90.2546 20.0884C90.4061 20.1744 90.5775 20.247 90.5521 20.4612C90.5243 20.6933 90.3399 20.7749 90.1464 20.8117C89.8988 20.8589 89.6615 20.8642 89.4051 20.7784C87.8297 20.2524 86.2758 20.4436 84.7969 21.1192C82.8773 21.9962 81.9391 24.7336 82.7009 26.7754C83.3217 28.4397 84.5219 29.5869 85.7005 30.772C85.773 30.845 85.8597 30.9564 85.9655 30.8837C86.109 30.7849 86.0707 30.6114 86.0563 30.4603C85.873 28.5291 86.2495 26.692 87.0505 24.9716C88.5842 21.6769 91.1372 19.924 93.9197 19.6959ZM101.734 38.5287C101.625 38.356 101.541 38.1474 101.396 38.0053C100.612 37.2326 100.808 36.4709 101.303 35.6167C102.011 34.3947 102.575 33.0887 102.797 31.6654C103.307 28.3957 102.239 25.6324 100.058 23.3674C97.5963 20.8123 94.2692 20.2137 91.4945 21.8302C87.7393 24.0177 85.9927 28.6194 88.0129 32.7997C89.9277 36.7617 93.8345 39.3683 98.5772 38.415C99.4741 38.2347 100.374 38.233 101.246 38.5843C101.402 38.647 101.563 38.721 101.734 38.5287Z" fill="#6C727F"/>
<path d="M206.721 132.708C205.498 132.65 204.288 132.812 203.074 132.926C202.596 132.971 201.971 133.156 201.696 132.589C201.449 132.081 201.786 131.569 202.073 131.135C202.624 130.302 203.25 129.529 204.02 128.91C204.641 128.409 205.04 128.434 205.471 128.899C205.883 129.343 205.916 130.066 205.559 130.594C205.385 130.851 204.957 131.043 205.115 131.392C205.284 131.764 205.72 131.568 206.035 131.58C208.262 131.664 210.454 131.499 212.493 130.441C215.198 129.037 217.335 127.057 218.394 124.007C219.285 121.441 218.619 119.212 216.712 117.54C213.566 114.784 209.91 114.156 206.069 115.639C203.517 116.625 200.44 120.467 200.751 123.974C200.841 124.991 201.064 125.954 201.483 126.879C201.895 127.79 202.072 128.712 201.401 129.6C201.23 129.826 201.072 130.114 200.756 130.021C200.408 129.919 200.343 129.55 200.41 129.261C200.658 128.196 200.341 127.221 200.022 126.251C198.844 122.673 200.22 118.112 203.468 115.701C205.966 113.847 208.727 113.418 211.685 113.867C213.44 114.132 215.085 114.717 216.526 115.797C218.283 117.113 219.642 118.754 219.944 121.096C220.129 122.527 219.848 123.926 219.222 125.174C216.698 130.204 212.673 132.705 207.226 132.708C207.058 132.708 206.889 132.708 206.721 132.708Z" fill="#6C727F"/>
<path d="M205.552 117.655C207.089 117.754 208.256 118.601 209.057 119.948C209.39 120.508 209.644 120.347 209.995 120.116C211.191 119.331 212.494 119.148 213.864 119.374C214.257 119.439 214.638 119.579 214.978 119.81C216.772 121.029 217.01 122.84 215.618 124.554C214.097 126.426 212.143 127.713 210.152 128.935C209.059 129.606 207.965 129.522 206.945 128.624C205.408 127.27 203.691 126.118 202.465 124.416C200.41 121.564 202.014 118.868 204.157 117.93C204.583 117.743 205.045 117.673 205.552 117.655ZM202.759 121.701C202.721 122.445 203.021 123.073 203.423 123.644C204.686 125.438 206.414 126.694 208.093 128.008C208.453 128.289 208.771 128.269 209.139 128.082C209.99 127.649 210.813 127.166 211.587 126.597C212.77 125.728 214.007 124.928 214.865 123.66C215.259 123.077 215.553 122.439 215.233 121.765C214.886 121.033 214.221 120.683 213.44 120.605C211.83 120.445 210.468 120.984 209.336 122.186C209.138 122.395 208.946 122.71 208.599 122.563C208.228 122.406 208.306 122.025 208.292 121.705C208.277 121.356 208.289 121.004 208.16 120.67C207.716 119.519 206.312 118.737 205.11 118.972C203.666 119.254 202.786 120.275 202.759 121.701Z" fill="#6C727F"/>
<path d="M158.911 154.526C156.933 154.405 154.754 154.259 152.596 153.877C152.1 153.789 151.597 153.745 151.1 153.658C150.709 153.59 150.595 153.868 150.458 154.149C149.248 156.624 147.312 158.092 144.703 158.572C140.181 159.405 136.658 155.55 136.596 152.353C136.582 151.627 136.28 151.293 135.56 151.173C133.072 150.757 130.588 150.302 128.116 149.793C126.843 149.531 125.553 149.314 124.323 148.849C122.711 148.238 122.463 147.264 123.571 145.835C123.929 145.372 124.369 145 124.845 144.669C127.761 142.641 130.321 140.25 132.133 137.062C133.418 134.801 134.352 132.41 134.956 129.854C135.513 127.496 136.125 125.148 136.93 122.862C137.945 119.978 139.773 117.868 142.459 116.617C143.216 116.264 144.057 116.094 144.87 115.885C145.355 115.76 145.567 115.52 145.568 114.978C145.571 113.534 146.364 112.578 147.551 112.047C148.704 111.53 149.771 111.936 150.698 112.767C151.729 113.691 151.906 114.862 151.612 116.171C151.593 116.255 151.541 116.333 151.527 116.418C151.474 116.76 150.935 116.958 151.161 117.317C151.326 117.578 151.724 117.669 151.999 117.866C154.33 119.536 155.646 121.859 156.084 124.756C156.202 125.541 156.214 126.326 156.228 127.115C156.273 129.679 156.143 132.244 156.322 134.806C156.528 137.76 157.213 140.586 158.236 143.346C159.125 145.743 160.184 148.047 161.423 150.263C161.708 150.772 162.07 151.234 162.4 151.714C163.013 152.607 162.902 153.241 162.018 153.872C161.276 154.401 160.732 154.523 158.911 154.526ZM125.987 145.593C126.242 145.66 126.438 145.728 126.638 145.762C130.264 146.391 133.89 147.014 137.515 147.643C140.644 148.187 143.775 148.721 146.9 149.289C151.184 150.067 155.477 150.792 159.776 151.469C159.933 151.494 160.132 151.623 160.249 151.457C160.365 151.294 160.208 151.124 160.128 150.979C159.043 149.022 158.133 146.978 157.263 144.909C155.807 141.446 154.767 137.904 154.865 134.055C154.929 131.559 154.861 129.056 154.781 126.559C154.717 124.549 154.35 122.59 153.384 120.813C152.6 119.372 151.523 118.315 149.828 118.237C148.601 118.18 147.477 117.779 146.418 117.177C145.999 116.939 145.601 116.865 145.153 116.978C142.558 117.633 140.627 119.213 139.292 121.598C138.339 123.301 137.895 125.209 137.361 127.074C136.515 130.034 135.518 132.934 134.394 135.792C133.305 138.562 131.245 140.523 129.293 142.566C128.276 143.631 127.127 144.558 125.987 145.593ZM143.495 157.395C146.122 157.399 148.239 156.121 149.355 153.906C149.627 153.365 149.511 153.18 148.962 153.101C146.635 152.763 144.312 152.402 141.987 152.054C140.721 151.864 139.455 151.679 138.187 151.504C137.743 151.442 137.544 151.575 137.633 152.127C138.131 155.196 140.552 157.39 143.495 157.395ZM161.418 152.935C161.119 152.855 160.943 152.789 160.762 152.762C157.976 152.35 155.193 151.915 152.403 151.541C144.605 150.497 136.89 148.951 129.172 147.426C127.769 147.149 126.366 146.865 125.006 146.393C124.575 146.243 124.031 146.68 123.988 147.199C123.943 147.752 124.371 147.6 124.651 147.641C125.461 147.762 126.279 147.837 127.084 147.989C130.598 148.655 134.099 149.397 137.621 150.006C142.904 150.921 148.197 151.765 153.492 152.603C155.65 152.945 157.809 153.319 160.003 153.338C160.461 153.341 160.924 153.344 161.418 152.935ZM150.499 115.109C150.506 113.98 149.668 113.013 148.66 112.911C147.803 112.824 147.222 113.341 146.813 114.037C146.443 114.667 146.403 115.364 146.797 116.024C147.01 116.38 147.258 116.562 147.52 116.052C147.648 115.803 147.763 115.542 147.926 115.319C148.037 115.167 148.129 114.865 148.397 115.011C148.631 115.138 148.763 115.384 148.713 115.671C148.676 115.883 148.599 116.091 148.514 116.288C148.418 116.511 148.463 116.686 148.661 116.784C149.055 116.978 149.448 117.09 149.808 116.684C150.24 116.198 150.475 115.635 150.499 115.109Z" fill="#6C727F"/>
<path d="M151.739 53.551C151.74 53.5109 151.717 53.3483 151.758 53.2059C152.063 52.1473 151.932 52.06 150.794 51.6516C147.855 50.5962 144.867 49.6862 141.967 48.5123C141.029 48.1329 140.079 47.7624 139.225 47.195C138.389 46.6389 138.315 46.1794 138.785 45.2627C139.187 44.4769 139.782 43.935 140.535 43.5364C142.332 42.5854 144.196 41.7703 145.851 40.5372C149.17 38.065 151.558 34.8294 153.264 30.9914C154.402 28.429 155.269 25.7267 156.733 23.3309C158.627 20.2303 161.222 18.2587 164.876 18.1764C165.676 18.1584 166.166 17.928 166.531 17.1065C167.369 15.2202 168.638 14.5967 170.386 14.976C172.128 15.3543 173.686 18.0287 172.202 19.9859C171.762 20.5667 171.822 20.9444 172.287 21.4209C174.211 23.3933 175.174 25.8173 175.208 28.6122C175.232 30.698 174.96 32.7634 174.581 34.8129C173.769 39.1987 173.478 43.609 174.427 48.0016C175.152 51.3521 175.921 54.7079 177.558 57.7474C177.75 58.1026 177.661 58.2734 177.303 58.3476C177.262 58.3562 177.215 58.3592 177.182 58.3823C175.161 59.796 173.141 58.9423 171.128 58.366C169.447 57.8846 167.766 57.3996 166.104 56.8512C165.576 56.677 165.32 56.8447 165.082 57.273C164.373 58.55 163.34 59.4942 162.068 60.073C159.148 61.4019 156.469 60.8049 154.087 58.7026C152.501 57.3026 151.747 55.5697 151.739 53.551ZM141.656 44.5674C142.054 44.72 142.265 44.8074 142.48 44.8826C146.162 46.1687 149.846 47.4473 153.526 48.7399C158.581 50.5154 163.632 52.3027 168.685 54.0824C170.575 54.748 172.465 55.4119 174.36 56.0624C174.663 56.1664 175.033 56.4683 175.292 56.1714C175.506 55.9267 175.242 55.5473 175.152 55.2489C174.594 53.3894 174.012 51.5393 173.511 49.6602C172.799 46.9854 172.402 44.2713 172.305 41.4983C172.219 39.0249 172.564 36.5997 172.996 34.1872C173.43 31.766 173.733 29.3429 173.588 26.873C173.506 25.4896 173.137 24.1997 172.463 23.0144C171.999 22.1974 171.373 21.6147 170.399 21.4586C169.151 21.2584 168.041 20.6796 167.091 19.802C166.753 19.4903 166.379 19.3762 165.939 19.376C163.935 19.3755 162.138 20.027 160.536 21.2592C158.899 22.5189 157.876 24.2814 157.003 26.1429C155.73 28.8566 154.652 31.6709 153.14 34.2606C152.157 35.9449 151.249 37.7032 149.791 39.004C148.435 40.2129 147.02 41.3504 145.498 42.3382C144.307 43.1113 143.071 43.7984 141.656 44.5674ZM158.999 59.5032C160.853 59.5076 162.895 58.4962 164.015 57.0183C164.526 56.3444 164.49 56.1327 163.731 55.8359C163.103 55.5902 162.452 55.4063 161.809 55.2013C159.177 54.3613 156.546 53.5177 153.911 52.6887C153.023 52.4093 152.898 52.5187 152.912 53.4494C152.966 56.9832 155.492 59.4949 158.999 59.5032ZM175.598 57.8289C173.562 56.9723 171.469 56.417 169.414 55.741C165.488 54.4496 161.597 53.0533 157.708 51.6483C154.671 50.5513 151.625 49.4836 148.592 48.3762C145.939 47.4072 143.243 46.5466 140.73 45.1974C140.405 45.0227 139.844 45.3354 139.694 45.7906C139.557 46.2027 139.934 46.1836 140.128 46.2652C144.024 47.8973 147.973 49.3773 151.962 50.7367C157.888 52.756 163.821 54.7547 169.783 56.6579C171.268 57.132 172.74 57.6546 174.217 58.1546C174.734 58.329 175.231 58.4189 175.598 57.8289ZM169.657 15.986C169.035 15.9754 168.579 16.1217 168.175 16.421C167.227 17.123 167.188 18.7136 168.084 19.2812C168.477 19.5303 168.713 19.5576 168.827 19.0012C168.89 18.6885 169.11 18.3899 169.453 18.5209C169.797 18.6522 169.846 18.9944 169.704 19.3487C169.628 19.5377 169.408 19.7149 169.599 19.9396C169.805 20.1827 170.09 20.1597 170.361 20.1007C170.774 20.0107 171.088 19.753 171.293 19.3786C171.732 18.5807 171.627 17.7752 171.252 16.9943C170.902 16.2659 170.26 16.0369 169.657 15.986Z" fill="#6C727F"/>
<path d="M152.08 81.7365C151.843 84.5723 151.608 87.4083 151.369 90.2439C151.137 92.9923 150.9 95.7405 150.666 98.4888C150.391 101.716 150.185 104.951 149.769 108.164C149.723 108.522 149.712 108.982 149.196 108.936C148.701 108.891 148.542 108.531 148.587 108.044C148.736 106.431 148.88 104.818 149.025 103.205C149.304 100.109 149.57 97.0116 149.862 93.9169C150.158 90.7786 150.478 87.6426 150.793 84.5062C150.892 83.5262 151.009 82.5482 151.117 81.5692C151.126 81.4822 151.119 81.3902 151.143 81.3082C151.246 80.9551 151.166 80.3821 151.686 80.4241C152.178 80.4638 152 80.9961 152.042 81.3394C152.058 81.4686 152.045 81.6021 152.045 81.7335C152.057 81.7342 152.068 81.7353 152.08 81.7365Z" fill="#6C727F"/>
<path d="M131.65 102.174C131.315 102.162 131.077 101.695 131.267 101.389C131.448 101.097 131.666 100.824 131.9 100.575C134.711 97.5925 137.405 94.499 139.998 91.3095C140.296 90.9434 140.633 90.6095 140.97 90.2817C141.163 90.0948 141.389 89.8334 141.67 90.1211C141.92 90.3768 141.704 90.6065 141.556 90.8117C140.266 92.5938 138.936 94.3435 137.552 96.0474C135.868 98.1205 134.063 100.072 132.108 101.869C131.969 101.997 131.843 102.156 131.65 102.174Z" fill="#6C727F"/>
<path d="M166.811 102.201C166.796 102.612 166.281 102.802 165.956 102.555C165.648 102.322 165.421 102.003 165.244 101.648C163.454 98.0559 161.574 94.5117 159.929 90.842C159.836 90.6352 159.599 90.3699 159.862 90.2076C160.158 90.0248 160.283 90.3623 160.406 90.5863C162.335 94.102 164.263 97.6185 166.193 101.133C166.4 101.51 166.624 101.878 166.811 102.201Z" fill="#6C727F"/>
<path d="M69.405 106.741C69.3802 107.04 69.3832 107.386 69.0571 107.452C68.7176 107.522 68.6902 107.166 68.6114 106.929C68.0852 105.34 67.1813 103.96 66.3702 102.53C64.7324 99.6436 63.2593 96.6661 61.8156 93.6715C61.7778 93.5932 61.7402 93.5139 61.7135 93.4312C61.6628 93.2742 61.482 93.0726 61.6502 92.9591C61.8838 92.8014 61.9648 93.0975 62.0524 93.2415C63.2346 95.1835 64.4406 97.1108 65.573 99.0841C66.8132 101.245 68.0655 103.403 69.0898 105.69C69.242 106.03 69.3605 106.379 69.405 106.741Z" fill="#6C727F"/>
<path d="M203.42 34.5291C202.864 35.1882 202.458 35.7542 201.875 36.1226C201.697 36.2349 201.514 36.3514 201.319 36.4168C201.119 36.4835 200.952 36.3506 200.824 36.1996C200.685 36.0351 200.758 35.8762 200.872 35.7291C201.638 34.7428 202.382 33.7368 203.176 32.7761C203.691 32.1534 203.86 32.1614 204.243 32.8544C204.766 33.8008 205.215 34.7926 205.684 35.7708C205.775 35.9621 205.876 36.2029 205.676 36.3769C205.473 36.5525 205.282 36.3655 205.099 36.2741C204.912 36.1804 204.73 36.0759 204.464 35.9324C204.405 36.5381 204.322 37.0889 204.302 37.6425C204.242 39.2612 204.196 40.8806 204.168 42.5002C204.153 43.3804 204.048 44.2475 203.893 45.1082C203.746 45.9291 203.583 46.0336 202.794 45.9826C202.287 45.9499 201.795 45.8422 201.309 45.7088C201.033 45.6331 200.781 45.4795 200.845 45.1162C200.91 44.7525 201.197 44.7116 201.482 44.7368C201.794 44.7645 202.111 44.7982 202.414 44.8774C202.834 44.9869 202.975 44.8539 202.971 44.3999C202.956 42.8235 203.03 41.2486 203.074 39.6731C203.12 38.0109 203.27 36.3598 203.42 34.5291Z" fill="#6C727F"/>
<path d="M190.735 82.0992C192.181 82.0821 193.502 82.4546 194.853 82.3694C195.943 82.3006 197.032 82.2011 198.126 82.2449C198.465 82.2585 198.798 82.2804 199.103 82.4532C199.392 82.6166 199.673 82.8154 199.575 83.2085C199.482 83.5834 199.142 83.5031 198.885 83.4879C196.661 83.3576 194.434 83.3534 192.208 83.3319C191.18 83.3221 190.152 83.2628 189.124 83.2219C189 83.2169 188.869 83.2072 188.753 83.1652C188.529 83.0845 188.315 82.9669 188.311 82.6764C188.307 82.4055 188.517 82.3009 188.716 82.2366C189.409 82.0125 190.119 81.9912 190.735 82.0992Z" fill="#6C727F"/>
<path d="M193.665 88.4716C191.881 88.4392 190.533 88.6507 189.206 88.343C188.849 88.2603 188.244 88.3404 188.275 87.7999C188.303 87.2909 188.907 87.5833 189.223 87.4229C189.276 87.3959 189.347 87.3996 189.409 87.4006C192.489 87.4546 195.568 87.0503 198.648 87.3739C199.02 87.4129 199.622 87.3309 199.621 87.822C199.62 88.2753 199.016 88.1399 198.675 88.1923C196.867 88.4704 195.049 88.5953 193.665 88.4716Z" fill="#6C727F"/>
<path d="M194.653 84.8782C196.033 84.8492 197.714 84.8303 199.346 85.3552C199.545 85.4189 199.745 85.4933 199.923 85.5998C200.055 85.6779 200.116 85.8359 200.065 86.0016C200.022 86.1453 199.897 86.1922 199.768 86.2016C199.58 86.2152 199.389 86.2316 199.202 86.2163C196.706 86.0133 194.206 86.1672 191.708 86.1393C191.003 86.1315 190.333 85.9999 189.672 85.7763C189.483 85.7123 189.211 85.6946 189.219 85.4063C189.228 85.0978 189.507 85.1303 189.7 85.1058C191.245 84.9102 192.797 84.8753 194.653 84.8782Z" fill="#6C727F"/>
<path d="M191.869 91.0878C191.889 90.3637 191.917 89.8171 192.174 89.3224C192.309 89.0627 192.506 88.8435 192.816 88.8849C193.171 88.9324 193.109 89.2729 193.127 89.5109C193.189 90.3194 193.12 91.1228 192.931 91.9095C192.864 92.1878 192.738 92.4858 192.418 92.4945C192.049 92.5045 192.033 92.1507 191.981 91.8827C191.918 91.5639 191.889 91.2382 191.869 91.0878Z" fill="#6C727F"/>
<path d="M148.941 6.5095C147.258 6.40664 145.265 6.57978 143.27 6.61321C142.642 6.62364 142.012 6.54064 141.385 6.47993C141.103 6.45264 140.806 6.34535 140.807 5.99378C140.808 5.61692 141.134 5.57421 141.407 5.55907C142.435 5.50221 143.464 5.55093 144.493 5.44993C147.261 5.17807 150.032 5.15721 152.797 5.51535C153.129 5.5585 153.46 5.63435 153.786 5.7175C153.986 5.76878 154.227 5.83264 154.216 6.1145C154.206 6.37678 153.966 6.38578 153.789 6.41393C153.479 6.46335 153.164 6.50292 152.851 6.50564C151.653 6.51564 150.455 6.5095 148.941 6.5095Z" fill="#6C727F"/>
<path d="M147.838 9.05163C149.053 8.94806 150.267 8.96406 151.471 9.1712C151.691 9.2092 151.984 9.20063 151.982 9.53078C151.981 9.87863 151.693 9.92177 151.437 9.93992C149.197 10.0993 146.96 10.1192 144.732 9.76478C144.608 9.74506 144.486 9.71163 144.366 9.67277C144.18 9.61234 143.989 9.53478 144.045 9.27478C144.092 9.05749 144.274 9.05135 144.448 9.05149C145.578 9.05177 146.708 9.05163 147.838 9.05163Z" fill="#6C727F"/>
<path d="M26.156 184.785C26.48 184.806 26.656 185.003 26.8333 185.186C29.1593 187.589 31.3929 190.085 33.6318 192.575C34.5353 193.58 35.4268 194.597 36.324 195.608C36.4381 195.737 36.5639 195.855 36.6674 195.993C36.8623 196.251 37.1405 196.576 36.8926 196.861C36.6012 197.197 36.3783 196.766 36.1748 196.599C35.1155 195.729 34.215 194.681 33.2954 193.664C30.9784 191.1 28.752 188.447 26.3703 185.945C26.2083 185.775 26.0591 185.589 25.9246 185.394C25.6726 185.029 25.9278 184.901 26.156 184.785Z" fill="#6C727F"/>
<path d="M88.916 29.1547C88.9979 24.5739 92.2767 21.9014 96.7044 23.1646C98.3037 23.6209 99.6433 24.5201 100.56 26.0341C101.686 27.895 101.659 30.1436 100.47 31.9621C99.3496 33.6761 97.7587 34.777 95.9797 35.5406C94.0524 36.3679 92.0908 35.6736 90.6079 33.7926C89.5052 32.3938 88.9486 30.7668 88.916 29.1547ZM94.4898 34.4933C95.6403 34.6244 96.6179 34.1798 97.5405 33.5837C99.6997 32.1884 100.766 29.4464 99.8103 27.3076C98.881 25.2284 97.1313 24.2646 94.9632 24.0789C93.0675 23.9164 91.428 24.8074 90.6616 26.6129C89.7744 28.7029 90.1491 30.7156 91.2407 32.6316C91.9816 33.9316 93.0178 34.649 94.4898 34.4933Z" fill="#6C727F"/>
<path d="M28.9728 222.455V237H26.9558L19.5623 226.332H19.4274V237H17.2328V222.455H19.264L26.6646 233.136H26.7995V222.455H28.9728ZM36.5989 237.22C35.5762 237.22 34.6837 236.986 33.9213 236.517C33.159 236.048 32.5672 235.393 32.1458 234.55C31.7244 233.707 31.5137 232.722 31.5137 231.595C31.5137 230.464 31.7244 229.474 32.1458 228.626C32.5672 227.779 33.159 227.121 33.9213 226.652C34.6837 226.183 35.5762 225.949 36.5989 225.949C37.6216 225.949 38.5141 226.183 39.2765 226.652C40.0388 227.121 40.6306 227.779 41.052 228.626C41.4734 229.474 41.6841 230.464 41.6841 231.595C41.6841 232.722 41.4734 233.707 41.052 234.55C40.6306 235.393 40.0388 236.048 39.2765 236.517C38.5141 236.986 37.6216 237.22 36.5989 237.22ZM36.606 235.438C37.2689 235.438 37.8181 235.262 38.2537 234.912C38.6893 234.562 39.0113 234.095 39.2196 233.513C39.4327 232.93 39.5392 232.289 39.5392 231.588C39.5392 230.892 39.4327 230.253 39.2196 229.67C39.0113 229.083 38.6893 228.612 38.2537 228.257C37.8181 227.902 37.2689 227.724 36.606 227.724C35.9384 227.724 35.3844 227.902 34.9441 228.257C34.5085 228.612 34.1841 229.083 33.9711 229.67C33.7627 230.253 33.6586 230.892 33.6586 231.588C33.6586 232.289 33.7627 232.93 33.9711 233.513C34.1841 234.095 34.5085 234.562 34.9441 234.912C35.3844 235.262 35.9384 235.438 36.606 235.438ZM61.258 222.455V237H59.2409L51.8475 226.332H51.7125V237H49.5179V222.455H51.5492L58.9498 233.136H59.0847V222.455H61.258ZM68.9906 237.22C67.9158 237.22 66.9901 236.991 66.2136 236.531C65.4418 236.067 64.8452 235.416 64.4238 234.578C64.0072 233.735 63.7988 232.748 63.7988 231.616C63.7988 230.499 64.0072 229.514 64.4238 228.662C64.8452 227.81 65.4324 227.144 66.1852 226.666C66.9428 226.188 67.8282 225.949 68.8414 225.949C69.457 225.949 70.0536 226.051 70.6312 226.254C71.2089 226.458 71.7273 226.777 72.1866 227.213C72.6459 227.649 73.0081 228.214 73.2733 228.911C73.5384 229.602 73.671 230.442 73.671 231.432V232.185H64.9991V230.594H71.59C71.59 230.035 71.4764 229.54 71.2491 229.109C71.0218 228.674 70.7022 228.33 70.2903 228.08C69.8831 227.829 69.4049 227.703 68.8556 227.703C68.2591 227.703 67.7382 227.85 67.2931 228.143C66.8528 228.432 66.5119 228.811 66.2704 229.28C66.0337 229.744 65.9153 230.248 65.9153 230.793V232.036C65.9153 232.765 66.0431 233.385 66.2988 233.896C66.5592 234.408 66.9215 234.798 67.3855 235.068C67.8495 235.333 68.3916 235.466 69.0119 235.466C69.4144 235.466 69.7813 235.409 70.1127 235.295C70.4442 235.177 70.7306 235.002 70.9721 234.77C71.2136 234.538 71.3983 234.251 71.5261 233.911L73.536 234.273C73.3751 234.865 73.0862 235.383 72.6696 235.828C72.2576 236.268 71.7392 236.612 71.1142 236.858C70.4939 237.099 69.786 237.22 68.9906 237.22ZM78.3727 237L75.1625 226.091H77.3571L79.4949 234.102H79.6014L81.7463 226.091H83.9409L86.0716 234.067H86.1781L88.3017 226.091H90.4963L87.2931 237H85.127L82.911 229.124H82.7477L80.5318 237H78.3727ZM109.715 222.455V237H107.698L100.305 226.332H100.17V237H97.975V222.455H100.006L107.407 233.136H107.542V222.455H109.715ZM117.341 237.22C116.318 237.22 115.426 236.986 114.664 236.517C113.901 236.048 113.309 235.393 112.888 234.55C112.467 233.707 112.256 232.722 112.256 231.595C112.256 230.464 112.467 229.474 112.888 228.626C113.309 227.779 113.901 227.121 114.664 226.652C115.426 226.183 116.318 225.949 117.341 225.949C118.364 225.949 119.256 226.183 120.019 226.652C120.781 227.121 121.373 227.779 121.794 228.626C122.216 229.474 122.426 230.464 122.426 231.595C122.426 232.722 122.216 233.707 121.794 234.55C121.373 235.393 120.781 236.048 120.019 236.517C119.256 236.986 118.364 237.22 117.341 237.22ZM117.348 235.438C118.011 235.438 118.56 235.262 118.996 234.912C119.432 234.562 119.753 234.095 119.962 233.513C120.175 232.93 120.281 232.289 120.281 231.588C120.281 230.892 120.175 230.253 119.962 229.67C119.753 229.083 119.432 228.612 118.996 228.257C118.56 227.902 118.011 227.724 117.348 227.724C116.681 227.724 116.127 227.902 115.686 228.257C115.251 228.612 114.926 229.083 114.713 229.67C114.505 230.253 114.401 230.892 114.401 231.588C114.401 232.289 114.505 232.93 114.713 233.513C114.926 234.095 115.251 234.562 115.686 234.912C116.127 235.262 116.681 235.438 117.348 235.438ZM129.889 226.091V227.795H123.93V226.091H129.889ZM125.528 223.477H127.652V233.797C127.652 234.209 127.713 234.519 127.836 234.727C127.96 234.931 128.118 235.071 128.312 235.146C128.511 235.217 128.727 235.253 128.959 235.253C129.129 235.253 129.278 235.241 129.406 235.217C129.534 235.194 129.633 235.175 129.704 235.161L130.088 236.915C129.965 236.962 129.79 237.009 129.562 237.057C129.335 237.109 129.051 237.137 128.71 237.142C128.151 237.152 127.631 237.052 127.148 236.844C126.665 236.635 126.274 236.313 125.976 235.878C125.677 235.442 125.528 234.895 125.528 234.237V223.477ZM132.238 237V226.091H134.362V237H132.238ZM133.311 224.408C132.941 224.408 132.624 224.285 132.359 224.038C132.098 223.787 131.968 223.489 131.968 223.143C131.968 222.793 132.098 222.495 132.359 222.249C132.624 221.998 132.941 221.872 133.311 221.872C133.68 221.872 133.995 221.998 134.255 222.249C134.52 222.495 134.653 222.793 134.653 223.143C134.653 223.489 134.52 223.787 134.255 224.038C133.995 224.285 133.68 224.408 133.311 224.408ZM142.41 226.091V227.795H136.246V226.091H142.41ZM137.936 237V224.827C137.936 224.145 138.085 223.579 138.383 223.129C138.682 222.675 139.077 222.336 139.569 222.114C140.062 221.886 140.597 221.773 141.175 221.773C141.601 221.773 141.965 221.808 142.268 221.879C142.571 221.946 142.796 222.007 142.943 222.064L142.446 223.783C142.346 223.754 142.219 223.721 142.062 223.683C141.906 223.641 141.717 223.619 141.494 223.619C140.978 223.619 140.609 223.747 140.386 224.003C140.168 224.259 140.059 224.628 140.059 225.111V237H137.936ZM144.601 237V226.091H146.725V237H144.601ZM145.674 224.408C145.305 224.408 144.987 224.285 144.722 224.038C144.462 223.787 144.331 223.489 144.331 223.143C144.331 222.793 144.462 222.495 144.722 222.249C144.987 221.998 145.305 221.872 145.674 221.872C146.043 221.872 146.358 221.998 146.618 222.249C146.884 222.495 147.016 222.793 147.016 223.143C147.016 223.489 146.884 223.787 146.618 224.038C146.358 224.285 146.043 224.408 145.674 224.408ZM154.177 237.22C153.121 237.22 152.212 236.981 151.45 236.503C150.692 236.02 150.11 235.355 149.703 234.507C149.295 233.66 149.092 232.689 149.092 231.595C149.092 230.487 149.3 229.509 149.717 228.662C150.133 227.81 150.721 227.144 151.478 226.666C152.236 226.188 153.128 225.949 154.156 225.949C154.984 225.949 155.723 226.103 156.372 226.411C157.02 226.714 157.544 227.14 157.941 227.689C158.344 228.238 158.583 228.88 158.659 229.614H156.592C156.478 229.102 156.218 228.662 155.811 228.293C155.408 227.923 154.868 227.739 154.191 227.739C153.599 227.739 153.081 227.895 152.636 228.207C152.195 228.515 151.852 228.955 151.606 229.528C151.36 230.097 151.237 230.769 151.237 231.545C151.237 232.341 151.357 233.027 151.599 233.605C151.84 234.183 152.181 234.63 152.622 234.947C153.067 235.265 153.59 235.423 154.191 235.423C154.594 235.423 154.958 235.35 155.285 235.203C155.616 235.052 155.893 234.836 156.116 234.557C156.343 234.277 156.502 233.941 156.592 233.548H158.659C158.583 234.254 158.353 234.884 157.97 235.438C157.586 235.991 157.072 236.427 156.428 236.744C155.789 237.062 155.039 237.22 154.177 237.22ZM164.104 237.241C163.413 237.241 162.788 237.114 162.229 236.858C161.671 236.598 161.228 236.221 160.901 235.729C160.579 235.236 160.418 234.633 160.418 233.918C160.418 233.302 160.537 232.795 160.773 232.398C161.01 232 161.33 231.685 161.732 231.453C162.135 231.221 162.584 231.046 163.081 230.928C163.579 230.809 164.085 230.719 164.601 230.658C165.255 230.582 165.785 230.52 166.192 230.473C166.599 230.421 166.895 230.338 167.08 230.224C167.265 230.111 167.357 229.926 167.357 229.67V229.621C167.357 229 167.182 228.52 166.831 228.179C166.486 227.838 165.97 227.668 165.283 227.668C164.568 227.668 164.005 227.826 163.593 228.143C163.186 228.456 162.904 228.804 162.748 229.188L160.752 228.733C160.989 228.07 161.334 227.535 161.789 227.128C162.248 226.716 162.776 226.418 163.373 226.233C163.969 226.044 164.597 225.949 165.255 225.949C165.69 225.949 166.152 226.001 166.64 226.105C167.132 226.205 167.591 226.389 168.018 226.659C168.448 226.929 168.801 227.315 169.076 227.817C169.35 228.314 169.488 228.96 169.488 229.756V237H167.414V235.509H167.329C167.191 235.783 166.985 236.053 166.711 236.318C166.436 236.583 166.083 236.804 165.653 236.979C165.222 237.154 164.706 237.241 164.104 237.241ZM164.566 235.537C165.153 235.537 165.655 235.421 166.072 235.189C166.493 234.957 166.813 234.654 167.03 234.28C167.253 233.901 167.364 233.496 167.364 233.065V231.659C167.288 231.735 167.142 231.806 166.924 231.872C166.711 231.934 166.467 231.988 166.192 232.036C165.918 232.078 165.65 232.118 165.39 232.156C165.129 232.189 164.912 232.218 164.736 232.241C164.324 232.294 163.948 232.381 163.607 232.504C163.271 232.627 163.001 232.805 162.797 233.037C162.599 233.264 162.499 233.567 162.499 233.946C162.499 234.472 162.693 234.869 163.081 235.139C163.47 235.404 163.965 235.537 164.566 235.537ZM177.409 226.091V227.795H171.45V226.091H177.409ZM173.048 223.477H175.171V233.797C175.171 234.209 175.233 234.519 175.356 234.727C175.479 234.931 175.638 235.071 175.832 235.146C176.031 235.217 176.246 235.253 176.478 235.253C176.649 235.253 176.798 235.241 176.926 235.217C177.053 235.194 177.153 235.175 177.224 235.161L177.607 236.915C177.484 236.962 177.309 237.009 177.082 237.057C176.855 237.109 176.57 237.137 176.23 237.142C175.671 237.152 175.15 237.052 174.667 236.844C174.184 236.635 173.794 236.313 173.495 235.878C173.197 235.442 173.048 234.895 173.048 234.237V223.477ZM179.758 237V226.091H181.881V237H179.758ZM180.83 224.408C180.461 224.408 180.144 224.285 179.878 224.038C179.618 223.787 179.488 223.489 179.488 223.143C179.488 222.793 179.618 222.495 179.878 222.249C180.144 221.998 180.461 221.872 180.83 221.872C181.199 221.872 181.514 221.998 181.775 222.249C182.04 222.495 182.172 222.793 182.172 223.143C182.172 223.489 182.04 223.787 181.775 224.038C181.514 224.285 181.199 224.408 180.83 224.408ZM189.333 237.22C188.311 237.22 187.418 236.986 186.656 236.517C185.893 236.048 185.302 235.393 184.88 234.55C184.459 233.707 184.248 232.722 184.248 231.595C184.248 230.464 184.459 229.474 184.88 228.626C185.302 227.779 185.893 227.121 186.656 226.652C187.418 226.183 188.311 225.949 189.333 225.949C190.356 225.949 191.249 226.183 192.011 226.652C192.773 227.121 193.365 227.779 193.786 228.626C194.208 229.474 194.419 230.464 194.419 231.595C194.419 232.722 194.208 233.707 193.786 234.55C193.365 235.393 192.773 236.048 192.011 236.517C191.249 236.986 190.356 237.22 189.333 237.22ZM189.34 235.438C190.003 235.438 190.552 235.262 190.988 234.912C191.424 234.562 191.746 234.095 191.954 233.513C192.167 232.93 192.274 232.289 192.274 231.588C192.274 230.892 192.167 230.253 191.954 229.67C191.746 229.083 191.424 228.612 190.988 228.257C190.552 227.902 190.003 227.724 189.34 227.724C188.673 227.724 188.119 227.902 187.678 228.257C187.243 228.612 186.919 229.083 186.705 229.67C186.497 230.253 186.393 230.892 186.393 231.588C186.393 232.289 186.497 232.93 186.705 233.513C186.919 234.095 187.243 234.562 187.678 234.912C188.119 235.262 188.673 235.438 189.34 235.438ZM198.912 230.523V237H196.789V226.091H198.827V227.866H198.962C199.213 227.289 199.606 226.825 200.141 226.474C200.681 226.124 201.36 225.949 202.18 225.949C202.923 225.949 203.574 226.105 204.133 226.418C204.691 226.725 205.125 227.185 205.432 227.795C205.74 228.406 205.894 229.161 205.894 230.061V237H203.77V230.317C203.77 229.526 203.564 228.908 203.153 228.463C202.741 228.013 202.175 227.788 201.455 227.788C200.963 227.788 200.525 227.895 200.141 228.108C199.762 228.321 199.462 228.634 199.239 229.045C199.021 229.453 198.912 229.945 198.912 230.523ZM216.713 222.455L216.528 232.817H214.561L214.376 222.455H216.713ZM215.548 237.135C215.155 237.135 214.819 236.998 214.539 236.723C214.26 236.444 214.123 236.107 214.127 235.714C214.123 235.326 214.26 234.995 214.539 234.72C214.819 234.441 215.155 234.301 215.548 234.301C215.931 234.301 216.263 234.441 216.542 234.72C216.821 234.995 216.963 235.326 216.968 235.714C216.963 235.975 216.895 236.214 216.762 236.432C216.634 236.645 216.464 236.815 216.251 236.943C216.038 237.071 215.803 237.135 215.548 237.135ZM222.591 222.455L222.407 232.817H220.439L220.255 222.455H222.591ZM221.427 237.135C221.034 237.135 220.698 236.998 220.418 236.723C220.139 236.444 220.001 236.107 220.006 235.714C220.001 235.326 220.139 234.995 220.418 234.72C220.698 234.441 221.034 234.301 221.427 234.301C221.81 234.301 222.142 234.441 222.421 234.72C222.7 234.995 222.842 235.326 222.847 235.714C222.842 235.975 222.774 236.214 222.641 236.432C222.513 236.645 222.343 236.815 222.13 236.943C221.917 237.071 221.682 237.135 221.427 237.135Z" fill="#6C727F"/>
</svg>
