<svg width="240" height="222" viewBox="0 0 240 222" fill="none" xmlns="http://www.w3.org/2000/svg">
<g clip-path="url(#clip0_1005_3177)">
<path d="M59.3432 154.736C60.0166 155.36 61.2368 155.775 62.4826 155.367C63.7154 155.003 64.8338 153.701 64.8184 152.148C64.8338 150.596 63.7154 149.294 62.4826 148.93C61.2368 148.522 60.0166 148.937 59.3432 149.561C58.6445 150.187 58.42 150.939 58.4036 151.416C58.3875 151.906 58.5244 152.151 58.6271 152.148C58.8703 152.178 58.9631 151.127 60.0394 150.482C60.5502 150.174 61.2982 150.055 61.9733 150.345C62.6447 150.618 63.192 151.332 63.1859 152.148C63.192 152.965 62.6447 153.679 61.9733 153.952C61.2982 154.242 60.5502 154.123 60.0394 153.815C58.9631 153.169 58.8703 152.119 58.6271 152.148C58.5244 152.146 58.3875 152.391 58.4036 152.881C58.4201 153.358 58.6445 154.11 59.3432 154.736Z" fill="#6C727F"/>
<path d="M180.015 89.6452C180.688 90.2698 181.909 90.6847 183.155 90.277C184.387 89.9125 185.506 88.6103 185.49 87.0581C185.506 85.5058 184.387 84.2037 183.155 83.8392C181.909 83.4316 180.689 83.8465 180.015 84.4709C179.316 85.0969 179.092 85.8486 179.076 86.3258C179.059 86.8157 179.196 87.0604 179.299 87.0581C179.542 87.0872 179.635 86.0372 180.711 85.3917C181.222 85.0833 181.97 84.9642 182.645 85.2544C183.317 85.5273 183.864 86.2413 183.858 87.0581C183.864 87.8748 183.317 88.5889 182.645 88.8617C181.97 89.152 181.222 89.0328 180.711 88.7246C179.635 88.079 179.542 87.029 179.299 87.0581C179.196 87.0558 179.059 87.3004 179.076 87.7905C179.092 88.2676 179.316 89.0192 180.015 89.6452Z" fill="#6C727F"/>
<path d="M163.897 29.7042C163.472 29.553 161.915 32.8333 160.419 37.0312C158.923 41.2292 158.054 44.7548 158.479 44.9062C158.903 45.0575 160.46 41.7772 161.957 37.5792C163.453 33.3814 164.322 29.8555 163.897 29.7042Z" fill="#6C727F"/>
<path d="M165.226 43.6032C167.356 41.8562 168.85 40.1575 168.564 39.809C168.278 39.4605 166.32 40.5943 164.191 42.3413C162.062 44.0881 160.568 45.7869 160.853 46.1354C161.139 46.4839 163.097 45.3502 165.226 43.6032Z" fill="#6C727F"/>
<path d="M164.475 49.9741C164.684 50.3736 168.043 49.0299 171.978 46.973C175.913 44.916 178.934 42.9245 178.725 42.5251C178.517 42.1256 175.157 43.4693 171.222 45.5262C167.287 47.5832 164.266 49.5745 164.475 49.9741Z" fill="#6C727F"/>
<path d="M54.5293 56.6574C54.4277 57.5698 54.7426 58.5551 54.9982 59.5106C59.4821 76.2318 66.0076 99.0181 70.8454 115.705C75.951 133.315 80.6611 149.233 84.1488 160.732C85.9096 166.416 87.3425 171.041 88.3603 174.327C88.5459 175.161 89.1119 175.939 89.7352 176.254C90.3502 176.623 90.9974 176.618 91.4142 176.619C91.9165 176.627 92.2679 176.623 92.493 176.609C92.5 176.628 92.5121 176.647 92.5121 176.667C97.3115 175.372 101.095 174.33 103.736 173.619C104.955 173.264 105.894 172.985 106.58 172.781C107.215 172.604 107.545 172.477 107.545 172.451C107.519 172.401 107.189 172.451 106.529 172.578C105.818 172.731 104.879 172.959 103.634 173.213C101.146 173.797 97.5907 174.66 93.0453 175.727C90.2267 165.621 86.0875 150.892 81.1106 133.092C77.5793 120.671 64.5371 74.8862 58.1043 52.646C64.7828 50.8939 71.258 49.1925 77.5047 47.5673C76.6947 49.3224 76.3113 51.2329 76.3113 52.5699C74.5429 53.0751 72.1165 53.7717 69.9884 54.4489C69.5566 54.5759 69.3027 54.6774 69.2519 54.7282C69.3282 54.7282 69.5821 54.6773 70.0391 54.5759C71.9813 54.1346 72.0997 54.0733 76.2859 53.0269C76.2859 55.0072 76.7011 56.2451 76.8193 56.9375C76.7905 57.1965 75.9512 57.2529 107.545 48.8625C113.563 47.1864 118.439 45.8153 121.918 44.8503C125.016 43.9615 126.844 43.3774 127.098 43.1744H127.123C127.174 43.149 126.971 42.5903 126.412 41.6253C126.133 41.1936 125.803 40.6351 125.346 40.0509C129.358 38.9844 133.548 37.8671 137.915 36.6991C138.906 36.3435 139.642 36.5465 140.201 37.1814C141.105 38.2454 146.768 66.3487 157.214 89.3901C160.26 96.0481 165.284 105.964 171.561 109.73C175.914 112.291 178.875 110.779 179.129 110.771H179.154C178.461 111.511 166.014 130.371 142.131 144.163C137.027 147.134 131.821 149.724 126.565 151.883C123.949 153 121.334 153.99 118.693 154.879C117.347 155.362 116.204 155.793 114.985 155.616C113.766 155.514 112.598 154.981 111.71 154.168C104.955 145.966 99.089 137.205 94.1881 128.927C89.2619 120.598 85.2498 112.523 81.9994 104.956C75.4987 89.8218 71.9436 76.922 69.8361 67.9583C68.7949 63.4636 68.1093 59.9593 67.6521 57.5723C67.3729 56.4042 67.9823 55.5663 68.4395 55.2108C68.8965 54.8299 69.2267 54.7791 69.2267 54.7283C69.2267 54.7283 68.8711 54.7283 68.3378 55.0839C67.8299 55.414 67.0681 56.3281 67.3222 57.6232C67.6776 60.0354 68.287 63.5651 69.2267 68.0852C71.1311 77.1252 74.5338 90.1519 80.9329 105.413C87.4082 120.674 96.7529 138.094 110.694 155.285C111.811 156.301 113.284 156.987 114.833 157.139C116.382 157.368 117.956 156.784 119.201 156.327C121.867 155.438 124.533 154.448 127.174 153.33C132.481 151.146 137.763 148.556 142.918 145.56C148.555 142.31 154.015 138.526 159.22 134.234C159.246 134.209 159.271 134.184 159.297 134.158C163.817 131.035 167.905 128.013 171.435 125.144C172.146 127.607 172.907 130.121 173.644 132.66C174.406 135.275 175.193 137.866 175.929 140.405C176.31 141.7 176.691 142.97 177.072 144.214L177.605 146.068C177.732 146.576 177.758 147.109 177.656 147.617C177.427 148.632 176.716 149.496 175.777 149.902C174.609 150.283 173.441 150.664 172.298 151.045C169.936 151.807 167.626 152.543 165.366 153.279C156.376 156.2 148.276 158.841 141.445 161.075C134.691 163.31 129.206 165.163 125.346 166.459C123.517 167.093 122.07 167.627 121.003 167.982C120.166 168.312 119.683 168.515 119.556 168.642C119.708 168.642 120.242 168.541 121.105 168.312C122.172 168.007 123.67 167.576 125.549 167.043C129.434 165.875 134.97 164.224 141.801 162.167C148.657 160.034 156.783 157.52 165.823 154.701C168.083 153.99 170.393 153.279 172.755 152.543C173.974 152.137 175.066 151.832 176.412 151.35C177.808 150.766 178.9 149.471 179.205 147.947C179.383 147.21 179.357 146.398 179.154 145.662L178.621 143.757C178.24 142.513 177.859 141.243 177.503 139.948C176.742 137.409 175.98 134.819 175.218 132.203C174.406 129.435 173.593 126.743 172.806 124.052V124.026C175.908 121.589 181.771 116.342 183.369 112.447C184.004 110.974 183.674 109.451 183.014 108.892C182.658 108.562 182.354 108.384 182.176 108.333L182.15 108.308C182.1 108.232 182.049 108.206 181.998 108.156L181.389 107.622C180.14 108.59 179.529 108.892 178.342 109.324C178.077 109.233 173.61 112.091 166.381 102.468C166.381 102.468 166.381 102.442 166.356 102.442C163.664 93.4785 161.227 85.378 159.144 78.5727C154.605 64.1427 154.821 64.5349 152.644 58.0041C152.288 57.0139 152.085 56.5059 152.034 56.5059C151.983 56.5313 152.085 57.0645 152.313 58.1057C153.994 64.5238 152.812 60.1271 158.027 78.9028C159.627 84.5655 161.531 91.1422 163.613 98.3539C161.734 95.2306 160.109 91.9802 158.636 88.7553C147.893 65.1683 142.437 37.7173 141.217 36.3691C140.491 35.4303 139.294 34.9521 137.585 35.4548C133.04 36.7245 128.647 37.918 124.482 39.0607C123.193 37.6785 122.008 36.8369 120.953 36.2167C146.854 29.309 137.646 31.7603 140.556 30.9857C142.156 30.5285 143.807 31.3411 144.492 32.56C144.866 33.3726 147.367 41.2982 147.616 42.1077C148.047 43.3774 148.301 44.0122 148.327 44.0122C148.378 43.9869 148.225 43.3013 147.895 42.0062C145.621 33.5592 145.622 33.4256 145.102 32.2299C144.314 30.7062 142.334 29.6397 140.353 30.173C130.565 32.6199 132.433 32.0921 119.505 35.404C113.374 32.4213 107.571 34.4136 107.317 34.4136C107.389 34.6676 108.358 30.5145 105.539 26.9734C103.584 24.4847 100.181 23.0121 96.7276 23.3929C91.0757 23.9372 86.7207 29.481 88.4748 35.3023C89.0574 37.0501 89.7975 38.0091 90.684 38.9844C90.684 38.9844 90.7094 38.9844 90.7094 39.0098C90.4005 39.093 85.9369 40.3582 85.0976 40.6604C82.3805 41.5999 80.0951 43.4536 78.5461 45.7897C71.3852 47.6181 63.8687 49.5226 56.1239 51.4778C56.2508 51.9096 56.3525 52.3158 56.4794 52.7475C56.4809 52.7513 56.4817 52.7552 56.4833 52.7591C56.4023 52.8626 56.3229 52.9639 56.2271 53.09C55.7583 53.7781 54.6623 54.8056 54.5293 56.6574ZM182.506 108.816C186.32 112.638 172.838 122.461 168.438 125.855C176.863 117.429 182.132 109.304 182.506 108.816ZM77.9364 52.1127C77.911 52.062 77.9364 51.9857 77.9364 51.9351C78.2975 47.8425 81.2483 43.7424 85.6559 42.2094C86.5675 41.8621 86.632 41.8819 94.1119 39.6955C92.447 38.3873 90.7689 37.3058 90.0236 34.8199C88.5309 30.1063 92.1045 25.3921 96.9051 24.8913C101.761 24.3001 106.448 27.8912 106.224 33.2456C106.142 34.4877 105.829 35.0129 105.463 36.2167C107.15 35.8094 112.407 33.5843 118.032 35.7849C124.118 37.814 126.792 42.9263 127.047 43.149C126.666 43.149 124.838 43.5298 121.74 44.2409C118.261 45.0789 113.309 46.2723 107.24 47.7451C84.0625 53.6116 104.545 48.3769 78.0887 55.1092C78.0633 55.1092 78.0633 55.1092 78.0633 55.0583C77.9331 54.2506 77.7953 53.0998 77.9364 52.1127ZM56.5001 53.2731C56.5377 53.2092 56.5635 53.1624 56.5976 53.1033C56.6007 53.1117 56.6025 53.1201 56.6059 53.1285C60.8312 68.0089 60.6561 67.3417 79.7645 133.473C85.0691 151.366 89.435 166.214 92.4311 176.447C92.2073 176.403 91.8753 176.351 91.4392 176.291C90.5943 176.276 89.2346 175.802 88.9705 174.15C88.0731 170.829 86.8098 166.155 85.2573 160.411C82.0533 148.829 77.5187 132.861 72.4131 115.25C55.7833 57.8905 55.075 58.2617 55.164 56.6877C55.1707 55.0804 56.086 54.0535 56.5001 53.2731Z" fill="#6C727F"/>
<path d="M100.104 35.5013C101.654 34.2203 101.479 32.3395 101.172 32.3485C100.921 32.3034 100.879 33.6773 99.4307 34.5637C98.7436 34.9856 97.7148 35.1654 96.7577 34.7928C95.8067 34.4449 95.0014 33.4741 95.0095 32.3485C94.9946 30.2608 97.5333 28.9687 99.4307 30.1332C100.879 31.0197 100.921 32.3937 101.172 32.3485C101.272 32.3516 101.417 32.0391 101.366 31.4323C101.202 29.4243 98.7877 27.6935 96.2715 28.4809C94.7869 28.899 93.3636 30.4373 93.3771 32.3485C93.3527 35.7935 97.5837 37.6485 100.104 35.5013Z" fill="#6C727F"/>
<path d="M85.8225 67.8661C85.3961 68.0122 89.1028 79.9482 94.1016 94.5258C96.0952 100.34 97.9881 105.678 99.5767 110.007C94.5582 111.875 91.4916 113.133 91.5628 113.341C91.6339 113.55 94.8389 112.667 99.9677 111.071C102.156 116.992 103.683 120.739 103.925 120.656C104.167 120.573 103.077 116.692 101.178 110.692C106.427 109.042 113.389 106.753 121.033 104.144C137.163 98.6374 150.121 93.8278 149.976 93.4011C149.83 92.9746 136.636 97.0924 120.505 102.599C112.873 105.204 105.973 107.647 100.814 109.55C99.4126 105.162 97.6349 99.7968 95.6458 93.9964C90.6469 79.4187 86.2489 67.7198 85.8225 67.8661Z" fill="#6C727F"/>
<path d="M100.421 72.1872C99.5359 72.2766 98.9547 72.6218 98.3575 72.8149L96.5127 73.5135C94.7598 74.1547 93.4327 76.2569 94.3041 78.5833C96.8754 85.3373 101.214 96.3536 103.334 101.573C103.599 102.247 103.919 103.117 104.545 103.636C105.741 104.734 107.33 104.689 108.254 104.233C110.033 103.454 110.998 102.973 110.958 102.868C110.918 102.763 109.877 103.043 108.029 103.639C107.209 103.941 106.013 103.847 105.178 102.978C104.743 102.565 104.572 101.987 104.305 101.205C102.197 95.2287 98.3141 84.6285 95.8183 78.0091C95.3233 76.6052 96.061 75.4175 97.0917 75.0398C97.6205 74.8295 100.257 73.8154 100.573 73.8041C101.521 73.6949 102.475 74.2731 102.838 75.1211C105.292 81.4465 108.936 90.8433 112.411 99.2085C112.598 99.6925 112.609 100.185 112.544 100.613C112.155 102.396 110.83 102.745 110.958 102.868C110.973 102.911 111.262 102.896 111.737 102.634C112.91 101.989 113.576 100.41 113.153 98.9726C110.954 92.4076 107.096 81.9643 104.3 74.4743C103.688 73.0128 102.064 72.0103 100.421 72.1872Z" fill="#6C727F"/>
<path d="M129.828 93.1692C130.653 94.181 131.871 94.5578 132.848 94.4654C133.881 94.3548 134.487 93.8936 135.043 93.6798C136.14 93.1595 136.727 92.8219 136.687 92.7165C136.647 92.6113 135.984 92.748 134.818 93.0857C134.227 93.2221 133.513 93.5752 132.811 93.5534C132.085 93.5469 131.253 93.1922 130.744 92.467C130.494 92.1325 130.367 91.658 130.156 91.0651C128.59 86.5937 127.778 84.4155 126.631 81.2918C126.186 80.204 126.766 78.7953 127.937 78.3796C128.708 78.0858 129.469 77.7953 130.221 77.5089C131.053 77.1622 131.45 77.0571 132.075 77.167C132.641 77.2753 133.149 77.6056 133.475 78.0544C133.706 78.3506 133.083 76.9311 137.137 86.9202C137.513 87.8912 138.037 88.8842 138.177 89.5279C138.314 90.2504 138.135 90.9186 137.871 91.3892C137.315 92.3458 136.619 92.5891 136.687 92.7165C136.684 92.7894 137.517 92.7914 138.398 91.7438C138.811 91.2261 139.165 90.4044 139.082 89.4095C138.931 88.3546 138.54 87.5816 138.216 86.5109C134.971 77.322 135.188 77.8286 134.745 77.1502C133.722 75.675 131.786 75.0228 129.645 75.9904C128.892 76.2742 128.13 76.562 127.358 76.8532C125.326 77.5674 124.351 80.0387 125.136 81.8589C126.45 85.2153 127.193 87.1438 128.978 91.5117C129.194 92.0147 129.398 92.647 129.828 93.1692Z" fill="#6C727F"/>
<path d="M119.249 74.8713C118.239 74.1887 116.743 74.1458 115.707 74.6275C114.771 74.9813 113.821 75.3401 112.859 75.7031C111.015 76.3947 109.963 78.4728 110.636 80.4352C113.009 86.6449 113.728 88.3755 116.714 95.8295C116.948 96.4031 117.215 97.164 117.746 97.6717C118.248 98.1838 118.868 98.4935 119.471 98.6221C120.733 98.9123 121.72 98.3104 122.347 98.0358C123.722 97.4101 124.463 97.0143 124.423 96.9089C124.383 96.8035 123.566 96.9986 122.122 97.4415C121.372 97.668 120.578 98.0342 119.692 97.7368C118.366 97.3357 118.106 96.3179 117.793 95.4202C115.726 89.6515 114.532 86.2536 112.164 79.9174C111.786 78.7717 112.41 77.6208 113.438 77.2295C114.398 76.8639 115.347 76.5024 116.283 76.1459C117.074 75.7947 117.774 75.8619 118.408 76.2319C119.067 76.6126 119.279 77.1814 119.636 78.1515C121.288 82.3789 123.473 87.861 125.554 92.8442C126.038 93.7753 126.016 94.5528 125.786 95.2121C125.273 96.5046 124.335 96.7826 124.423 96.9089C124.388 96.9782 125.505 96.9677 126.367 95.4691C126.777 94.7656 126.862 93.539 126.407 92.5206C124.655 87.3927 122.636 81.7901 121.094 77.5987C120.849 76.8407 120.359 75.4725 119.249 74.8713Z" fill="#6C727F"/>
<path d="M152.869 108.011C149.486 111.415 147.106 108.855 143.543 109.936C140.299 110.963 138.843 115.3 134.413 117.212C134.413 117.212 134.393 117.224 134.395 117.208C134.345 116.988 134.092 115.884 134.065 115.765C133.825 114.74 133.585 113.708 133.342 112.668C133.245 112.924 131.935 116.731 131.484 117.264C129.865 119.994 126.441 122.112 123.301 121.989C124.751 119.843 124.294 116.806 121.887 116.597C118.382 116.329 117.426 120.976 120.761 122.905C120.052 123.476 112.703 128.923 112.917 129.196C113.154 129.497 121.319 123.984 122.011 123.399C125.388 124.268 130.412 122.269 132.932 118.001L132.938 117.974L132.879 117.681L132.862 117.602L132.854 117.563L132.85 117.544C132.881 117.67 133.27 119.279 133.321 119.398C133.576 119.289 134.538 118.877 134.283 118.987C140.01 116.626 141.01 112.156 143.949 111.119C145.162 110.677 146.537 110.841 147.811 110.852C150.303 110.93 151.787 110.228 153.289 108.397C154.161 107.281 154.493 106.597 154.425 106.543C154.337 106.472 153.834 107.058 152.869 108.011ZM121.932 121.709C120.537 121.158 120.019 119.879 120.264 119.043C120.383 118.444 121.147 117.982 121.779 118.028C122.747 118.054 123.406 119.803 121.932 121.709Z" fill="#6C727F"/>
<path d="M134.063 115.765C134.064 115.77 134.066 115.776 134.067 115.782C134.06 115.749 134.059 115.747 134.063 115.765Z" fill="#6C727F"/>
<path d="M133.668 132.241C132.549 131.894 131.366 133.018 131.692 134.225C130.016 136.374 128.008 137.754 126.459 138.517C124.502 139.476 123.225 139.706 123.258 139.883C123.268 140 124.611 140.057 126.784 139.273C128.572 138.62 130.982 137.243 132.977 134.785C136.282 134.166 139.831 132.655 142.841 130.073C144.886 128.311 145.759 127.002 145.992 126.741L146.063 126.781C146.767 127.164 147.61 127.142 148.303 126.793C149.949 125.965 152.647 122.622 153.763 120.968C153.98 120.643 153.73 120.83 154.796 120.535C159.43 119.264 162.613 116.308 162.361 116.079C162.218 115.887 160.543 117.306 157.257 118.548C154.337 119.617 153.263 119.424 153.069 119.695C151.94 121.199 150.978 122.489 149.053 124.279C148.456 124.827 147.531 125.798 146.833 125.397C146.655 125.372 146.449 124.472 146.167 123.797C144.627 125.881 143.902 127.002 141.783 128.829C139.483 130.803 136.859 132.125 134.297 132.907L134.542 132.512L133.668 132.241Z" fill="#6C727F"/>
<path d="M103.053 45.925C112.52 43.5208 120.104 41.2177 119.993 40.7808C119.882 40.3439 112.118 41.9387 102.652 44.3429C93.1852 46.7469 85.6012 49.0501 85.7121 49.4871C85.8231 49.924 93.5871 48.3292 103.053 45.925Z" fill="#6C727F"/>
<path d="M96.6861 26.7521C96.6725 26.5325 96.0786 26.3519 95.1429 26.5281C94.2288 26.6905 92.9027 27.3099 92.037 28.5975C91.1608 29.8653 91.0475 31.3357 91.2506 32.252C91.4438 33.1928 91.846 33.6647 92.0517 33.5933C92.494 33.4806 91.5519 31.2557 92.8418 29.4304C94.3304 27.3237 96.7658 27.2051 96.6861 26.7521Z" fill="#6C727F"/>
<path d="M115.912 81.5914C115.491 81.7507 116.184 84.6207 117.462 88.0014C118.739 91.3823 120.116 93.9939 120.538 93.8345C120.96 93.6753 120.266 90.8055 118.989 87.4245C117.711 84.0437 116.334 81.4321 115.912 81.5914Z" fill="#6C727F"/>
</g>
<path d="M29.4806 202.455V217H27.4636L20.0701 206.332H19.9352V217H17.7406V202.455H19.7718L27.1724 213.136H27.3074V202.455H29.4806ZM37.1067 217.22C36.084 217.22 35.1915 216.986 34.4292 216.517C33.6668 216.048 33.075 215.393 32.6536 214.55C32.2322 213.707 32.0215 212.722 32.0215 211.595C32.0215 210.464 32.2322 209.474 32.6536 208.626C33.075 207.779 33.6668 207.121 34.4292 206.652C35.1915 206.183 36.084 205.949 37.1067 205.949C38.1294 205.949 39.022 206.183 39.7843 206.652C40.5466 207.121 41.1384 207.779 41.5598 208.626C41.9812 209.474 42.1919 210.464 42.1919 211.595C42.1919 212.722 41.9812 213.707 41.5598 214.55C41.1384 215.393 40.5466 216.048 39.7843 216.517C39.022 216.986 38.1294 217.22 37.1067 217.22ZM37.1138 215.438C37.7767 215.438 38.3259 215.262 38.7615 214.912C39.1971 214.562 39.5191 214.095 39.7275 213.513C39.9405 212.93 40.0471 212.289 40.0471 211.588C40.0471 210.892 39.9405 210.253 39.7275 209.67C39.5191 209.083 39.1971 208.612 38.7615 208.257C38.3259 207.902 37.7767 207.724 37.1138 207.724C36.4462 207.724 35.8922 207.902 35.4519 208.257C35.0163 208.612 34.6919 209.083 34.4789 209.67C34.2705 210.253 34.1664 210.892 34.1664 211.588C34.1664 212.289 34.2705 212.93 34.4789 213.513C34.6919 214.095 35.0163 214.562 35.4519 214.912C35.8922 215.262 36.4462 215.438 37.1138 215.438ZM49.8553 206.091H51.9789V217.71C51.9789 218.439 51.8463 219.055 51.5811 219.557C51.3207 220.059 50.9325 220.44 50.4164 220.7C49.905 220.961 49.2729 221.091 48.5201 221.091C48.4443 221.091 48.3733 221.091 48.307 221.091C48.236 221.091 48.1626 221.089 48.0868 221.084V219.259C48.1531 219.259 48.2123 219.259 48.2644 219.259C48.3117 219.259 48.3662 219.259 48.4277 219.259C48.9296 219.259 49.2918 219.124 49.5144 218.854C49.7417 218.589 49.8553 218.203 49.8553 217.696V206.091ZM50.9064 204.408C50.5371 204.408 50.2199 204.285 49.9547 204.038C49.6943 203.787 49.5641 203.489 49.5641 203.143C49.5641 202.793 49.6943 202.495 49.9547 202.249C50.2199 201.998 50.5371 201.872 50.9064 201.872C51.2757 201.872 51.5906 201.998 51.851 202.249C52.1162 202.495 52.2488 202.793 52.2488 203.143C52.2488 203.489 52.1162 203.787 51.851 204.038C51.5906 204.285 51.2757 204.408 50.9064 204.408ZM59.4309 217.22C58.4082 217.22 57.5157 216.986 56.7534 216.517C55.9911 216.048 55.3992 215.393 54.9778 214.55C54.5564 213.707 54.3457 212.722 54.3457 211.595C54.3457 210.464 54.5564 209.474 54.9778 208.626C55.3992 207.779 55.9911 207.121 56.7534 206.652C57.5157 206.183 58.4082 205.949 59.4309 205.949C60.4537 205.949 61.3462 206.183 62.1085 206.652C62.8708 207.121 63.4627 207.779 63.8841 208.626C64.3055 209.474 64.5162 210.464 64.5162 211.595C64.5162 212.722 64.3055 213.707 63.8841 214.55C63.4627 215.393 62.8708 216.048 62.1085 216.517C61.3462 216.986 60.4537 217.22 59.4309 217.22ZM59.438 215.438C60.1009 215.438 60.6502 215.262 61.0858 214.912C61.5214 214.562 61.8433 214.095 62.0517 213.513C62.2647 212.93 62.3713 212.289 62.3713 211.588C62.3713 210.892 62.2647 210.253 62.0517 209.67C61.8433 209.083 61.5214 208.612 61.0858 208.257C60.6502 207.902 60.1009 207.724 59.438 207.724C58.7704 207.724 58.2164 207.902 57.7761 208.257C57.3405 208.612 57.0162 209.083 56.8031 209.67C56.5948 210.253 56.4906 210.892 56.4906 211.588C56.4906 212.289 56.5948 212.93 56.8031 213.513C57.0162 214.095 57.3405 214.562 57.7761 214.912C58.2164 215.262 58.7704 215.438 59.438 215.438ZM67.057 217V202.455H69.1806V207.859H69.3084C69.4315 207.632 69.6091 207.369 69.8411 207.071C70.0731 206.773 70.3951 206.512 70.807 206.29C71.2189 206.062 71.7634 205.949 72.4405 205.949C73.3212 205.949 74.1072 206.171 74.7985 206.616C75.4898 207.062 76.0319 207.703 76.4249 208.541C76.8226 209.379 77.0215 210.388 77.0215 211.567C77.0215 212.746 76.825 213.757 76.432 214.599C76.039 215.437 75.4992 216.084 74.8127 216.538C74.1261 216.988 73.3425 217.213 72.4618 217.213C71.7989 217.213 71.2568 217.102 70.8354 216.879C70.4187 216.657 70.092 216.396 69.8553 216.098C69.6185 215.8 69.4363 215.535 69.3084 215.303H69.1309V217H67.057ZM69.138 211.545C69.138 212.312 69.2492 212.985 69.4718 213.562C69.6943 214.14 70.0163 214.592 70.4377 214.919C70.8591 215.241 71.3752 215.402 71.986 215.402C72.6204 215.402 73.1507 215.234 73.5769 214.898C74.003 214.557 74.325 214.095 74.5428 213.513C74.7653 212.93 74.8766 212.275 74.8766 211.545C74.8766 210.826 74.7677 210.179 74.5499 209.607C74.3368 209.034 74.0149 208.581 73.584 208.25C73.1578 207.919 72.6252 207.753 71.986 207.753C71.3704 207.753 70.8496 207.911 70.4235 208.229C70.0021 208.546 69.6825 208.989 69.4647 209.557C69.2469 210.125 69.138 210.788 69.138 211.545ZM84.699 217V206.091H86.8226V217H84.699ZM85.7715 204.408C85.4022 204.408 85.0849 204.285 84.8198 204.038C84.5594 203.787 84.4292 203.489 84.4292 203.143C84.4292 202.793 84.5594 202.495 84.8198 202.249C85.0849 201.998 85.4022 201.872 85.7715 201.872C86.1408 201.872 86.4557 201.998 86.7161 202.249C86.9812 202.495 87.1138 202.793 87.1138 203.143C87.1138 203.489 86.9812 203.787 86.7161 204.038C86.4557 204.285 86.1408 204.408 85.7715 204.408ZM91.8031 210.523V217H89.6795V206.091H91.7179V207.866H91.8528C92.1038 207.289 92.4967 206.825 93.0318 206.474C93.5716 206.124 94.251 205.949 95.0701 205.949C95.8135 205.949 96.4645 206.105 97.0233 206.418C97.582 206.725 98.0152 207.185 98.323 207.795C98.6307 208.406 98.7846 209.161 98.7846 210.061V217H96.661V210.317C96.661 209.526 96.4551 208.908 96.0431 208.463C95.6312 208.013 95.0654 207.788 94.3457 207.788C93.8533 207.788 93.4153 207.895 93.0318 208.108C92.653 208.321 92.3523 208.634 92.1298 209.045C91.912 209.453 91.8031 209.945 91.8031 210.523ZM110.574 206.091L106.618 217H104.346L100.383 206.091H102.662L105.425 214.486H105.539L108.295 206.091H110.574ZM112.57 217V206.091H114.694V217H112.57ZM113.643 204.408C113.273 204.408 112.956 204.285 112.691 204.038C112.43 203.787 112.3 203.489 112.3 203.143C112.3 202.793 112.43 202.495 112.691 202.249C112.956 201.998 113.273 201.872 113.643 201.872C114.012 201.872 114.327 201.998 114.587 202.249C114.852 202.495 114.985 202.793 114.985 203.143C114.985 203.489 114.852 203.787 114.587 204.038C114.327 204.285 114.012 204.408 113.643 204.408ZM122.643 206.091V207.795H116.684V206.091H122.643ZM118.282 203.477H120.406V213.797C120.406 214.209 120.467 214.519 120.59 214.727C120.713 214.931 120.872 215.071 121.066 215.146C121.265 215.217 121.481 215.253 121.713 215.253C121.883 215.253 122.032 215.241 122.16 215.217C122.288 215.194 122.387 215.175 122.458 215.161L122.842 216.915C122.719 216.962 122.544 217.009 122.316 217.057C122.089 217.109 121.805 217.137 121.464 217.142C120.905 217.152 120.384 217.052 119.901 216.844C119.419 216.635 119.028 216.313 118.73 215.878C118.431 215.442 118.282 214.895 118.282 214.237V203.477ZM128.167 217.241C127.475 217.241 126.85 217.114 126.292 216.858C125.733 216.598 125.29 216.221 124.964 215.729C124.642 215.236 124.481 214.633 124.481 213.918C124.481 213.302 124.599 212.795 124.836 212.398C125.073 212 125.392 211.685 125.795 211.453C126.197 211.221 126.647 211.046 127.144 210.928C127.641 210.809 128.148 210.719 128.664 210.658C129.317 210.582 129.848 210.52 130.255 210.473C130.662 210.421 130.958 210.338 131.143 210.224C131.327 210.111 131.42 209.926 131.42 209.67V209.621C131.42 209 131.244 208.52 130.894 208.179C130.548 207.838 130.032 207.668 129.346 207.668C128.631 207.668 128.067 207.826 127.655 208.143C127.248 208.456 126.966 208.804 126.81 209.188L124.814 208.733C125.051 208.07 125.397 207.535 125.851 207.128C126.311 206.716 126.839 206.418 127.435 206.233C128.032 206.044 128.659 205.949 129.317 205.949C129.753 205.949 130.215 206.001 130.702 206.105C131.195 206.205 131.654 206.389 132.08 206.659C132.511 206.929 132.864 207.315 133.138 207.817C133.413 208.314 133.55 208.96 133.55 209.756V217H131.476V215.509H131.391C131.254 215.783 131.048 216.053 130.773 216.318C130.499 216.583 130.146 216.804 129.715 216.979C129.284 217.154 128.768 217.241 128.167 217.241ZM128.628 215.537C129.215 215.537 129.717 215.421 130.134 215.189C130.555 214.957 130.875 214.654 131.093 214.28C131.315 213.901 131.427 213.496 131.427 213.065V211.659C131.351 211.735 131.204 211.806 130.986 211.872C130.773 211.934 130.529 211.988 130.255 212.036C129.98 212.078 129.713 212.118 129.452 212.156C129.192 212.189 128.974 212.218 128.799 212.241C128.387 212.294 128.01 212.381 127.67 212.504C127.333 212.627 127.064 212.805 126.86 213.037C126.661 213.264 126.562 213.567 126.562 213.946C126.562 214.472 126.756 214.869 127.144 215.139C127.532 215.404 128.027 215.537 128.628 215.537ZM141.471 206.091V207.795H135.512V206.091H141.471ZM137.11 203.477H139.234V213.797C139.234 214.209 139.295 214.519 139.419 214.727C139.542 214.931 139.7 215.071 139.894 215.146C140.093 215.217 140.309 215.253 140.541 215.253C140.711 215.253 140.86 215.241 140.988 215.217C141.116 215.194 141.215 215.175 141.286 215.161L141.67 216.915C141.547 216.962 141.372 217.009 141.144 217.057C140.917 217.109 140.633 217.137 140.292 217.142C139.733 217.152 139.213 217.052 138.73 216.844C138.247 216.635 137.856 216.313 137.558 215.878C137.259 215.442 137.11 214.895 137.11 214.237V203.477ZM143.82 217V206.091H145.944V217H143.82ZM144.893 204.408C144.523 204.408 144.206 204.285 143.941 204.038C143.68 203.787 143.55 203.489 143.55 203.143C143.55 202.793 143.68 202.495 143.941 202.249C144.206 201.998 144.523 201.872 144.893 201.872C145.262 201.872 145.577 201.998 145.837 202.249C146.102 202.495 146.235 202.793 146.235 203.143C146.235 203.489 146.102 203.787 145.837 204.038C145.577 204.285 145.262 204.408 144.893 204.408ZM153.396 217.22C152.373 217.22 151.481 216.986 150.718 216.517C149.956 216.048 149.364 215.393 148.943 214.55C148.521 213.707 148.311 212.722 148.311 211.595C148.311 210.464 148.521 209.474 148.943 208.626C149.364 207.779 149.956 207.121 150.718 206.652C151.481 206.183 152.373 205.949 153.396 205.949C154.419 205.949 155.311 206.183 156.073 206.652C156.836 207.121 157.427 207.779 157.849 208.626C158.27 209.474 158.481 210.464 158.481 211.595C158.481 212.722 158.27 213.707 157.849 214.55C157.427 215.393 156.836 216.048 156.073 216.517C155.311 216.986 154.419 217.22 153.396 217.22ZM153.403 215.438C154.066 215.438 154.615 215.262 155.051 214.912C155.486 214.562 155.808 214.095 156.017 213.513C156.23 212.93 156.336 212.289 156.336 211.588C156.336 210.892 156.23 210.253 156.017 209.67C155.808 209.083 155.486 208.612 155.051 208.257C154.615 207.902 154.066 207.724 153.403 207.724C152.735 207.724 152.181 207.902 151.741 208.257C151.305 208.612 150.981 209.083 150.768 209.67C150.56 210.253 150.455 210.892 150.455 211.588C150.455 212.289 150.56 212.93 150.768 213.513C150.981 214.095 151.305 214.562 151.741 214.912C152.181 215.262 152.735 215.438 153.403 215.438ZM162.975 210.523V217H160.851V206.091H162.89V207.866H163.025C163.276 207.289 163.669 206.825 164.204 206.474C164.743 206.124 165.423 205.949 166.242 205.949C166.985 205.949 167.636 206.105 168.195 206.418C168.754 206.725 169.187 207.185 169.495 207.795C169.803 208.406 169.956 209.161 169.956 210.061V217H167.833V210.317C167.833 209.526 167.627 208.908 167.215 208.463C166.803 208.013 166.237 207.788 165.518 207.788C165.025 207.788 164.587 207.895 164.204 208.108C163.825 208.321 163.524 208.634 163.302 209.045C163.084 209.453 162.975 209.945 162.975 210.523ZM179.44 221.091C179.123 221.091 178.834 221.065 178.573 221.013C178.313 220.965 178.119 220.913 177.991 220.857L178.502 219.116C178.891 219.221 179.236 219.266 179.539 219.251C179.842 219.237 180.11 219.124 180.342 218.911C180.579 218.697 180.787 218.349 180.967 217.866L181.23 217.142L177.238 206.091H179.511L182.274 214.557H182.387L185.15 206.091H187.43L182.934 218.456C182.726 219.024 182.461 219.505 182.139 219.898C181.817 220.295 181.433 220.594 180.988 220.793C180.543 220.991 180.027 221.091 179.44 221.091ZM193.756 217.22C192.681 217.22 191.756 216.991 190.979 216.531C190.207 216.067 189.611 215.416 189.189 214.578C188.773 213.735 188.564 212.748 188.564 211.616C188.564 210.499 188.773 209.514 189.189 208.662C189.611 207.81 190.198 207.144 190.951 206.666C191.708 206.188 192.594 205.949 193.607 205.949C194.223 205.949 194.819 206.051 195.397 206.254C195.974 206.458 196.493 206.777 196.952 207.213C197.412 207.649 197.774 208.214 198.039 208.911C198.304 209.602 198.437 210.442 198.437 211.432V212.185H189.765V210.594H196.356C196.356 210.035 196.242 209.54 196.015 209.109C195.787 208.674 195.468 208.33 195.056 208.08C194.649 207.829 194.171 207.703 193.621 207.703C193.025 207.703 192.504 207.85 192.059 208.143C191.618 208.432 191.278 208.811 191.036 209.28C190.799 209.744 190.681 210.248 190.681 210.793V212.036C190.681 212.765 190.809 213.385 191.064 213.896C191.325 214.408 191.687 214.798 192.151 215.068C192.615 215.333 193.157 215.466 193.778 215.466C194.18 215.466 194.547 215.409 194.878 215.295C195.21 215.177 195.496 215.002 195.738 214.77C195.979 214.538 196.164 214.251 196.292 213.911L198.302 214.273C198.141 214.865 197.852 215.383 197.435 215.828C197.023 216.268 196.505 216.612 195.88 216.858C195.26 217.099 194.552 217.22 193.756 217.22ZM205.885 206.091V207.795H199.926V206.091H205.885ZM201.524 203.477H203.648V213.797C203.648 214.209 203.709 214.519 203.833 214.727C203.956 214.931 204.114 215.071 204.308 215.146C204.507 215.217 204.723 215.253 204.955 215.253C205.125 215.253 205.274 215.241 205.402 215.217C205.53 215.194 205.629 215.175 205.7 215.161L206.084 216.915C205.961 216.962 205.786 217.009 205.558 217.057C205.331 217.109 205.047 217.137 204.706 217.142C204.147 217.152 203.627 217.052 203.144 216.844C202.661 216.635 202.27 216.313 201.972 215.878C201.673 215.442 201.524 214.895 201.524 214.237V203.477ZM216.205 202.455L216.02 212.817H214.053L213.868 202.455H216.205ZM215.04 217.135C214.647 217.135 214.311 216.998 214.031 216.723C213.752 216.444 213.615 216.107 213.619 215.714C213.615 215.326 213.752 214.995 214.031 214.72C214.311 214.441 214.647 214.301 215.04 214.301C215.423 214.301 215.755 214.441 216.034 214.72C216.314 214.995 216.456 215.326 216.46 215.714C216.456 215.975 216.387 216.214 216.254 216.432C216.127 216.645 215.956 216.815 215.743 216.943C215.53 217.071 215.296 217.135 215.04 217.135ZM222.084 202.455L221.899 212.817H219.932L219.747 202.455H222.084ZM220.919 217.135C220.526 217.135 220.19 216.998 219.91 216.723C219.631 216.444 219.494 216.107 219.498 215.714C219.494 215.326 219.631 214.995 219.91 214.72C220.19 214.441 220.526 214.301 220.919 214.301C221.302 214.301 221.634 214.441 221.913 214.72C222.193 214.995 222.335 215.326 222.339 215.714C222.335 215.975 222.266 216.214 222.133 216.432C222.006 216.645 221.835 216.815 221.622 216.943C221.409 217.071 221.175 217.135 220.919 217.135Z" fill="#6C727F"/>
<defs>
<clipPath id="clip0_1005_3177">
<rect width="200" height="200" fill="white" transform="translate(20)"/>
</clipPath>
</defs>
</svg>
