<svg width="24" height="24" viewBox="0 0 24 24" fill="none" xmlns="http://www.w3.org/2000/svg">
<path d="M11.9922 8.74512C11.1302 8.74512 10.3036 9.08753 9.69409 9.69702C9.0846 10.3065 8.74219 11.1332 8.74219 11.9951C8.74219 12.8571 9.0846 13.6837 9.69409 14.2932C10.3036 14.9027 11.1302 15.2451 11.9922 15.2451C12.8541 15.2451 13.6808 14.9027 14.2903 14.2932C14.8998 13.6837 15.2422 12.8571 15.2422 11.9951C15.2422 11.1332 14.8998 10.3065 14.2903 9.69702C13.6808 9.08753 12.8541 8.74512 11.9922 8.74512Z" fill="#5EBD3E"/>
<path fill-rule="evenodd" clip-rule="evenodd" d="M6.77861 3.08194C10.2546 2.69664 13.7626 2.69664 17.2386 3.08194C19.1376 3.29394 20.6686 4.78894 20.8916 6.69494C21.3038 10.2196 21.3038 13.7803 20.8916 17.3049C20.6686 19.2109 19.1376 20.7059 17.2396 20.9189C13.7633 21.3043 10.255 21.3043 6.77861 20.9189C4.87961 20.7059 3.34861 19.2109 3.12561 17.3059C2.71334 13.781 2.71334 10.2199 3.12561 6.69494C3.34861 4.78894 4.87961 3.29394 6.77861 3.08194ZM17.0086 5.99994C16.7434 5.99994 16.489 6.1053 16.3015 6.29284C16.114 6.48037 16.0086 6.73473 16.0086 6.99994C16.0086 7.26516 16.114 7.51951 16.3015 7.70705C16.489 7.89459 16.7434 7.99994 17.0086 7.99994C17.2738 7.99994 17.5282 7.89459 17.7157 7.70705C17.9032 7.51951 18.0086 7.26516 18.0086 6.99994C18.0086 6.73473 17.9032 6.48037 17.7157 6.29284C17.5282 6.1053 17.2738 5.99994 17.0086 5.99994ZM7.25861 11.9999C7.25861 10.7402 7.75905 9.53198 8.64985 8.64119C9.54065 7.75039 10.7488 7.24994 12.0086 7.24994C13.2684 7.24994 14.4766 7.75039 15.3674 8.64119C16.2582 9.53198 16.7586 10.7402 16.7586 11.9999C16.7586 13.2597 16.2582 14.4679 15.3674 15.3587C14.4766 16.2495 13.2684 16.7499 12.0086 16.7499C10.7488 16.7499 9.54065 16.2495 8.64985 15.3587C7.75905 14.4679 7.25861 13.2597 7.25861 11.9999Z" fill="#5EBD3E"/>
</svg>
