<svg width="32" height="32" viewBox="0 0 32 32" fill="none" xmlns="http://www.w3.org/2000/svg">
<path d="M28.5187 13.8035C28.26 13.5492 27.9458 13.3857 27.6119 13.3316C27.278 13.2774 26.9379 13.3349 26.6304 13.4973L20.9087 16.4924L17.5843 9.43736C17.4254 9.10798 17.1952 8.83406 16.9171 8.64349C16.639 8.45293 16.323 8.35254 16.0012 8.35254C15.6795 8.35254 15.3634 8.45293 15.0854 8.64349C14.8073 8.83406 14.5771 9.10798 14.4182 9.43736L11.0937 16.4924L5.37208 13.4973C5.06396 13.3351 4.72343 13.2776 4.38898 13.3313C4.05454 13.385 3.73953 13.5477 3.47955 13.8011C3.21957 14.0546 3.025 14.3886 2.91783 14.7653C2.81066 15.1421 2.79517 15.5467 2.8731 15.9333L5.74523 30.3496C5.80015 30.6287 5.90263 30.8918 6.04647 31.1229C6.1903 31.354 6.37249 31.5483 6.582 31.694C6.86564 31.8939 7.18995 31.9997 7.52053 32.0002C7.68123 31.9999 7.84109 31.973 7.99545 31.9203C13.2307 30.2164 18.7605 30.2164 23.9957 31.9203C24.4737 32.0683 24.9821 31.9869 25.4091 31.694C25.6199 31.5501 25.8031 31.3564 25.9471 31.125C26.0912 30.8936 26.1929 30.6296 26.2459 30.3496L29.1294 15.9333C29.2064 15.5466 29.1901 15.1422 29.0822 14.7659C28.9743 14.3895 28.7791 14.0562 28.5187 13.8035Z" fill="#5EBD3E"/>
<ellipse cx="15.9991" cy="4.77276" rx="3.76471" ry="4.77276" fill="#5EBD3E"/>
<ellipse cx="15.9993" cy="21.477" rx="2.82353" ry="3.57957" fill="white"/>
<ellipse cx="29.6459" cy="12.5289" rx="2.35294" ry="2.98298" fill="#5EBD3E"/>
<ellipse cx="2.35294" cy="12.5289" rx="2.35294" ry="2.98298" fill="#5EBD3E"/>
<ellipse cx="8.94302" cy="23.2673" rx="1.41176" ry="1.78979" fill="white"/>
<ellipse cx="23.0602" cy="23.2673" rx="1.41176" ry="1.78979" fill="white"/>
</svg>
