<svg width="20" height="20" viewBox="0 0 20 20" fill="none" xmlns="http://www.w3.org/2000/svg">
<path fill-rule="evenodd" clip-rule="evenodd" d="M10 1.66699C11.9891 1.66699 13.8968 2.45717 15.3033 3.86369C16.7098 5.27021 17.5 7.17787 17.5 9.16699C17.5 11.7287 16.1033 13.8253 14.6317 15.3295C13.8964 16.0729 13.0941 16.7468 12.235 17.3428L11.88 17.5845L11.7133 17.6953L11.3992 17.8953L11.1192 18.0662L10.7725 18.2678C10.5372 18.4021 10.2709 18.4728 10 18.4728C9.72906 18.4728 9.4628 18.4021 9.2275 18.2678L8.88083 18.0662L8.4475 17.7995L8.2875 17.6953L7.94583 17.4678C7.01903 16.8408 6.15575 16.1246 5.36833 15.3295C3.89667 13.8245 2.5 11.7287 2.5 9.16699C2.5 7.17787 3.29018 5.27021 4.6967 3.86369C6.10322 2.45717 8.01088 1.66699 10 1.66699ZM10 3.33366C8.4529 3.33366 6.96917 3.94824 5.87521 5.0422C4.78125 6.13617 4.16667 7.6199 4.16667 9.16699C4.16667 11.102 5.22667 12.8003 6.55917 14.1637C7.13211 14.7437 7.75138 15.276 8.41083 15.7553L8.7925 16.027C8.91583 16.1131 9.03444 16.1931 9.14833 16.267L9.47333 16.4753L9.75917 16.6495L10 16.7903L10.3792 16.5662L10.685 16.3745C10.8478 16.2712 11.0219 16.1553 11.2075 16.027L11.5892 15.7553C12.2486 15.276 12.8679 14.7437 13.4408 14.1637C14.7733 12.8012 15.8333 11.102 15.8333 9.16699C15.8333 7.6199 15.2188 6.13617 14.1248 5.0422C13.0308 3.94824 11.5471 3.33366 10 3.33366ZM10 5.83366C10.8841 5.83366 11.7319 6.18485 12.357 6.80997C12.9821 7.43509 13.3333 8.28294 13.3333 9.16699C13.3333 10.051 12.9821 10.8989 12.357 11.524C11.7319 12.1491 10.8841 12.5003 10 12.5003C9.11594 12.5003 8.2681 12.1491 7.64298 11.524C7.01786 10.8989 6.66667 10.051 6.66667 9.16699C6.66667 8.28294 7.01786 7.43509 7.64298 6.80997C8.2681 6.18485 9.11594 5.83366 10 5.83366ZM10 7.50033C9.55797 7.50033 9.13405 7.67592 8.82149 7.98848C8.50893 8.30104 8.33333 8.72497 8.33333 9.16699C8.33333 9.60902 8.50893 10.0329 8.82149 10.3455C9.13405 10.6581 9.55797 10.8337 10 10.8337C10.442 10.8337 10.866 10.6581 11.1785 10.3455C11.4911 10.0329 11.6667 9.60902 11.6667 9.16699C11.6667 8.72497 11.4911 8.30104 11.1785 7.98848C10.866 7.67592 10.442 7.50033 10 7.50033Z" fill="#6C727F"/>
</svg>
