<svg width="114" height="100" viewBox="0 0 114 100" fill="none" xmlns="http://www.w3.org/2000/svg">
<path d="M9.33665 87.8182V98H7.92472L2.74929 90.5327H2.65483V98H1.11861V87.8182H2.54048L7.72088 95.2955H7.81534V87.8182H9.33665ZM14.6749 98.1541C13.959 98.1541 13.3342 97.9901 12.8006 97.6619C12.267 97.3338 11.8527 96.8748 11.5577 96.2848C11.2627 95.6948 11.1152 95.0054 11.1152 94.2166C11.1152 93.4245 11.2627 92.7318 11.5577 92.1385C11.8527 91.5452 12.267 91.0845 12.8006 90.7564C13.3342 90.4283 13.959 90.2642 14.6749 90.2642C15.3908 90.2642 16.0156 90.4283 16.5492 90.7564C17.0828 91.0845 17.4971 91.5452 17.7921 92.1385C18.0871 92.7318 18.2346 93.4245 18.2346 94.2166C18.2346 95.0054 18.0871 95.6948 17.7921 96.2848C17.4971 96.8748 17.0828 97.3338 16.5492 97.6619C16.0156 97.9901 15.3908 98.1541 14.6749 98.1541ZM14.6799 96.9062C15.1439 96.9062 15.5284 96.7836 15.8333 96.5384C16.1382 96.2931 16.3636 95.9666 16.5094 95.5589C16.6586 95.1513 16.7331 94.7022 16.7331 94.2116C16.7331 93.7244 16.6586 93.277 16.5094 92.8693C16.3636 92.4583 16.1382 92.1286 15.8333 91.88C15.5284 91.6314 15.1439 91.5071 14.6799 91.5071C14.2125 91.5071 13.8248 91.6314 13.5165 91.88C13.2116 92.1286 12.9846 92.4583 12.8354 92.8693C12.6896 93.277 12.6167 93.7244 12.6167 94.2116C12.6167 94.7022 12.6896 95.1513 12.8354 95.5589C12.9846 95.9666 13.2116 96.2931 13.5165 96.5384C13.8248 96.7836 14.2125 96.9062 14.6799 96.9062ZM23.7182 98V87.8182H30.0321V89.1406H25.2544V92.2429H29.5797V93.5604H25.2544V98H23.7182ZM34.5327 98.1541C33.7803 98.1541 33.1323 97.9934 32.5888 97.6719C32.0485 97.3471 31.6309 96.8913 31.3359 96.3047C31.0443 95.7147 30.8984 95.0237 30.8984 94.2315C30.8984 93.4493 31.0443 92.7599 31.3359 92.1634C31.6309 91.5668 32.0419 91.1011 32.5689 90.7663C33.0992 90.4316 33.719 90.2642 34.4283 90.2642C34.8591 90.2642 35.2768 90.3355 35.6811 90.478C36.0855 90.6205 36.4484 90.8442 36.7699 91.1491C37.0914 91.4541 37.3449 91.8501 37.5305 92.3374C37.7161 92.8213 37.8089 93.4096 37.8089 94.1023V94.6293H31.7386V93.5156H36.3523C36.3523 93.1245 36.2727 92.7782 36.1136 92.4766C35.9545 92.1716 35.7308 91.9313 35.4425 91.7557C35.1574 91.58 34.8227 91.4922 34.4382 91.4922C34.0206 91.4922 33.656 91.5949 33.3445 91.8004C33.0362 92.0026 32.7976 92.2678 32.6286 92.5959C32.4628 92.9207 32.38 93.2737 32.38 93.6548V94.5249C32.38 95.0353 32.4695 95.4695 32.6484 95.8274C32.8307 96.1854 33.0843 96.4588 33.4091 96.6477C33.7339 96.8333 34.1134 96.9261 34.5476 96.9261C34.8293 96.9261 35.0862 96.8864 35.3182 96.8068C35.5502 96.724 35.7507 96.6013 35.9197 96.4389C36.0888 96.2765 36.218 96.076 36.3075 95.8374L37.7145 96.0909C37.6018 96.5052 37.3996 96.8681 37.108 97.1797C36.8196 97.4879 36.4567 97.7282 36.0192 97.9006C35.585 98.0696 35.0895 98.1541 34.5327 98.1541ZM42.7495 98.1541C41.9971 98.1541 41.3491 97.9934 40.8056 97.6719C40.2653 97.3471 39.8477 96.8913 39.5527 96.3047C39.2611 95.7147 39.1152 95.0237 39.1152 94.2315C39.1152 93.4493 39.2611 92.7599 39.5527 92.1634C39.8477 91.5668 40.2587 91.1011 40.7857 90.7663C41.316 90.4316 41.9358 90.2642 42.6451 90.2642C43.0759 90.2642 43.4935 90.3355 43.8979 90.478C44.3023 90.6205 44.6652 90.8442 44.9867 91.1491C45.3082 91.4541 45.5617 91.8501 45.7473 92.3374C45.9329 92.8213 46.0257 93.4096 46.0257 94.1023V94.6293H39.9554V93.5156H44.5691C44.5691 93.1245 44.4895 92.7782 44.3304 92.4766C44.1713 92.1716 43.9476 91.9313 43.6593 91.7557C43.3742 91.58 43.0395 91.4922 42.655 91.4922C42.2374 91.4922 41.8728 91.5949 41.5613 91.8004C41.253 92.0026 41.0144 92.2678 40.8453 92.5959C40.6796 92.9207 40.5968 93.2737 40.5968 93.6548V94.5249C40.5968 95.0353 40.6863 95.4695 40.8652 95.8274C41.0475 96.1854 41.3011 96.4588 41.6259 96.6477C41.9507 96.8333 42.3302 96.9261 42.7644 96.9261C43.0461 96.9261 43.303 96.8864 43.535 96.8068C43.767 96.724 43.9675 96.6013 44.1365 96.4389C44.3056 96.2765 44.4348 96.076 44.5243 95.8374L45.9313 96.0909C45.8186 96.5052 45.6164 96.8681 45.3248 97.1797C45.0364 97.4879 44.6735 97.7282 44.236 97.9006C43.8018 98.0696 43.3063 98.1541 42.7495 98.1541ZM50.5337 98.1491C49.9173 98.1491 49.3671 97.9917 48.8832 97.6768C48.4026 97.3587 48.0247 96.9062 47.7496 96.3196C47.4779 95.7296 47.342 95.022 47.342 94.1967C47.342 93.3714 47.4795 92.6655 47.7546 92.0788C48.033 91.4922 48.4142 91.0431 48.8981 90.7315C49.382 90.42 49.9305 90.2642 50.5437 90.2642C51.0176 90.2642 51.3988 90.3438 51.6871 90.5028C51.9788 90.6586 52.2042 90.8409 52.3633 91.0497C52.5257 91.2585 52.6516 91.4425 52.7411 91.6016H52.8306V87.8182H54.3171V98H52.8654V96.8118H52.7411C52.6516 96.9742 52.5224 97.1598 52.3533 97.3686C52.1876 97.5774 51.9589 97.7597 51.6673 97.9155C51.3756 98.0713 50.9978 98.1491 50.5337 98.1491ZM50.8619 96.8814C51.2894 96.8814 51.6507 96.7687 51.9457 96.5433C52.244 96.3146 52.4693 95.9981 52.6218 95.5938C52.7776 95.1894 52.8555 94.7187 52.8555 94.1818C52.8555 93.6515 52.7792 93.1875 52.6268 92.7898C52.4743 92.392 52.2506 92.0821 51.9556 91.8601C51.6606 91.638 51.296 91.527 50.8619 91.527C50.4144 91.527 50.0415 91.643 49.7433 91.875C49.445 92.107 49.2196 92.4235 49.0671 92.8246C48.918 93.2256 48.8434 93.678 48.8434 94.1818C48.8434 94.6922 48.9196 95.1513 49.0721 95.5589C49.2246 95.9666 49.4499 96.2898 49.7482 96.5284C50.0498 96.7637 50.421 96.8814 50.8619 96.8814ZM56.5581 98V87.8182H58.0446V91.6016H58.1341C58.2202 91.4425 58.3445 91.2585 58.5069 91.0497C58.6693 90.8409 58.8947 90.6586 59.1831 90.5028C59.4714 90.3438 59.8526 90.2642 60.3265 90.2642C60.943 90.2642 61.4932 90.42 61.9771 90.7315C62.461 91.0431 62.8405 91.4922 63.1156 92.0788C63.394 92.6655 63.5332 93.3714 63.5332 94.1967C63.5332 95.022 63.3957 95.7296 63.1206 96.3196C62.8455 96.9062 62.4676 97.3587 61.987 97.6768C61.5065 97.9917 60.9579 98.1491 60.3414 98.1491C59.8774 98.1491 59.4979 98.0713 59.2029 97.9155C58.9113 97.7597 58.6826 97.5774 58.5169 97.3686C58.3511 97.1598 58.2235 96.9742 58.1341 96.8118H58.0098V98H56.5581ZM58.0147 94.1818C58.0147 94.7187 58.0926 95.1894 58.2484 95.5938C58.4042 95.9981 58.6296 96.3146 58.9245 96.5433C59.2195 96.7687 59.5808 96.8814 60.0083 96.8814C60.4525 96.8814 60.8237 96.7637 61.122 96.5284C61.4203 96.2898 61.6457 95.9666 61.7981 95.5589C61.9539 95.1513 62.0318 94.6922 62.0318 94.1818C62.0318 93.678 61.9556 93.2256 61.8031 92.8246C61.6539 92.4235 61.4286 92.107 61.127 91.875C60.8287 91.643 60.4558 91.527 60.0083 91.527C59.5775 91.527 59.2129 91.638 58.9146 91.8601C58.6196 92.0821 58.3959 92.392 58.2434 92.7898C58.091 93.1875 58.0147 93.6515 58.0147 94.1818ZM67.4247 98.169C66.9408 98.169 66.5033 98.0795 66.1122 97.9006C65.7211 97.7183 65.4112 97.4548 65.1825 97.1101C64.9571 96.7654 64.8445 96.3428 64.8445 95.8423C64.8445 95.4115 64.9273 95.0568 65.093 94.7784C65.2588 94.5 65.4825 94.2796 65.7642 94.1172C66.0459 93.9548 66.3608 93.8321 66.7088 93.7493C67.0568 93.6664 67.4115 93.6035 67.7727 93.5604C68.2301 93.5073 68.6013 93.4643 68.8864 93.4311C69.1714 93.3946 69.3786 93.3366 69.5078 93.2571C69.6371 93.1776 69.7017 93.0483 69.7017 92.8693V92.8345C69.7017 92.4003 69.5791 92.0639 69.3338 91.8253C69.0919 91.5866 68.7306 91.4673 68.25 91.4673C67.7495 91.4673 67.3551 91.5784 67.0668 91.8004C66.7817 92.0192 66.5845 92.2628 66.4751 92.5312L65.0781 92.2131C65.2438 91.7491 65.4858 91.3745 65.804 91.0895C66.1255 90.8011 66.495 90.5923 66.9126 90.4631C67.3303 90.3305 67.7694 90.2642 68.2301 90.2642C68.535 90.2642 68.8582 90.3007 69.1996 90.3736C69.5443 90.4432 69.8658 90.5724 70.1641 90.7614C70.4657 90.9503 70.7126 91.2204 70.9048 91.5717C71.0971 91.9197 71.1932 92.3722 71.1932 92.929V98H69.7415V96.956H69.6818C69.5857 97.1482 69.4415 97.3371 69.2493 97.5227C69.0571 97.7083 68.8101 97.8625 68.5085 97.9851C68.2069 98.1077 67.8456 98.169 67.4247 98.169ZM67.7479 96.9759C68.1589 96.9759 68.5102 96.8946 68.8018 96.7322C69.0968 96.5698 69.3205 96.3577 69.473 96.0959C69.6288 95.8307 69.7067 95.5473 69.7067 95.2457V94.2614C69.6536 94.3144 69.5509 94.3641 69.3984 94.4105C69.2493 94.4536 69.0786 94.4917 68.8864 94.5249C68.6941 94.5547 68.5069 94.5829 68.3246 94.6094C68.1423 94.6326 67.9898 94.6525 67.8672 94.669C67.5788 94.7055 67.3153 94.7668 67.0767 94.853C66.8414 94.9392 66.6525 95.0634 66.5099 95.2259C66.3707 95.3849 66.3011 95.5971 66.3011 95.8622C66.3011 96.2301 66.437 96.5085 66.7088 96.6974C66.9806 96.883 67.3269 96.9759 67.7479 96.9759ZM76.3897 98.1541C75.6506 98.1541 75.0143 97.9867 74.4806 97.652C73.9503 97.3139 73.5427 96.8482 73.2576 96.255C72.9726 95.6617 72.8301 94.9822 72.8301 94.2166C72.8301 93.4411 72.9759 92.7566 73.2676 92.1634C73.5592 91.5668 73.9702 91.1011 74.5005 90.7663C75.0308 90.4316 75.6556 90.2642 76.3748 90.2642C76.9548 90.2642 77.4719 90.3719 77.926 90.5874C78.38 90.7995 78.7463 91.0978 79.0247 91.4822C79.3064 91.8667 79.4738 92.3158 79.5268 92.8295H78.0801C78.0005 92.4716 77.8182 92.1634 77.5332 91.9048C77.2515 91.6463 76.8736 91.517 76.3997 91.517C75.9854 91.517 75.6225 91.6264 75.3109 91.8452C75.0027 92.0606 74.7624 92.3688 74.59 92.7699C74.4177 93.1676 74.3315 93.6383 74.3315 94.1818C74.3315 94.7386 74.416 95.2192 74.585 95.6236C74.7541 96.0279 74.9927 96.3411 75.301 96.5632C75.6125 96.7853 75.9788 96.8963 76.3997 96.8963C76.6814 96.8963 76.9366 96.8449 77.1653 96.7422C77.3973 96.6361 77.5912 96.4853 77.747 96.2898C77.9061 96.0942 78.0171 95.8589 78.0801 95.5838H79.5268C79.4738 96.0777 79.313 96.5185 79.0446 96.9062C78.7761 97.294 78.4165 97.599 77.9657 97.821C77.5183 98.0431 76.993 98.1541 76.3897 98.1541ZM82.4837 95.4098L82.4737 93.5952H82.7322L85.7749 90.3636H87.5547L84.0845 94.0426H83.8509L82.4837 95.4098ZM81.1165 98V87.8182H82.603V98H81.1165ZM85.9389 98L83.2045 94.3707L84.2287 93.3317L87.7635 98H85.9389ZM91.9483 87.8182H93.6934L96.3532 92.4467H96.4625L99.1223 87.8182H100.867L97.1735 94.0028V98H95.6422V94.0028L91.9483 87.8182ZM104.232 98.1541C103.48 98.1541 102.832 97.9934 102.288 97.6719C101.748 97.3471 101.33 96.8913 101.035 96.3047C100.743 95.7147 100.598 95.0237 100.598 94.2315C100.598 93.4493 100.743 92.7599 101.035 92.1634C101.33 91.5668 101.741 91.1011 102.268 90.7663C102.798 90.4316 103.418 90.2642 104.127 90.2642C104.558 90.2642 104.976 90.3355 105.38 90.478C105.785 90.6205 106.148 90.8442 106.469 91.1491C106.791 91.4541 107.044 91.8501 107.23 92.3374C107.415 92.8213 107.508 93.4096 107.508 94.1023V94.6293H101.438V93.5156H106.051C106.051 93.1245 105.972 92.7782 105.813 92.4766C105.654 92.1716 105.43 91.9313 105.142 91.7557C104.857 91.58 104.522 91.4922 104.137 91.4922C103.72 91.4922 103.355 91.5949 103.044 91.8004C102.735 92.0026 102.497 92.2678 102.328 92.5959C102.162 92.9207 102.079 93.2737 102.079 93.6548V94.5249C102.079 95.0353 102.169 95.4695 102.348 95.8274C102.53 96.1854 102.783 96.4588 103.108 96.6477C103.433 96.8333 103.813 96.9261 104.247 96.9261C104.529 96.9261 104.785 96.8864 105.017 96.8068C105.249 96.724 105.45 96.6013 105.619 96.4389C105.788 96.2765 105.917 96.076 106.007 95.8374L107.414 96.0909C107.301 96.5052 107.099 96.8681 106.807 97.1797C106.519 97.4879 106.156 97.7282 105.718 97.9006C105.284 98.0696 104.789 98.1541 104.232 98.1541ZM112.722 90.3636V91.5568H108.551V90.3636H112.722ZM109.67 88.5341H111.156V95.7578C111.156 96.0462 111.199 96.2633 111.285 96.4091C111.372 96.5516 111.483 96.6494 111.618 96.7024C111.758 96.7521 111.908 96.777 112.071 96.777C112.19 96.777 112.295 96.7687 112.384 96.7521C112.474 96.7356 112.543 96.7223 112.593 96.7124L112.861 97.9403C112.775 97.9735 112.653 98.0066 112.493 98.0398C112.334 98.0762 112.135 98.0961 111.897 98.0994C111.506 98.1061 111.141 98.0365 110.803 97.8906C110.465 97.7448 110.192 97.5194 109.983 97.2145C109.774 96.9096 109.67 96.5268 109.67 96.0661V88.5341Z" fill="#999797"/>
<path d="M29.0143 74C24.5953 74 21 71.0562 21 67.438V6.55776C21 2.94188 24.5953 0 29.0143 0H83.9814C88.4028 0 92 2.94188 92 6.55776V67.438C92 71.0562 88.4028 74 83.9814 74H29.0143Z" fill="#E3E3E3"/>
<path d="M45 40.5021C45 43.5356 42.5378 46 39.5 46C36.4645 46 34 43.5356 34 40.5021C34 37.4649 36.4645 35 39.5 35C42.5378 35 45 37.4649 45 40.5021Z" fill="#CCCCCC"/>
<path d="M78 40.5021C78 43.5356 75.5364 46 72.5002 46C69.4613 46 67 43.5356 67 40.5021C67 37.4649 69.4613 35 72.5002 35C75.5364 35 78 37.4649 78 40.5021Z" fill="#CCCCCC"/>
<path d="M69.7715 59.359C69.724 59.3023 68.4264 57.7268 65.9421 56.1499C63.4602 54.574 59.7758 52.999 55.0196 53C50.7941 53.001 47.3541 54.5889 44.982 56.1598C42.607 57.7343 41.28 59.2993 41.2386 59.347C40.8906 59.7582 40.9277 60.3866 41.3209 60.7505C41.7141 61.1144 42.3151 61.0756 42.6631 60.6645C42.6988 60.6212 43.9436 59.1815 46.1017 57.7731C48.2627 56.3617 51.3191 54.9876 55.0196 54.9886C59.3687 54.9896 62.6989 56.4203 64.9555 57.8501C66.0824 58.565 66.9373 59.2789 67.504 59.8084C67.7879 60.0729 67.9995 60.2911 68.1369 60.4398C68.2058 60.5138 68.2562 60.5705 68.2881 60.6073L68.3214 60.6461L68.3275 60.6535L68.4664 60.5273L68.3271 60.6525L68.3275 60.6535L68.4664 60.5273L68.3271 60.6525C68.6684 61.0696 69.269 61.1179 69.6679 60.7609C70.0663 60.4035 70.1129 59.7761 69.7715 59.359Z" fill="#CCCCCC"/>
</svg>
