<svg width="240" height="220" viewBox="0 0 240 220" fill="none" xmlns="http://www.w3.org/2000/svg">
<g clip-path="url(#clip0_1005_3471)">
<path d="M59.3432 154.736C60.0166 155.36 61.2368 155.775 62.4826 155.367C63.7154 155.003 64.8338 153.701 64.8184 152.149C64.8338 150.596 63.7154 149.294 62.4826 148.93C61.2368 148.522 60.0166 148.937 59.3432 149.561C58.6445 150.187 58.42 150.939 58.4036 151.416C58.3875 151.906 58.5244 152.151 58.6271 152.149C58.8703 152.178 58.9631 151.128 60.0394 150.482C60.5502 150.174 61.2982 150.055 61.9733 150.345C62.6447 150.618 63.192 151.332 63.1859 152.149C63.192 152.965 62.6447 153.679 61.9733 153.952C61.2982 154.242 60.5502 154.123 60.0394 153.815C58.9631 153.169 58.8703 152.119 58.6271 152.149C58.5244 152.146 58.3875 152.391 58.4036 152.881C58.4201 153.358 58.6445 154.11 59.3432 154.736Z" fill="#6C727F"/>
<path d="M180.015 89.6454C180.688 90.27 181.909 90.685 183.155 90.2773C184.387 89.9128 185.506 88.6106 185.49 87.0584C185.506 85.506 184.387 84.204 183.155 83.8394C181.909 83.4318 180.689 83.8467 180.015 84.4712C179.316 85.0972 179.092 85.8488 179.076 86.326C179.059 86.816 179.196 87.0607 179.299 87.0584C179.542 87.0875 179.635 86.0374 180.711 85.392C181.222 85.0836 181.97 84.9645 182.645 85.2546C183.317 85.5276 183.864 86.2416 183.858 87.0584C183.864 87.875 183.317 88.5892 182.645 88.862C181.97 89.1522 181.222 89.0331 180.711 88.7248C179.635 88.0793 179.542 87.0292 179.299 87.0584C179.196 87.056 179.059 87.3007 179.076 87.7908C179.092 88.2679 179.316 89.0194 180.015 89.6454Z" fill="#6C727F"/>
<path d="M163.897 29.7045C163.472 29.5532 161.915 32.8336 160.419 37.0314C158.923 41.2294 158.054 44.7551 158.479 44.9065C158.903 45.0578 160.46 41.7774 161.957 37.5794C163.453 33.3816 164.322 29.8558 163.897 29.7045Z" fill="#6C727F"/>
<path d="M165.226 43.6034C167.356 41.8564 168.85 40.1578 168.564 39.8093C168.278 39.4608 166.32 40.5945 164.191 42.3415C162.062 44.0884 160.568 45.7872 160.853 46.1356C161.139 46.4842 163.097 45.3504 165.226 43.6034Z" fill="#6C727F"/>
<path d="M164.475 49.9742C164.684 50.3737 168.043 49.03 171.978 46.9731C175.913 44.9161 178.934 42.9247 178.725 42.5253C178.517 42.1257 175.157 43.4695 171.222 45.5263C167.287 47.5833 164.266 49.5746 164.475 49.9742Z" fill="#6C727F"/>
<path d="M54.5293 56.6575C54.4277 57.5699 54.7426 58.5552 54.9982 59.5107C59.4821 76.2319 66.0076 99.0182 70.8454 115.705C75.951 133.315 80.6611 149.233 84.1488 160.732C85.9096 166.416 87.3425 171.041 88.3603 174.327C88.5459 175.161 89.1119 175.939 89.7352 176.254C90.3502 176.623 90.9974 176.618 91.4142 176.619C91.9165 176.627 92.2679 176.623 92.493 176.609C92.5 176.628 92.5121 176.648 92.5121 176.667C97.3115 175.372 101.095 174.331 103.736 173.62C104.955 173.264 105.894 172.985 106.58 172.782C107.215 172.604 107.545 172.477 107.545 172.451C107.519 172.401 107.189 172.451 106.529 172.578C105.818 172.731 104.879 172.959 103.634 173.213C101.146 173.797 97.5907 174.661 93.0453 175.727C90.2267 165.621 86.0875 150.893 81.1106 133.092C77.5793 120.671 64.5371 74.8863 58.1043 52.6461C64.7828 50.894 71.258 49.1927 77.5047 47.5675C76.6947 49.3225 76.3113 51.2331 76.3113 52.57C74.5429 53.0753 72.1165 53.7718 69.9884 54.4491C69.5566 54.576 69.3027 54.6775 69.2519 54.7283C69.3282 54.7283 69.5821 54.6775 70.0391 54.576C71.9813 54.1347 72.0997 54.0734 76.2859 53.0271C76.2859 55.0073 76.7011 56.2453 76.8193 56.9376C76.7905 57.1966 75.9512 57.253 107.545 48.8626C113.563 47.1865 118.439 45.8154 121.918 44.8504C125.016 43.9617 126.844 43.3775 127.098 43.1745H127.123C127.174 43.1491 126.971 42.5904 126.412 41.6254C126.133 41.1937 125.803 40.6352 125.346 40.051C129.358 38.9845 133.548 37.8672 137.915 36.6992C138.906 36.3437 139.642 36.5467 140.201 37.1815C141.105 38.2455 146.768 66.3489 157.214 89.3902C160.26 96.0482 165.284 105.964 171.561 109.73C175.914 112.291 178.875 110.779 179.129 110.771H179.154C178.461 111.511 166.014 130.371 142.131 144.163C137.027 147.134 131.821 149.724 126.565 151.883C123.949 153 121.334 153.99 118.693 154.879C117.347 155.362 116.204 155.793 114.985 155.616C113.766 155.514 112.598 154.981 111.71 154.168C104.955 145.966 99.089 137.206 94.1881 128.927C89.2619 120.598 85.2498 112.523 81.9994 104.956C75.4987 89.8219 71.9436 76.9221 69.8361 67.9584C68.7949 63.4637 68.1093 59.9595 67.6521 57.5725C67.3729 56.4043 67.9823 55.5665 68.4395 55.2109C68.8965 54.83 69.2267 54.7793 69.2267 54.7285C69.2267 54.7285 68.8711 54.7285 68.3378 55.084C67.8299 55.4141 67.0681 56.3283 67.3222 57.6233C67.6776 60.0355 68.287 63.5653 69.2267 68.0853C71.1311 77.1253 74.5338 90.152 80.9329 105.413C87.4082 120.675 96.7529 138.094 110.694 155.286C111.811 156.301 113.284 156.987 114.833 157.139C116.382 157.368 117.956 156.784 119.201 156.327C121.867 155.438 124.533 154.448 127.174 153.33C132.481 151.146 137.763 148.556 142.918 145.56C148.555 142.31 154.015 138.526 159.22 134.235C159.246 134.209 159.271 134.184 159.297 134.158C163.817 131.035 167.905 128.013 171.435 125.144C172.146 127.607 172.907 130.121 173.644 132.66C174.406 135.276 175.193 137.866 175.929 140.405C176.31 141.7 176.691 142.97 177.072 144.214L177.605 146.068C177.732 146.576 177.758 147.109 177.656 147.617C177.427 148.633 176.716 149.496 175.777 149.902C174.609 150.283 173.441 150.664 172.298 151.045C169.936 151.807 167.626 152.543 165.366 153.28C156.376 156.2 148.276 158.841 141.445 161.075C134.691 163.31 129.206 165.164 125.346 166.459C123.517 167.093 122.07 167.627 121.003 167.982C120.166 168.312 119.683 168.516 119.556 168.642C119.708 168.642 120.242 168.541 121.105 168.312C122.172 168.008 123.67 167.576 125.549 167.043C129.434 165.875 134.97 164.224 141.801 162.167C148.657 160.034 156.783 157.52 165.823 154.702C168.083 153.991 170.393 153.28 172.755 152.543C173.974 152.137 175.066 151.832 176.412 151.35C177.808 150.766 178.9 149.471 179.205 147.947C179.383 147.211 179.357 146.398 179.154 145.662L178.621 143.757C178.24 142.513 177.859 141.243 177.503 139.948C176.742 137.409 175.98 134.819 175.218 132.203C174.406 129.435 173.593 126.744 172.806 124.052V124.027C175.908 121.589 181.771 116.343 183.369 112.447C184.004 110.974 183.674 109.451 183.014 108.892C182.658 108.562 182.354 108.384 182.176 108.333L182.15 108.308C182.1 108.232 182.049 108.207 181.998 108.156L181.389 107.623C180.14 108.59 179.529 108.892 178.342 109.324C178.077 109.233 173.61 112.091 166.381 102.468C166.381 102.468 166.381 102.442 166.356 102.442C163.664 93.4786 161.227 85.3781 159.144 78.5728C154.605 64.1428 154.821 64.5351 152.644 58.0042C152.288 57.014 152.085 56.5061 152.034 56.5061C151.983 56.5315 152.085 57.0647 152.313 58.1059C153.994 64.5239 152.812 60.1272 158.027 78.9029C159.627 84.5656 161.531 91.1423 163.613 98.354C161.734 95.2307 160.109 91.9803 158.636 88.7555C147.893 65.1685 142.437 37.7175 141.217 36.3692C140.491 35.4305 139.294 34.9523 137.585 35.4549C133.04 36.7246 128.647 37.9181 124.482 39.0609C123.193 37.6787 122.008 36.8371 120.953 36.2168C146.854 29.3091 137.646 31.7605 140.556 30.9858C142.156 30.5286 143.807 31.3412 144.492 32.5601C144.866 33.3727 147.367 41.2983 147.616 42.1079C148.047 43.3775 148.301 44.0123 148.327 44.0123C148.378 43.9871 148.225 43.3014 147.895 42.0063C145.621 33.5593 145.622 33.4257 145.102 32.23C144.314 30.7063 142.334 29.6399 140.353 30.1731C130.565 32.6201 132.433 32.0922 119.505 35.4041C113.374 32.4214 107.571 34.4137 107.317 34.4137C107.389 34.6677 108.358 30.5147 105.539 26.9735C103.584 24.4849 100.181 23.0122 96.7276 23.393C91.0757 23.9373 86.7207 29.4811 88.4748 35.3025C89.0574 37.0503 89.7975 38.0092 90.684 38.9845C90.684 38.9845 90.7094 38.9845 90.7094 39.0099C90.4005 39.0931 85.9369 40.3583 85.0976 40.6605C82.3805 41.6001 80.0951 43.4537 78.5461 45.7899C71.3852 47.6183 63.8687 49.5227 56.1239 51.4779C56.2508 51.9097 56.3525 52.3159 56.4794 52.7476C56.4809 52.7515 56.4817 52.7553 56.4833 52.7592C56.4023 52.8627 56.3229 52.9641 56.2271 53.0901C55.7583 53.7782 54.6623 54.8057 54.5293 56.6575ZM182.506 108.816C186.32 112.638 172.838 122.461 168.438 125.855C176.863 117.43 182.132 109.304 182.506 108.816ZM77.9364 52.1128C77.911 52.0621 77.9364 51.9859 77.9364 51.9352C78.2975 47.8426 81.2483 43.7425 85.6559 42.2095C86.5675 41.8622 86.632 41.8821 94.1119 39.6957C92.447 38.3874 90.7689 37.3059 90.0236 34.8201C88.5309 30.1064 92.1045 25.3923 96.9051 24.8914C101.761 24.3003 106.448 27.8913 106.224 33.2457C106.142 34.4878 105.829 35.0131 105.463 36.2169C107.15 35.8095 112.407 33.5844 118.032 35.7851C124.118 37.8141 126.792 42.9265 127.047 43.1491C126.666 43.1491 124.838 43.5299 121.74 44.241C118.261 45.079 113.309 46.2724 107.24 47.7453C84.0625 53.6117 104.545 48.377 78.0887 55.1093C78.0633 55.1093 78.0633 55.1093 78.0633 55.0585C77.9331 54.2507 77.7953 53.0999 77.9364 52.1128ZM56.5001 53.2732C56.5377 53.2093 56.5635 53.1625 56.5976 53.1035C56.6007 53.1118 56.6025 53.1202 56.6059 53.1286C60.8312 68.009 60.6561 67.3418 79.7645 133.473C85.0691 151.366 89.435 166.214 92.4311 176.447C92.2073 176.403 91.8753 176.351 91.4392 176.291C90.5943 176.277 89.2346 175.802 88.9705 174.15C88.0731 170.829 86.8098 166.155 85.2573 160.411C82.0533 148.829 77.5187 132.861 72.4131 115.25C55.7833 57.8906 55.075 58.2618 55.164 56.6878C55.1707 55.0805 56.086 54.0536 56.5001 53.2732Z" fill="#6C727F"/>
<path d="M100.104 35.5014C101.654 34.2204 101.479 32.3396 101.172 32.3486C100.921 32.3035 100.879 33.6774 99.4307 34.5638C98.7436 34.9857 97.7148 35.1655 96.7577 34.7929C95.8067 34.445 95.0014 33.4742 95.0095 32.3486C94.9946 30.2609 97.5333 28.9688 99.4307 30.1333C100.879 31.0198 100.921 32.3938 101.172 32.3486C101.272 32.3517 101.417 32.0392 101.366 31.4324C101.202 29.4244 98.7877 27.6936 96.2715 28.481C94.7869 28.8991 93.3636 30.4374 93.3771 32.3486C93.3527 35.7936 97.5837 37.6486 100.104 35.5014Z" fill="#6C727F"/>
<path d="M85.8225 67.8662C85.3961 68.0124 89.1028 79.9483 94.1016 94.5259C96.0952 100.34 97.9881 105.678 99.5767 110.007C94.5582 111.876 91.4916 113.133 91.5628 113.341C91.6339 113.55 94.8389 112.667 99.9677 111.071C102.156 116.992 103.683 120.739 103.925 120.656C104.167 120.573 103.077 116.692 101.178 110.692C106.427 109.042 113.389 106.753 121.033 104.144C137.163 98.6375 150.121 93.8279 149.976 93.4012C149.83 92.9747 136.636 97.0926 120.505 102.599C112.873 105.204 105.973 107.647 100.814 109.55C99.4126 105.162 97.6349 99.7969 95.6458 93.9965C90.6469 79.4188 86.2489 67.7199 85.8225 67.8662Z" fill="#6C727F"/>
<path d="M100.421 72.1874C99.5359 72.2768 98.9547 72.622 98.3575 72.8152L96.5127 73.5137C94.7598 74.1549 93.4327 76.2572 94.3041 78.5835C96.8754 85.3376 101.214 96.3538 103.334 101.574C103.599 102.247 103.919 103.117 104.545 103.636C105.741 104.735 107.33 104.69 108.254 104.234C110.033 103.454 110.998 102.974 110.958 102.868C110.918 102.763 109.877 103.043 108.029 103.64C107.209 103.941 106.013 103.847 105.178 102.979C104.743 102.565 104.572 101.988 104.305 101.205C102.197 95.229 98.3141 84.6287 95.8183 78.0093C95.3233 76.6054 96.061 75.4178 97.0917 75.04C97.6205 74.8297 100.257 73.8156 100.573 73.8043C101.521 73.6952 102.475 74.2733 102.838 75.1214C105.292 81.4468 108.936 90.8435 112.411 99.2087C112.598 99.6927 112.609 100.185 112.544 100.614C112.155 102.397 110.83 102.745 110.958 102.868C110.973 102.911 111.262 102.897 111.737 102.634C112.91 101.99 113.576 100.41 113.153 98.9728C110.954 92.4078 107.096 81.9646 104.3 74.4745C103.688 73.013 102.064 72.0106 100.421 72.1874Z" fill="#6C727F"/>
<path d="M129.828 93.1693C130.653 94.1811 131.871 94.558 132.848 94.4655C133.881 94.355 134.487 93.8938 135.043 93.6799C136.14 93.1596 136.727 92.822 136.687 92.7166C136.647 92.6114 135.984 92.7481 134.818 93.0858C134.227 93.2222 133.513 93.5753 132.811 93.5536C132.085 93.547 131.253 93.1923 130.744 92.4671C130.494 92.1326 130.367 91.6581 130.156 91.0652C128.59 86.5938 127.778 84.4156 126.631 81.292C126.186 80.2041 126.766 78.7954 127.937 78.3798C128.708 78.0859 129.469 77.7954 130.221 77.509C131.053 77.1623 131.45 77.0572 132.075 77.1671C132.641 77.2754 133.149 77.6057 133.475 78.0546C133.706 78.3508 133.083 76.9312 137.137 86.9204C137.513 87.8914 138.037 88.8844 138.177 89.528C138.314 90.2506 138.135 90.9188 137.871 91.3893C137.315 92.3459 136.619 92.5892 136.687 92.7166C136.684 92.7895 137.517 92.7915 138.398 91.7439C138.811 91.2262 139.165 90.4045 139.082 89.4096C138.931 88.3548 138.54 87.5817 138.216 86.511C134.971 77.3221 135.188 77.8288 134.745 77.1504C133.722 75.6752 131.786 75.023 129.645 75.9906C128.892 76.2744 128.13 76.5622 127.358 76.8534C125.326 77.5676 124.351 80.0388 125.136 81.859C126.45 85.2154 127.193 87.144 128.978 91.5118C129.194 92.0148 129.398 92.6472 129.828 93.1693Z" fill="#6C727F"/>
<path d="M119.249 74.8714C118.239 74.1888 116.743 74.1459 115.707 74.6276C114.771 74.9814 113.821 75.3402 112.859 75.7032C111.015 76.3948 109.963 78.4729 110.636 80.4353C113.009 86.645 113.728 88.3756 116.714 95.8296C116.948 96.4032 117.215 97.1641 117.746 97.6718C118.248 98.1839 118.868 98.4936 119.471 98.6222C120.733 98.9124 121.72 98.3106 122.347 98.0359C123.722 97.4102 124.463 97.0144 124.423 96.909C124.383 96.8036 123.566 96.9987 122.122 97.4416C121.372 97.6681 120.578 98.0343 119.692 97.7369C118.366 97.3358 118.106 96.318 117.793 95.4203C115.726 89.6516 114.532 86.2537 112.164 79.9175C111.786 78.7718 112.41 77.6209 113.438 77.2296C114.398 76.864 115.347 76.5025 116.283 76.146C117.074 75.7948 117.774 75.862 118.408 76.232C119.067 76.6127 119.279 77.1815 119.636 78.1516C121.288 82.379 123.473 87.8611 125.554 92.8443C126.038 93.7754 126.016 94.5529 125.786 95.2122C125.273 96.5047 124.335 96.7827 124.423 96.909C124.388 96.9783 125.505 96.9678 126.367 95.4692C126.777 94.7657 126.862 93.5391 126.407 92.5207C124.655 87.3928 122.636 81.7902 121.094 77.5988C120.849 76.8408 120.359 75.4726 119.249 74.8714Z" fill="#6C727F"/>
<path d="M152.869 108.011C149.486 111.415 147.106 108.855 143.543 109.936C140.299 110.963 138.843 115.3 134.413 117.213C134.413 117.213 134.393 117.224 134.395 117.209C134.345 116.988 134.092 115.885 134.065 115.765C133.825 114.74 133.585 113.708 133.342 112.668C133.245 112.924 131.935 116.732 131.484 117.265C129.865 119.994 126.441 122.112 123.301 121.99C124.751 119.843 124.294 116.806 121.887 116.597C118.382 116.33 117.426 120.976 120.761 122.905C120.052 123.476 112.703 128.923 112.917 129.196C113.154 129.497 121.319 123.984 122.011 123.399C125.388 124.268 130.412 122.27 132.932 118.001L132.938 117.974L132.879 117.681L132.862 117.602L132.854 117.563L132.85 117.544C132.881 117.67 133.27 119.279 133.321 119.398C133.576 119.289 134.538 118.878 134.283 118.987C140.01 116.626 141.01 112.156 143.949 111.12C145.162 110.678 146.537 110.841 147.811 110.853C150.303 110.93 151.787 110.229 153.289 108.397C154.161 107.281 154.493 106.598 154.425 106.543C154.337 106.472 153.834 107.058 152.869 108.011ZM121.932 121.709C120.537 121.159 120.019 119.88 120.264 119.043C120.383 118.444 121.147 117.982 121.779 118.028C122.747 118.055 123.406 119.803 121.932 121.709Z" fill="#6C727F"/>
<path d="M134.063 115.765C134.064 115.771 134.066 115.776 134.067 115.782C134.06 115.749 134.059 115.747 134.063 115.765Z" fill="#6C727F"/>
<path d="M133.668 132.241C132.549 131.894 131.366 133.018 131.692 134.225C130.016 136.374 128.008 137.754 126.459 138.517C124.502 139.476 123.225 139.707 123.258 139.883C123.268 140 124.611 140.057 126.784 139.273C128.572 138.62 130.982 137.244 132.977 134.785C136.282 134.166 139.831 132.655 142.841 130.073C144.886 128.311 145.759 127.002 145.992 126.741L146.063 126.781C146.767 127.164 147.61 127.142 148.303 126.793C149.949 125.966 152.647 122.622 153.763 120.968C153.98 120.643 153.73 120.83 154.796 120.535C159.43 119.264 162.613 116.309 162.361 116.079C162.218 115.887 160.543 117.306 157.257 118.548C154.337 119.617 153.263 119.425 153.069 119.695C151.94 121.199 150.978 122.49 149.053 124.279C148.456 124.827 147.531 125.798 146.833 125.397C146.655 125.372 146.449 124.473 146.167 123.797C144.627 125.881 143.902 127.002 141.783 128.83C139.483 130.804 136.859 132.125 134.297 132.907L134.542 132.512L133.668 132.241Z" fill="#6C727F"/>
<path d="M103.053 45.9251C112.52 43.5209 120.104 41.2179 119.993 40.7809C119.882 40.344 112.118 41.9389 102.652 44.343C93.1852 46.747 85.6012 49.0503 85.7121 49.4872C85.8231 49.9241 93.5871 48.3293 103.053 45.9251Z" fill="#6C727F"/>
<path d="M96.6861 26.7523C96.6725 26.5327 96.0786 26.3521 95.1429 26.5284C94.2288 26.6908 92.9027 27.3101 92.037 28.5978C91.1608 29.8656 91.0475 31.336 91.2506 32.2523C91.4438 33.1931 91.846 33.665 92.0517 33.5935C92.494 33.4809 91.5519 31.256 92.8418 29.4307C94.3304 27.324 96.7658 27.2054 96.6861 26.7523Z" fill="#6C727F"/>
<path d="M115.912 81.5915C115.491 81.7508 116.184 84.6208 117.462 88.0015C118.739 91.3824 120.116 93.994 120.538 93.8346C120.96 93.6754 120.266 90.8056 118.989 87.4246C117.711 84.0438 116.334 81.4322 115.912 81.5915Z" fill="#6C727F"/>
</g>
<path d="M52.3224 202.455V217H50.3054L42.9119 206.332H42.777V217H40.5824V202.455H42.6136L50.0142 213.136H50.1491V202.455H52.3224ZM59.9485 217.22C58.9258 217.22 58.0333 216.986 57.271 216.517C56.5086 216.048 55.9168 215.393 55.4954 214.55C55.074 213.707 54.8633 212.722 54.8633 211.595C54.8633 210.464 55.074 209.474 55.4954 208.626C55.9168 207.779 56.5086 207.121 57.271 206.652C58.0333 206.183 58.9258 205.949 59.9485 205.949C60.9712 205.949 61.8638 206.183 62.6261 206.652C63.3884 207.121 63.9802 207.779 64.4016 208.626C64.823 209.474 65.0337 210.464 65.0337 211.595C65.0337 212.722 64.823 213.707 64.4016 214.55C63.9802 215.393 63.3884 216.048 62.6261 216.517C61.8638 216.986 60.9712 217.22 59.9485 217.22ZM59.9556 215.438C60.6185 215.438 61.1677 215.262 61.6033 214.912C62.0389 214.562 62.3609 214.095 62.5692 213.513C62.7823 212.93 62.8888 212.289 62.8888 211.588C62.8888 210.892 62.7823 210.253 62.5692 209.67C62.3609 209.083 62.0389 208.612 61.6033 208.257C61.1677 207.902 60.6185 207.724 59.9556 207.724C59.288 207.724 58.734 207.902 58.2937 208.257C57.8581 208.612 57.5337 209.083 57.3207 209.67C57.1123 210.253 57.0082 210.892 57.0082 211.588C57.0082 212.289 57.1123 212.93 57.3207 213.513C57.5337 214.095 57.8581 214.562 58.2937 214.912C58.734 215.262 59.288 215.438 59.9556 215.438ZM72.1502 204.344V202.455H83.4073V204.344H78.869V217H76.6815V204.344H72.1502ZM84.5916 217V206.091H86.6442V207.824H86.7578C86.9567 207.237 87.3071 206.775 87.8089 206.439C88.3156 206.098 88.8885 205.928 89.5277 205.928C89.6603 205.928 89.8165 205.932 89.9964 205.942C90.1811 205.951 90.3255 205.963 90.4297 205.977V208.009C90.3445 207.985 90.1929 207.959 89.9751 207.93C89.7573 207.897 89.5395 207.881 89.3217 207.881C88.8198 207.881 88.3724 207.987 87.9794 208.2C87.5911 208.409 87.2834 208.7 87.0561 209.074C86.8288 209.443 86.7152 209.865 86.7152 210.338V217H84.5916ZM95.3445 217.241C94.6532 217.241 94.0282 217.114 93.4695 216.858C92.9107 216.598 92.468 216.221 92.1413 215.729C91.8194 215.236 91.6584 214.633 91.6584 213.918C91.6584 213.302 91.7768 212.795 92.0135 212.398C92.2502 212 92.5698 211.685 92.9723 211.453C93.3748 211.221 93.8246 211.046 94.3217 210.928C94.8189 210.809 95.3255 210.719 95.8416 210.658C96.495 210.582 97.0253 210.52 97.4325 210.473C97.8397 210.421 98.1357 210.338 98.3203 210.224C98.505 210.111 98.5973 209.926 98.5973 209.67V209.621C98.5973 209 98.4221 208.52 98.0717 208.179C97.7261 207.838 97.21 207.668 96.5234 207.668C95.8085 207.668 95.245 207.826 94.8331 208.143C94.4259 208.456 94.1442 208.804 93.9879 209.188L91.9922 208.733C92.2289 208.07 92.5746 207.535 93.0291 207.128C93.4884 206.716 94.0163 206.418 94.6129 206.233C95.2095 206.044 95.8369 205.949 96.495 205.949C96.9306 205.949 97.3923 206.001 97.88 206.105C98.3724 206.205 98.8317 206.389 99.2578 206.659C99.6887 206.929 100.041 207.315 100.316 207.817C100.591 208.314 100.728 208.96 100.728 209.756V217H98.6541V215.509H98.5689C98.4316 215.783 98.2256 216.053 97.951 216.318C97.6764 216.583 97.3236 216.804 96.8928 216.979C96.4619 217.154 95.9458 217.241 95.3445 217.241ZM95.8061 215.537C96.3932 215.537 96.8951 215.421 97.3118 215.189C97.7332 214.957 98.0528 214.654 98.2706 214.28C98.4931 213.901 98.6044 213.496 98.6044 213.065V211.659C98.5286 211.735 98.3819 211.806 98.1641 211.872C97.951 211.934 97.7071 211.988 97.4325 212.036C97.1579 212.078 96.8904 212.118 96.63 212.156C96.3696 212.189 96.1518 212.218 95.9766 212.241C95.5646 212.294 95.1882 212.381 94.8473 212.504C94.5111 212.627 94.2412 212.805 94.0376 213.037C93.8388 213.264 93.7393 213.567 93.7393 213.946C93.7393 214.472 93.9335 214.869 94.3217 215.139C94.71 215.404 95.2048 215.537 95.8061 215.537ZM105.68 210.523V217H103.556V206.091H105.595V207.866H105.73C105.981 207.289 106.374 206.825 106.909 206.474C107.449 206.124 108.128 205.949 108.947 205.949C109.69 205.949 110.342 206.105 110.9 206.418C111.459 206.725 111.892 207.185 112.2 207.795C112.508 208.406 112.662 209.161 112.662 210.061V217H110.538V210.317C110.538 209.526 110.332 208.908 109.92 208.463C109.508 208.013 108.942 207.788 108.223 207.788C107.73 207.788 107.292 207.895 106.909 208.108C106.53 208.321 106.229 208.634 106.007 209.045C105.789 209.453 105.68 209.945 105.68 210.523ZM123.684 208.754L121.76 209.095C121.679 208.849 121.551 208.615 121.376 208.392C121.206 208.17 120.974 207.987 120.68 207.845C120.386 207.703 120.02 207.632 119.579 207.632C118.978 207.632 118.476 207.767 118.074 208.037C117.671 208.302 117.47 208.645 117.47 209.067C117.47 209.431 117.605 209.725 117.875 209.947C118.145 210.17 118.58 210.352 119.181 210.494L120.914 210.892C121.918 211.124 122.666 211.482 123.159 211.964C123.651 212.447 123.897 213.075 123.897 213.847C123.897 214.5 123.708 215.082 123.329 215.594C122.955 216.1 122.432 216.498 121.76 216.787C121.092 217.076 120.318 217.22 119.437 217.22C118.216 217.22 117.219 216.96 116.447 216.439C115.675 215.913 115.202 215.168 115.027 214.202L117.079 213.889C117.207 214.424 117.47 214.829 117.868 215.104C118.265 215.374 118.784 215.509 119.423 215.509C120.119 215.509 120.675 215.364 121.092 215.075C121.509 214.782 121.717 214.424 121.717 214.003C121.717 213.662 121.589 213.375 121.333 213.143C121.083 212.911 120.697 212.736 120.176 212.618L118.329 212.213C117.311 211.981 116.558 211.612 116.071 211.105C115.588 210.598 115.346 209.957 115.346 209.18C115.346 208.536 115.526 207.973 115.886 207.49C116.246 207.007 116.743 206.631 117.377 206.361C118.012 206.086 118.739 205.949 119.558 205.949C120.737 205.949 121.665 206.205 122.342 206.716C123.019 207.223 123.467 207.902 123.684 208.754ZM129.407 217.241C128.716 217.241 128.091 217.114 127.532 216.858C126.973 216.598 126.531 216.221 126.204 215.729C125.882 215.236 125.721 214.633 125.721 213.918C125.721 213.302 125.839 212.795 126.076 212.398C126.313 212 126.632 211.685 127.035 211.453C127.437 211.221 127.887 211.046 128.384 210.928C128.881 210.809 129.388 210.719 129.904 210.658C130.558 210.582 131.088 210.52 131.495 210.473C131.902 210.421 132.198 210.338 132.383 210.224C132.567 210.111 132.66 209.926 132.66 209.67V209.621C132.66 209 132.485 208.52 132.134 208.179C131.789 207.838 131.272 207.668 130.586 207.668C129.871 207.668 129.308 207.826 128.896 208.143C128.488 208.456 128.207 208.804 128.05 209.188L126.055 208.733C126.291 208.07 126.637 207.535 127.092 207.128C127.551 206.716 128.079 206.418 128.675 206.233C129.272 206.044 129.899 205.949 130.558 205.949C130.993 205.949 131.455 206.001 131.942 206.105C132.435 206.205 132.894 206.389 133.32 206.659C133.751 206.929 134.104 207.315 134.379 207.817C134.653 208.314 134.79 208.96 134.79 209.756V217H132.717V215.509H132.631C132.494 215.783 132.288 216.053 132.013 216.318C131.739 216.583 131.386 216.804 130.955 216.979C130.524 217.154 130.008 217.241 129.407 217.241ZM129.869 215.537C130.456 215.537 130.958 215.421 131.374 215.189C131.796 214.957 132.115 214.654 132.333 214.28C132.556 213.901 132.667 213.496 132.667 213.065V211.659C132.591 211.735 132.444 211.806 132.227 211.872C132.013 211.934 131.77 211.988 131.495 212.036C131.22 212.078 130.953 212.118 130.692 212.156C130.432 212.189 130.214 212.218 130.039 212.241C129.627 212.294 129.251 212.381 128.91 212.504C128.574 212.627 128.304 212.805 128.1 213.037C127.901 213.264 127.802 213.567 127.802 213.946C127.802 214.472 127.996 214.869 128.384 215.139C128.772 215.404 129.267 215.537 129.869 215.537ZM142.214 217.22C141.158 217.22 140.249 216.981 139.487 216.503C138.729 216.02 138.147 215.355 137.74 214.507C137.333 213.66 137.129 212.689 137.129 211.595C137.129 210.487 137.337 209.509 137.754 208.662C138.171 207.81 138.758 207.144 139.515 206.666C140.273 206.188 141.165 205.949 142.193 205.949C143.021 205.949 143.76 206.103 144.409 206.411C145.057 206.714 145.581 207.14 145.978 207.689C146.381 208.238 146.62 208.88 146.696 209.614H144.629C144.515 209.102 144.255 208.662 143.848 208.293C143.445 207.923 142.905 207.739 142.228 207.739C141.636 207.739 141.118 207.895 140.673 208.207C140.233 208.515 139.889 208.955 139.643 209.528C139.397 210.097 139.274 210.769 139.274 211.545C139.274 212.341 139.395 213.027 139.636 213.605C139.877 214.183 140.218 214.63 140.659 214.947C141.104 215.265 141.627 215.423 142.228 215.423C142.631 215.423 142.995 215.35 143.322 215.203C143.654 215.052 143.931 214.836 144.153 214.557C144.38 214.277 144.539 213.941 144.629 213.548H146.696C146.62 214.254 146.39 214.884 146.007 215.438C145.623 215.991 145.109 216.427 144.466 216.744C143.826 217.062 143.076 217.22 142.214 217.22ZM154.059 206.091V207.795H148.1V206.091H154.059ZM149.698 203.477H151.822V213.797C151.822 214.209 151.883 214.519 152.006 214.727C152.129 214.931 152.288 215.071 152.482 215.146C152.681 215.217 152.897 215.253 153.129 215.253C153.299 215.253 153.448 215.241 153.576 215.217C153.704 215.194 153.803 215.175 153.874 215.161L154.258 216.915C154.135 216.962 153.96 217.009 153.732 217.057C153.505 217.109 153.221 217.137 152.88 217.142C152.321 217.152 151.8 217.052 151.317 216.844C150.835 216.635 150.444 216.313 150.146 215.878C149.847 215.442 149.698 214.895 149.698 214.237V203.477ZM156.408 217V206.091H158.532V217H156.408ZM157.48 204.408C157.111 204.408 156.794 204.285 156.529 204.038C156.268 203.787 156.138 203.489 156.138 203.143C156.138 202.793 156.268 202.495 156.529 202.249C156.794 201.998 157.111 201.872 157.48 201.872C157.85 201.872 158.165 201.998 158.425 202.249C158.69 202.495 158.823 202.793 158.823 203.143C158.823 203.489 158.69 203.787 158.425 204.038C158.165 204.285 157.85 204.408 157.48 204.408ZM165.984 217.22C164.961 217.22 164.068 216.986 163.306 216.517C162.544 216.048 161.952 215.393 161.531 214.55C161.109 213.707 160.898 212.722 160.898 211.595C160.898 210.464 161.109 209.474 161.531 208.626C161.952 207.779 162.544 207.121 163.306 206.652C164.068 206.183 164.961 205.949 165.984 205.949C167.006 205.949 167.899 206.183 168.661 206.652C169.424 207.121 170.015 207.779 170.437 208.626C170.858 209.474 171.069 210.464 171.069 211.595C171.069 212.722 170.858 213.707 170.437 214.55C170.015 215.393 169.424 216.048 168.661 216.517C167.899 216.986 167.006 217.22 165.984 217.22ZM165.991 215.438C166.654 215.438 167.203 215.262 167.638 214.912C168.074 214.562 168.396 214.095 168.604 213.513C168.817 212.93 168.924 212.289 168.924 211.588C168.924 210.892 168.817 210.253 168.604 209.67C168.396 209.083 168.074 208.612 167.638 208.257C167.203 207.902 166.654 207.724 165.991 207.724C165.323 207.724 164.769 207.902 164.329 208.257C163.893 208.612 163.569 209.083 163.356 209.67C163.147 210.253 163.043 210.892 163.043 211.588C163.043 212.289 163.147 212.93 163.356 213.513C163.569 214.095 163.893 214.562 164.329 214.912C164.769 215.262 165.323 215.438 165.991 215.438ZM175.563 210.523V217H173.439V206.091H175.478V207.866H175.613C175.864 207.289 176.257 206.825 176.792 206.474C177.331 206.124 178.011 205.949 178.83 205.949C179.573 205.949 180.224 206.105 180.783 206.418C181.342 206.725 181.775 207.185 182.083 207.795C182.391 208.406 182.544 209.161 182.544 210.061V217H180.421V210.317C180.421 209.526 180.215 208.908 179.803 208.463C179.391 208.013 178.825 207.788 178.105 207.788C177.613 207.788 177.175 207.895 176.792 208.108C176.413 208.321 176.112 208.634 175.89 209.045C175.672 209.453 175.563 209.945 175.563 210.523ZM193.363 202.455L193.178 212.817H191.211L191.026 202.455H193.363ZM192.198 217.135C191.805 217.135 191.469 216.998 191.19 216.723C190.91 216.444 190.773 216.107 190.778 215.714C190.773 215.326 190.91 214.995 191.19 214.72C191.469 214.441 191.805 214.301 192.198 214.301C192.582 214.301 192.913 214.441 193.192 214.72C193.472 214.995 193.614 215.326 193.619 215.714C193.614 215.975 193.545 216.214 193.413 216.432C193.285 216.645 193.114 216.815 192.901 216.943C192.688 217.071 192.454 217.135 192.198 217.135ZM199.242 202.455L199.057 212.817H197.09L196.905 202.455H199.242ZM198.077 217.135C197.684 217.135 197.348 216.998 197.069 216.723C196.789 216.444 196.652 216.107 196.657 215.714C196.652 215.326 196.789 214.995 197.069 214.72C197.348 214.441 197.684 214.301 198.077 214.301C198.461 214.301 198.792 214.441 199.071 214.72C199.351 214.995 199.493 215.326 199.498 215.714C199.493 215.975 199.424 216.214 199.292 216.432C199.164 216.645 198.993 216.815 198.78 216.943C198.567 217.071 198.333 217.135 198.077 217.135Z" fill="#6C727F"/>
<defs>
<clipPath id="clip0_1005_3471">
<rect width="200" height="200" fill="white" transform="translate(20)"/>
</clipPath>
</defs>
</svg>
