<svg width="40" height="40" viewBox="0 0 40 40" fill="none" xmlns="http://www.w3.org/2000/svg">
<circle cx="20" cy="20" r="20" fill="#F8F8FB"/>
<path d="M25.1117 19.167C25.5958 23.6462 27.5 25.0003 27.5 25.0003H12.5C12.5 25.0003 15 23.2228 15 17.0003C15 15.5862 15.5267 14.2295 16.4642 13.2295C17.4017 12.2295 18.675 11.667 20 11.667C20.2817 11.667 20.5594 11.692 20.8333 11.742M21.4417 27.5003C21.2952 27.7529 21.0849 27.9625 20.8319 28.1083C20.5788 28.254 20.292 28.3307 20 28.3307C19.708 28.3307 19.4212 28.254 19.1681 28.1083C18.9151 27.9625 18.7048 27.7529 18.5583 27.5003M25.8333 16.667C26.4964 16.667 27.1323 16.4036 27.6011 15.9348C28.0699 15.4659 28.3333 14.83 28.3333 14.167C28.3333 13.504 28.0699 12.8681 27.6011 12.3992C27.1323 11.9304 26.4964 11.667 25.8333 11.667C25.1703 11.667 24.5344 11.9304 24.0656 12.3992C23.5967 12.8681 23.3333 13.504 23.3333 14.167C23.3333 14.83 23.5967 15.4659 24.0656 15.9348C24.5344 16.4036 25.1703 16.667 25.8333 16.667Z" stroke="#999797" stroke-width="1.25" stroke-linecap="round" stroke-linejoin="round"/>
</svg>
