<svg width="16" height="16" viewBox="0 0 16 16" fill="none" xmlns="http://www.w3.org/2000/svg">
<path d="M8.68832 1.33301C9.43832 1.33501 9.81898 1.33901 10.1476 1.34834L10.277 1.35301C10.4263 1.35834 10.5736 1.36501 10.7516 1.37301C11.461 1.40634 11.945 1.51834 12.3696 1.68301C12.8096 1.85234 13.1803 2.08167 13.551 2.45167C13.8901 2.78483 14.1524 3.18799 14.3196 3.63301C14.4843 4.05767 14.5963 4.54167 14.6296 5.25167C14.6376 5.42901 14.6443 5.57634 14.6496 5.72634L14.6536 5.85567C14.6636 6.18367 14.6676 6.56434 14.669 7.31434L14.6696 7.81168V8.68501C14.6713 9.17128 14.6662 9.65755 14.6543 10.1437L14.6503 10.273C14.645 10.423 14.6383 10.5703 14.6303 10.7477C14.597 11.4577 14.4836 11.941 14.3196 12.3663C14.1524 12.8114 13.8901 13.2145 13.551 13.5477C13.2178 13.8868 12.8147 14.1491 12.3696 14.3163C11.945 14.481 11.461 14.593 10.7516 14.6263L10.277 14.6463L10.1476 14.6503C9.81898 14.6597 9.43832 14.6643 8.68832 14.6657L8.19098 14.6663H7.31832C6.83182 14.6681 6.34533 14.6629 5.85898 14.651L5.72965 14.647C5.57139 14.641 5.41317 14.6341 5.25498 14.6263C4.54565 14.593 4.06165 14.481 3.63632 14.3163C3.19154 14.149 2.78861 13.8867 2.45565 13.5477C2.11628 13.2146 1.85372 12.8114 1.68632 12.3663C1.52165 11.9417 1.40965 11.4577 1.37632 10.7477L1.35632 10.273L1.35298 10.1437C1.34069 9.65755 1.33514 9.17128 1.33632 8.68501V7.31434C1.33447 6.82807 1.33936 6.34181 1.35098 5.85567L1.35565 5.72634C1.36098 5.57634 1.36765 5.42901 1.37565 5.25167C1.40898 4.54167 1.52098 4.05834 1.68565 3.63301C1.85345 3.18781 2.11647 2.78463 2.45632 2.45167C2.78909 2.11271 3.19178 1.85039 3.63632 1.68301C4.06165 1.51834 4.54498 1.40634 5.25498 1.37301C5.43232 1.36501 5.58032 1.35834 5.72965 1.35301L5.85898 1.34901C6.34511 1.33716 6.83138 1.33205 7.31765 1.33367L8.68832 1.33301ZM8.00298 4.66634C7.11893 4.66634 6.27108 5.01753 5.64596 5.64265C5.02084 6.26777 4.66965 7.11562 4.66965 7.99967C4.66965 8.88373 5.02084 9.73158 5.64596 10.3567C6.27108 10.9818 7.11893 11.333 8.00298 11.333C8.88704 11.333 9.73488 10.9818 10.36 10.3567C10.9851 9.73158 11.3363 8.88373 11.3363 7.99967C11.3363 7.11562 10.9851 6.26777 10.36 5.64265C9.73488 5.01753 8.88704 4.66634 8.00298 4.66634ZM8.00298 5.99967C8.26563 5.99963 8.52571 6.05132 8.76837 6.15179C9.01104 6.25226 9.23155 6.39954 9.41729 6.58523C9.60304 6.77091 9.7504 6.99137 9.85095 7.234C9.9515 7.47663 10.0033 7.7367 10.0033 7.99934C10.0034 8.26199 9.95167 8.52207 9.8512 8.76473C9.75073 9.0074 9.60345 9.2279 9.41777 9.41365C9.23208 9.5994 9.01163 9.74676 8.76899 9.84731C8.52636 9.94786 8.26629 9.99963 8.00365 9.99967C7.47322 9.99967 6.96451 9.78896 6.58944 9.41389C6.21436 9.03882 6.00365 8.53011 6.00365 7.99967C6.00365 7.46924 6.21436 6.96053 6.58944 6.58546C6.96451 6.21039 7.47322 5.99967 8.00365 5.99967M11.5036 3.66634C11.2826 3.66634 11.0707 3.75414 10.9144 3.91042C10.7581 4.0667 10.6703 4.27866 10.6703 4.49967C10.6703 4.72069 10.7581 4.93265 10.9144 5.08893C11.0707 5.24521 11.2826 5.33301 11.5036 5.33301C11.7247 5.33301 11.9366 5.24521 12.0929 5.08893C12.2492 4.93265 12.337 4.72069 12.337 4.49967C12.337 4.27866 12.2492 4.0667 12.0929 3.91042C11.9366 3.75414 11.7247 3.66634 11.5036 3.66634Z" fill="black"/>
</svg>
