<svg width="24" height="24" viewBox="0 0 24 24" fill="none" xmlns="http://www.w3.org/2000/svg">
<path fill-rule="evenodd" clip-rule="evenodd" d="M6.774 6.4L7.586 20.048C7.59823 20.2514 7.68761 20.4425 7.8359 20.5822C7.9842 20.722 8.18023 20.7999 8.384 20.8H15.616C15.8198 20.7999 16.0158 20.722 16.1641 20.5822C16.3124 20.4425 16.4018 20.2514 16.414 20.048L17.226 6.4H6.774ZM18.429 6.4L17.612 20.119C17.5817 20.6278 17.3582 21.1059 16.9872 21.4555C16.6162 21.8051 16.1258 21.9999 15.616 22H8.384C7.87425 21.9999 7.38377 21.8051 7.01279 21.4555C6.64182 21.1059 6.41833 20.6278 6.388 20.119L5.571 6.4H3.5V5.7C3.5 5.56739 3.55268 5.44021 3.64645 5.34645C3.74021 5.25268 3.86739 5.2 4 5.2H20C20.1326 5.2 20.2598 5.25268 20.3536 5.34645C20.4473 5.44021 20.5 5.56739 20.5 5.7V6.4H18.429ZM14 3C14.1326 3 14.2598 3.05268 14.3536 3.14645C14.4473 3.24021 14.5 3.36739 14.5 3.5V4.2H9.5V3.5C9.5 3.36739 9.55268 3.24021 9.64645 3.14645C9.74021 3.05268 9.86739 3 10 3H14ZM9.5 9H10.7L11.2 18H10L9.5 9ZM13.3 9H14.5L14 18H12.8L13.3 9Z" fill="black"/>
</svg>
