<svg width="24" height="24" viewBox="0 0 24 24" fill="none" xmlns="http://www.w3.org/2000/svg">
<path d="M11.83 14V13.379C11.8295 12.9697 11.9368 12.5676 12.1412 12.2129C12.3455 11.8583 12.6397 11.5638 12.994 11.359C14.12 10.699 14.508 9.302 13.848 8.176C13.188 7.05 11.791 6.662 10.665 7.322C9.965 7.75 9.5 8.487 9.5 9.341M12 17H11.992M22 12C22 6.477 17.523 2 12 2C6.477 2 2 6.477 2 12C2 17.523 6.477 22 12 22C17.523 22 22 17.523 22 12Z" stroke="black" stroke-width="1.5" stroke-miterlimit="10" stroke-linecap="round" stroke-linejoin="round"/>
</svg>
