<svg width="12" height="12" viewBox="0 0 12 12" fill="none" xmlns="http://www.w3.org/2000/svg">
<g clip-path="url(#clip0_777_2454)">
<g filter="url(#filter0_iii_777_2454)">
<path d="M6.97136 1.40391L7.79749 3.13641C7.92499 3.39366 8.15861 3.57478 8.42936 3.61491L10.2774 3.87591C11.2291 4.01691 11.5884 5.03878 10.85 5.78316L9.55511 7.11891C9.44995 7.22515 9.37183 7.35509 9.32732 7.49781C9.28282 7.64053 9.27323 7.79184 9.29936 7.93903L9.59036 9.83766C9.75574 10.8224 8.92661 11.5214 8.08736 11.0714L6.38636 10.1665C6.27052 10.1051 6.14138 10.0729 6.01024 10.0729C5.8791 10.0729 5.74996 10.1051 5.63411 10.1665L3.93311 11.071C3.09386 11.5173 2.21336 10.8397 2.45936 9.81441L2.74661 7.95703C2.77275 7.80984 2.76316 7.65853 2.71866 7.51581C2.67415 7.3731 2.59603 7.24315 2.49086 7.13691L1.17049 5.75391C0.426115 5.01853 0.791365 4.01691 1.74312 3.87628L3.52324 3.61491C3.79436 3.57478 4.10524 3.39778 4.22936 3.13641L5.07236 1.40391C5.50136 0.532031 6.54611 0.532031 6.97174 1.40391" fill="url(#paint0_radial_777_2454)"/>
<path d="M6.97136 1.40391L7.79749 3.13641C7.92499 3.39366 8.15861 3.57478 8.42936 3.61491L10.2774 3.87591C11.2291 4.01691 11.5884 5.03878 10.85 5.78316L9.55511 7.11891C9.44995 7.22515 9.37183 7.35509 9.32732 7.49781C9.28282 7.64053 9.27323 7.79184 9.29936 7.93903L9.59036 9.83766C9.75574 10.8224 8.92661 11.5214 8.08736 11.0714L6.38636 10.1665C6.27052 10.1051 6.14138 10.0729 6.01024 10.0729C5.8791 10.0729 5.74996 10.1051 5.63411 10.1665L3.93311 11.071C3.09386 11.5173 2.21336 10.8397 2.45936 9.81441L2.74661 7.95703C2.77275 7.80984 2.76316 7.65853 2.71866 7.51581C2.67415 7.3731 2.59603 7.24315 2.49086 7.13691L1.17049 5.75391C0.426115 5.01853 0.791365 4.01691 1.74312 3.87628L3.52324 3.61491C3.79436 3.57478 4.10524 3.39778 4.22936 3.13641L5.07236 1.40391C5.50136 0.532031 6.54611 0.532031 6.97174 1.40391" fill="url(#paint1_radial_777_2454)"/>
</g>
<path d="M6.97136 1.40391L7.79749 3.13641C7.92499 3.39366 8.15861 3.57478 8.42936 3.61491L10.2774 3.87591C11.2291 4.01691 11.5884 5.03878 10.85 5.78316L9.55511 7.11891C9.44995 7.22515 9.37183 7.35509 9.32732 7.49781C9.28282 7.64053 9.27323 7.79184 9.29936 7.93903L9.59036 9.83766C9.75574 10.8224 8.92661 11.5214 8.08736 11.0714L6.38636 10.1665C6.27052 10.1051 6.14138 10.0729 6.01024 10.0729C5.8791 10.0729 5.74996 10.1051 5.63411 10.1665L3.93311 11.071C3.09386 11.5173 2.21336 10.8397 2.45936 9.81441L2.74661 7.95703C2.77275 7.80984 2.76316 7.65853 2.71866 7.51581C2.67415 7.3731 2.59603 7.24315 2.49086 7.13691L1.17049 5.75391C0.426115 5.01853 0.791365 4.01691 1.74312 3.87628L3.52324 3.61491C3.79436 3.57478 4.10524 3.39778 4.22936 3.13641L5.07236 1.40391C5.50136 0.532031 6.54611 0.532031 6.97174 1.40391" fill="url(#paint2_radial_777_2454)"/>
<path d="M6.97136 1.40391L7.79749 3.13641C7.92499 3.39366 8.15861 3.57478 8.42936 3.61491L10.2774 3.87591C11.2291 4.01691 11.5884 5.03878 10.85 5.78316L9.55511 7.11891C9.44995 7.22515 9.37183 7.35509 9.32732 7.49781C9.28282 7.64053 9.27323 7.79184 9.29936 7.93903L9.59036 9.83766C9.75574 10.8224 8.92661 11.5214 8.08736 11.0714L6.38636 10.1665C6.27052 10.1051 6.14138 10.0729 6.01024 10.0729C5.8791 10.0729 5.74996 10.1051 5.63411 10.1665L3.93311 11.071C3.09386 11.5173 2.21336 10.8397 2.45936 9.81441L2.74661 7.95703C2.77275 7.80984 2.76316 7.65853 2.71866 7.51581C2.67415 7.3731 2.59603 7.24315 2.49086 7.13691L1.17049 5.75391C0.426115 5.01853 0.791365 4.01691 1.74312 3.87628L3.52324 3.61491C3.79436 3.57478 4.10524 3.39778 4.22936 3.13641L5.07236 1.40391C5.50136 0.532031 6.54611 0.532031 6.97174 1.40391" fill="url(#paint3_radial_777_2454)"/>
<path d="M6.97136 1.40391L7.79749 3.13641C7.92499 3.39366 8.15861 3.57478 8.42936 3.61491L10.2774 3.87591C11.2291 4.01691 11.5884 5.03878 10.85 5.78316L9.55511 7.11891C9.44995 7.22515 9.37183 7.35509 9.32732 7.49781C9.28282 7.64053 9.27323 7.79184 9.29936 7.93903L9.59036 9.83766C9.75574 10.8224 8.92661 11.5214 8.08736 11.0714L6.38636 10.1665C6.27052 10.1051 6.14138 10.0729 6.01024 10.0729C5.8791 10.0729 5.74996 10.1051 5.63411 10.1665L3.93311 11.071C3.09386 11.5173 2.21336 10.8397 2.45936 9.81441L2.74661 7.95703C2.77275 7.80984 2.76316 7.65853 2.71866 7.51581C2.67415 7.3731 2.59603 7.24315 2.49086 7.13691L1.17049 5.75391C0.426115 5.01853 0.791365 4.01691 1.74312 3.87628L3.52324 3.61491C3.79436 3.57478 4.10524 3.39778 4.22936 3.13641L5.07236 1.40391C5.50136 0.532031 6.54611 0.532031 6.97174 1.40391" fill="url(#paint4_radial_777_2454)"/>
<path d="M6.97136 1.40391L7.79749 3.13641C7.92499 3.39366 8.15861 3.57478 8.42936 3.61491L10.2774 3.87591C11.2291 4.01691 11.5884 5.03878 10.85 5.78316L9.55511 7.11891C9.44995 7.22515 9.37183 7.35509 9.32732 7.49781C9.28282 7.64053 9.27323 7.79184 9.29936 7.93903L9.59036 9.83766C9.75574 10.8224 8.92661 11.5214 8.08736 11.0714L6.38636 10.1665C6.27052 10.1051 6.14138 10.0729 6.01024 10.0729C5.8791 10.0729 5.74996 10.1051 5.63411 10.1665L3.93311 11.071C3.09386 11.5173 2.21336 10.8397 2.45936 9.81441L2.74661 7.95703C2.77275 7.80984 2.76316 7.65853 2.71866 7.51581C2.67415 7.3731 2.59603 7.24315 2.49086 7.13691L1.17049 5.75391C0.426115 5.01853 0.791365 4.01691 1.74312 3.87628L3.52324 3.61491C3.79436 3.57478 4.10524 3.39778 4.22936 3.13641L5.07236 1.40391C5.50136 0.532031 6.54611 0.532031 6.97174 1.40391" fill="url(#paint5_radial_777_2454)"/>
</g>
<defs>
<filter id="filter0_iii_777_2454" x="0.308012" y="0.56383" width="11.4966" height="11.1125" filterUnits="userSpaceOnUse" color-interpolation-filters="sRGB">
<feFlood flood-opacity="0" result="BackgroundImageFix"/>
<feBlend mode="normal" in="SourceGraphic" in2="BackgroundImageFix" result="shape"/>
<feColorMatrix in="SourceAlpha" type="matrix" values="0 0 0 0 0 0 0 0 0 0 0 0 0 0 0 0 0 0 127 0" result="hardAlpha"/>
<feOffset dy="-0.18617"/>
<feGaussianBlur stdDeviation="0.558511"/>
<feComposite in2="hardAlpha" operator="arithmetic" k2="-1" k3="1"/>
<feColorMatrix type="matrix" values="0 0 0 0 0.772549 0 0 0 0 0.494118 0 0 0 0 0.282353 0 0 0 1 0"/>
<feBlend mode="normal" in2="shape" result="effect1_innerShadow_777_2454"/>
<feColorMatrix in="SourceAlpha" type="matrix" values="0 0 0 0 0 0 0 0 0 0 0 0 0 0 0 0 0 0 127 0" result="hardAlpha"/>
<feOffset dx="-0.465425" dy="0.465425"/>
<feGaussianBlur stdDeviation="0.279255"/>
<feComposite in2="hardAlpha" operator="arithmetic" k2="-1" k3="1"/>
<feColorMatrix type="matrix" values="0 0 0 0 1 0 0 0 0 0.952941 0 0 0 0 0.286275 0 0 0 1 0"/>
<feBlend mode="normal" in2="effect1_innerShadow_777_2454" result="effect2_innerShadow_777_2454"/>
<feColorMatrix in="SourceAlpha" type="matrix" values="0 0 0 0 0 0 0 0 0 0 0 0 0 0 0 0 0 0 127 0" result="hardAlpha"/>
<feOffset dx="0.558511" dy="-0.18617"/>
<feGaussianBlur stdDeviation="0.279255"/>
<feComposite in2="hardAlpha" operator="arithmetic" k2="-1" k3="1"/>
<feColorMatrix type="matrix" values="0 0 0 0 0.698039 0 0 0 0 0.537255 0 0 0 0 0.192157 0 0 0 1 0"/>
<feBlend mode="normal" in2="effect2_innerShadow_777_2454" result="effect3_innerShadow_777_2454"/>
</filter>
<radialGradient id="paint0_radial_777_2454" cx="0" cy="0" r="1" gradientUnits="userSpaceOnUse" gradientTransform="translate(9.19763 3.36344) rotate(132.939) scale(7.49261 7.41491)">
<stop stop-color="#FAC632"/>
<stop offset="1" stop-color="#F7C632"/>
</radialGradient>
<radialGradient id="paint1_radial_777_2454" cx="0" cy="0" r="1" gradientUnits="userSpaceOnUse" gradientTransform="translate(6.00911 5.98041) rotate(90) scale(5.23042 5.23552)">
<stop stop-color="#DDBA38"/>
<stop offset="1" stop-color="#DDBA38" stop-opacity="0"/>
</radialGradient>
<radialGradient id="paint2_radial_777_2454" cx="0" cy="0" r="1" gradientTransform="matrix(0.233355 0.81675 -2.7257 0.778774 2.64199 3.78066)" gradientUnits="userSpaceOnUse">
<stop stop-color="#DDBA38"/>
<stop offset="1" stop-color="#DDBA38" stop-opacity="0"/>
</radialGradient>
<radialGradient id="paint3_radial_777_2454" cx="0" cy="0" r="1" gradientTransform="matrix(1.41644 0.408375 -0.408772 1.41782 0.773365 4.31991)" gradientUnits="userSpaceOnUse">
<stop stop-color="#B5953A"/>
<stop offset="1" stop-color="#B5953A" stop-opacity="0"/>
</radialGradient>
<radialGradient id="paint4_radial_777_2454" cx="0" cy="0" r="1" gradientTransform="matrix(0.554216 -0.90426 0.905141 0.55476 3.32749 11.554)" gradientUnits="userSpaceOnUse">
<stop stop-color="#C47E42"/>
<stop offset="1" stop-color="#C47E42" stop-opacity="0"/>
</radialGradient>
<radialGradient id="paint5_radial_777_2454" cx="0" cy="0" r="1" gradientUnits="userSpaceOnUse" gradientTransform="translate(11.6408 4.37846) rotate(150.751) scale(0.8358 1.09898)">
<stop stop-color="#FFF246"/>
<stop offset="1" stop-color="#FFF246" stop-opacity="0"/>
</radialGradient>
<clipPath id="clip0_777_2454">
<rect width="12" height="12" fill="white"/>
</clipPath>
</defs>
</svg>
