<svg width="40" height="40" viewBox="0 0 40 40" fill="none" xmlns="http://www.w3.org/2000/svg">
<circle cx="20" cy="20" r="20" fill="#F2FFF2"/>
<path d="M13.3327 27.5C12.8743 27.5 12.4821 27.337 12.156 27.0109C11.8299 26.6847 11.6666 26.2922 11.666 25.8334V16.6667C11.666 16.2084 11.8293 15.8161 12.156 15.49C12.4827 15.1639 12.8749 15.0006 13.3327 15H16.666V13.3334C16.666 12.875 16.8293 12.4828 17.156 12.1567C17.4827 11.8306 17.8749 11.6672 18.3327 11.6667H21.666C22.1243 11.6667 22.5168 11.83 22.8435 12.1567C23.1702 12.4834 23.3332 12.8756 23.3327 13.3334V15H26.666C27.1243 15 27.5168 15.1634 27.8435 15.49C28.1702 15.8167 28.3332 16.2089 28.3327 16.6667V25.8334C28.3327 26.2917 28.1696 26.6842 27.8435 27.0109C27.5174 27.3375 27.1249 27.5006 26.666 27.5H13.3327ZM13.3327 25.8334H26.666V16.6667H13.3327V25.8334ZM18.3327 15H21.666V13.3334H18.3327V15Z" fill="#1D1C1C"/>
</svg>
