<svg width="44" height="44" viewBox="0 0 44 44" fill="none" xmlns="http://www.w3.org/2000/svg">
<path d="M36.364 21.8189V12.728H40.0004V23.6371H36.364M36.364 30.9098H40.0004V27.2734H36.364M18.1822 23.6371C23.0367 23.6371 32.7276 26.0734 32.7276 30.9098V36.3643H3.63672V30.9098C3.63672 26.0734 13.3276 23.6371 18.1822 23.6371ZM18.1822 7.27344C20.111 7.27344 21.9609 8.03967 23.3248 9.40357C24.6887 10.7675 25.4549 12.6173 25.4549 14.5462C25.4549 16.475 24.6887 18.3249 23.3248 19.6888C21.9609 21.0527 20.111 21.8189 18.1822 21.8189C16.2533 21.8189 14.4035 21.0527 13.0396 19.6888C11.6757 18.3249 10.9094 16.475 10.9094 14.5462C10.9094 12.6173 11.6757 10.7675 13.0396 9.40357C14.4035 8.03967 16.2533 7.27344 18.1822 7.27344ZM18.1822 27.0916C12.7822 27.0916 7.09126 29.7462 7.09126 30.9098V32.9098H29.2731V30.9098C29.2731 29.7462 23.5822 27.0916 18.1822 27.0916ZM18.1822 10.728C17.1695 10.728 16.1984 11.1303 15.4823 11.8463C14.7663 12.5624 14.364 13.5335 14.364 14.5462C14.364 15.5588 14.7663 16.53 15.4823 17.246C16.1984 17.9621 17.1695 18.3643 18.1822 18.3643C19.1948 18.3643 20.166 17.9621 20.882 17.246C21.5981 16.53 22.0004 15.5588 22.0004 14.5462C22.0004 13.5335 21.5981 12.5624 20.882 11.8463C20.166 11.1303 19.1948 10.728 18.1822 10.728Z" fill="white"/>
</svg>
