<svg width="89" height="229" viewBox="0 0 89 229" fill="none" xmlns="http://www.w3.org/2000/svg">
<path d="M-279.968 170.541C-280.874 204.334 -262.675 251.123 -225.212 242.675C-196.895 236.29 -222.661 204.154 -187.84 185.981C-153.019 167.807 -107.59 173.269 -85.8614 203.192C-69.8608 225.226 -98.2195 246.254 -85.8614 270.01C-57.4556 324.615 83.4445 312.594 88.8342 252.799C92.4069 213.164 37.2306 207.401 20.1728 170.541C-0.552826 125.757 41.936 85.6182 8.29462 47.2812C-17.1466 18.2889 -46.2008 -8.84112 -85.8614 2.73538C-137.369 17.77 -36.6103 104.234 -85.8614 124.224C-108.743 133.511 -125.512 127.469 -150.467 124.224C-180.972 120.257 -195.289 95.4283 -225.212 101.951C-261.481 109.857 -279.092 137.893 -279.968 170.541Z" fill="url(#paint0_linear_174_9812)"/>
<defs>
<linearGradient id="paint0_linear_174_9812" x1="-280" y1="152.5" x2="89" y2="152.5" gradientUnits="userSpaceOnUse">
<stop stop-color="#EEA356"/>
<stop offset="1" stop-color="#CE949E"/>
</linearGradient>
</defs>
</svg>
